<?xml version="1.0" encoding="utf-8"?>
<!-- Generator: Adobe Illustrator 27.9.4, SVG Export Plug-In . SVG Version: 9.03 Build 54784)  -->
<svg version="1.1" id="Capa_1" xmlns="http://www.w3.org/2000/svg" xmlns:xlink="http://www.w3.org/1999/xlink" x="0px" y="0px"
	 viewBox="0 0 595.28 841.89" style="enable-background:new 0 0 595.28 841.89;" xml:space="preserve">
<style type="text/css">
	.st0{stroke:#000000;stroke-width:0.25;stroke-miterlimit:10;}
	.st1{fill:none;stroke:#000000;stroke-width:3;stroke-miterlimit:10;}
</style>
<g>
	<path d="M279.09,430.34c0.19-0.99-0.16-2.01-0.92-2.67c-1.91-1.65-5.18-4.46-6.84-5.86l-2.13-1.82c-0.81-0.69-1.54-1.38-2.19-2.06
		s-1.2-1.34-1.64-1.96s-0.78-1.19-1.02-1.7c-0.24-0.51-0.43-1.08-0.56-1.7c-0.13-0.62-0.2-1.26-0.2-1.92c0-1.65,0.45-3.2,1.35-4.64
		c0.9-1.44,2.26-2.59,4.08-3.46c1.82-0.86,4.21-1.3,7.19-1.3c2.13,0,4.75,0.29,7.87,0.86c0.04,1.24,0.17,2.76,0.4,4.55
		c-2.94-1.04-5.61-1.56-8.01-1.56c-1.65,0-3.04,0.27-4.15,0.82c-1.11,0.55-1.96,1.24-2.54,2.09c-0.58,0.85-0.86,1.72-0.86,2.62
		c0,0.54,0.08,1.06,0.23,1.57c0.15,0.51,0.38,0.99,0.69,1.46c0.44,0.67,0.99,1.35,1.64,2.03s1.56,1.51,2.71,2.49
		c0.29,0.23,1.39,1.13,3.3,2.71c1.6,1.32,4.82,4.27,6.34,5.72c0.43,0.4,0.62,0.99,0.51,1.57l-2.16,11.88
		c-0.12,0.64-0.67,1.11-1.33,1.11l-17.89,0.06c-0.69,0-1.3-0.43-1.54-1.07l-3.22-8.82c-0.19-0.51-0.14-1.08,0.12-1.56l6.08-11.14
		l3.71,3.5l-3.8,6.99c-0.48,0.95-0.58,2.05-0.28,3.07l0.95,3.16c0.3,1.01,1.23,1.69,2.28,1.69l8.56-0.04
		c1.14-0.01,2.12-0.81,2.33-1.93L279.09,430.34z"/>
	<path d="M289.19,426.89c0.16-0.84,0.27-1.44,0.31-1.78s0.11-0.86,0.22-1.55c1.59-0.38,3-0.64,4.22-0.79s2.4-0.23,3.53-0.23
		c1.29,0,2.47,0.15,3.55,0.45s1.92,0.78,2.53,1.43s0.91,1.6,0.91,2.83c0,0.67-0.09,2.37-0.28,5.11c-0.19,2.74-0.3,5.56-0.33,8.48
		c-0.89-0.02-1.71-0.04-2.46-0.04c-0.72,0-1.55,0.01-2.52,0.04c0.15-1.42,0.28-3.06,0.37-4.92l0.23-4.38
		c-0.45,0.29-0.79,0.5-1.02,0.62s-0.5,0.23-0.79,0.33s-0.81,0.25-1.55,0.46c-0.74,0.21-1.33,0.38-1.78,0.54s-0.85,0.33-1.21,0.52
		s-0.66,0.41-0.91,0.65s-0.42,0.49-0.54,0.76s-0.17,0.55-0.17,0.85c0,0.49,0.14,0.92,0.43,1.27s0.65,0.61,1.08,0.75
		s0.94,0.21,1.53,0.21c0.38,0,0.77-0.03,1.19-0.09s0.98-0.21,1.68-0.44c-0.25,0.67-0.53,1.66-0.86,2.99
		c-0.83,0.14-1.49,0.23-1.99,0.26s-0.95,0.05-1.37,0.05c-1.48,0-2.69-0.2-3.64-0.6s-1.65-1.03-2.1-1.9s-0.68-1.74-0.68-2.62
		c0-0.5,0.09-1,0.26-1.49s0.43-0.94,0.77-1.35c0.34-0.41,0.78-0.81,1.32-1.19c0.54-0.38,1.32-0.75,2.34-1.11
		c1.02-0.36,2.37-0.72,4.04-1.08c0.45-0.09,0.91-0.21,1.39-0.34s0.87-0.27,1.15-0.4s0.54-0.3,0.75-0.5s0.37-0.42,0.47-0.64
		s0.15-0.45,0.15-0.69c0-0.46-0.15-0.84-0.45-1.16s-0.69-0.54-1.16-0.66c-0.48-0.12-1-0.18-1.58-0.18
		C294.13,425.36,291.77,425.87,289.19,426.89z"/>
	<path class="st0" d="M308.15,441.26c0.18-1.76,0.3-3.23,0.38-4.41c0.12-1.88,0.22-4.04,0.31-6.49c0.09-2.45,0.15-4.78,0.19-6.98
		c1.14,0.02,2,0.04,2.57,0.04c0.52,0,1.37-0.01,2.55-0.04c-0.16,2.04-0.29,3.98-0.38,5.84c-0.1,1.85-0.17,3.97-0.21,6.36
		c-0.04,2.39-0.07,4.28-0.07,5.68c-1.07-0.02-1.92-0.04-2.57-0.04C310.3,441.23,309.38,441.24,308.15,441.26z M309.11,420.33
		c0.05-1.21,0.07-2.13,0.07-2.78v-0.56c1.07,0.02,1.93,0.04,2.6,0.04c0.91,0,1.76-0.01,2.55-0.04c-0.04,0.29-0.06,0.63-0.07,1
		l-0.09,2.34c-0.89-0.02-1.71-0.04-2.46-0.04S310.1,420.31,309.11,420.33z"/>
	<path d="M317.72,441.26c0.27-2.66,0.49-5.65,0.67-8.96c0.18-3.32,0.28-6.29,0.31-8.91c1.08,0.02,1.94,0.04,2.59,0.04
		c0.76,0,1.57-0.01,2.43-0.04l-0.2,2.99c0.36-0.52,0.68-0.93,0.96-1.23c0.28-0.3,0.63-0.6,1.05-0.9s0.88-0.53,1.37-0.7
		s1.03-0.32,1.63-0.42s1.23-0.16,1.89-0.16c1.04,0,2.04,0.13,3,0.4s1.73,0.68,2.31,1.26c0.59,0.57,0.97,1.2,1.16,1.88
		s0.28,1.4,0.28,2.16c0,0.32-0.02,0.82-0.05,1.51l-0.36,7.68c-0.05,1.07-0.08,2.2-0.09,3.41c-0.93-0.02-1.72-0.04-2.38-0.04
		c-0.89,0-1.79,0.01-2.69,0.04c0.09-1.02,0.21-2.8,0.35-5.33c0.14-2.54,0.21-4.22,0.21-5.04c0-0.93-0.15-1.67-0.44-2.23
		s-0.75-0.99-1.36-1.28c-0.61-0.29-1.28-0.44-1.99-0.44c-0.7,0-1.36,0.13-1.97,0.4c-0.61,0.27-1.14,0.66-1.58,1.18
		c-0.47,0.53-0.83,1.18-1.09,1.95c-0.27,0.82-0.47,2.17-0.6,4.06c-0.12,1.68-0.21,3.92-0.28,6.73c-0.9-0.02-1.72-0.04-2.45-0.04
		C319.67,441.23,318.78,441.24,317.72,441.26z"/>
	<circle class="st1" cx="288.91" cy="405.8" r="5.17"/>
</g>
</svg>
