<?xml version="1.0" encoding="utf-8"?>
<!-- Generator: Adobe Illustrator 27.9.4, SVG Export Plug-In . SVG Version: 9.03 Build 54784)  -->
<svg version="1.1" id="Capa_1" xmlns="http://www.w3.org/2000/svg" xmlns:xlink="http://www.w3.org/1999/xlink" x="0px" y="0px"
	 viewBox="0 0 595.28 841.89" style="enable-background:new 0 0 595.28 841.89;" xml:space="preserve">
<style type="text/css">
	.st0{fill:#FFFFFF;}
	.st1{fill:none;stroke:#FFFFFF;stroke-width:7.2452;stroke-miterlimit:10;}
</style>
<g>
	<path class="st0" d="M241.54,397.14c0.46-2.39-0.38-4.85-2.22-6.44c-4.61-3.99-12.5-10.76-16.52-14.16l-5.15-4.38
		c-1.95-1.67-3.71-3.33-5.29-4.98c-1.58-1.65-2.9-3.22-3.97-4.73c-1.07-1.51-1.89-2.88-2.47-4.11s-1.03-2.6-1.36-4.11
		c-0.32-1.51-0.49-3.05-0.49-4.63c0-3.99,1.09-7.72,3.27-11.2s5.46-6.26,9.85-8.35c4.38-2.09,10.17-3.13,17.36-3.13
		c5.15,0,11.48,0.7,19,2.09c0.09,2.99,0.42,6.65,0.97,11c-7.1-2.51-13.55-3.76-19.35-3.76c-3.99,0-7.33,0.66-10.02,1.97
		c-2.69,1.32-4.73,3-6.12,5.05c-1.39,2.05-2.09,4.17-2.09,6.33c0,1.3,0.19,2.56,0.56,3.79c0.37,1.23,0.93,2.4,1.67,3.51
		c1.07,1.62,2.39,3.26,3.97,4.91c1.58,1.65,3.76,3.65,6.54,6.02c0.7,0.56,3.35,2.74,7.97,6.54c3.86,3.18,11.63,10.32,15.32,13.81
		c1.03,0.98,1.5,2.4,1.24,3.8l-5.21,28.7c-0.28,1.55-1.63,2.68-3.21,2.69l-43.2,0.15c-1.66,0.01-3.15-1.03-3.72-2.59l-7.77-21.31
		c-0.45-1.24-0.35-2.62,0.28-3.78l14.69-26.91l8.96,8.45l-9.18,16.87c-1.17,2.3-1.41,4.96-0.67,7.42l2.3,7.63
		c0.73,2.43,2.97,4.09,5.51,4.07l20.68-0.1c2.75-0.01,5.11-1.97,5.63-4.67L241.54,397.14z"/>
	<path class="st0" d="M265.93,388.8c0.4-2.04,0.64-3.47,0.74-4.29c0.1-0.82,0.28-2.07,0.53-3.74c3.85-0.91,7.25-1.54,10.19-1.91
		c2.94-0.37,5.79-0.55,8.53-0.55c3.11,0,5.97,0.36,8.58,1.08s4.64,1.88,6.11,3.46c1.47,1.58,2.21,3.86,2.21,6.83
		c0,1.61-0.23,5.72-0.67,12.33c-0.45,6.61-0.72,13.44-0.8,20.48c-2.15-0.06-4.14-0.08-5.95-0.08c-1.73,0-3.75,0.03-6.08,0.08
		c0.37-3.42,0.67-7.39,0.9-11.89l0.56-10.57c-1.08,0.71-1.9,1.2-2.46,1.49c-0.57,0.28-1.21,0.54-1.91,0.79
		c-0.71,0.24-1.96,0.61-3.74,1.1c-1.79,0.5-3.22,0.93-4.29,1.29s-2.05,0.79-2.91,1.25c-0.86,0.47-1.59,0.99-2.19,1.57
		c-0.59,0.58-1.03,1.19-1.29,1.83c-0.27,0.64-0.4,1.32-0.4,2.06c0,1.19,0.35,2.21,1.04,3.08c0.69,0.86,1.56,1.46,2.61,1.8
		c1.05,0.34,2.28,0.51,3.69,0.51c0.91,0,1.86-0.07,2.87-0.21c1-0.14,2.36-0.5,4.05-1.06c-0.59,1.61-1.29,4.02-2.08,7.22
		c-2.01,0.34-3.61,0.55-4.8,0.64c-1.19,0.08-2.29,0.13-3.31,0.13c-3.57,0-6.5-0.48-8.79-1.44c-2.29-0.96-3.98-2.49-5.07-4.58
		c-1.09-2.09-1.63-4.2-1.63-6.33c0-1.22,0.21-2.42,0.64-3.61c0.42-1.19,1.05-2.28,1.87-3.27c0.82-0.99,1.88-1.95,3.19-2.87
		c1.3-0.92,3.19-1.81,5.65-2.67c2.46-0.86,5.72-1.73,9.77-2.61c1.08-0.23,2.2-0.5,3.36-0.83c1.16-0.33,2.09-0.64,2.78-0.96
		s1.29-0.71,1.8-1.21s0.88-1.01,1.12-1.55c0.24-0.54,0.36-1.09,0.36-1.66c0-1.1-0.36-2.04-1.08-2.8c-0.72-0.76-1.66-1.29-2.8-1.59
		c-1.15-0.3-2.42-0.45-3.8-0.45C277.85,385.1,272.16,386.33,265.93,388.8z"/>
	<path class="st0" d="M311.72,423.52c0.43-4.25,0.73-7.8,0.91-10.66c0.29-4.53,0.54-9.75,0.75-15.66
		c0.21-5.92,0.37-11.53,0.45-16.85c2.76,0.06,4.82,0.08,6.2,0.08c1.26,0,3.32-0.03,6.16-0.08c-0.38,4.92-0.69,9.62-0.92,14.09
		c-0.23,4.47-0.4,9.59-0.51,15.37c-0.11,5.77-0.16,10.34-0.16,13.71c-2.58-0.06-4.65-0.08-6.21-0.08
		C316.91,423.44,314.69,423.47,311.72,423.52z M314.04,372.96c0.11-2.92,0.17-5.15,0.17-6.71v-1.36c2.58,0.06,4.67,0.08,6.28,0.08
		c2.21,0,4.26-0.03,6.16-0.08c-0.08,0.71-0.14,1.51-0.17,2.42l-0.21,5.65c-2.15-0.06-4.13-0.08-5.94-0.08
		C318.51,372.88,316.42,372.91,314.04,372.96z"/>
	<path class="st0" d="M334.83,423.52c0.65-6.42,1.19-13.64,1.62-21.65c0.44-8.01,0.68-15.18,0.74-21.52
		c2.61,0.06,4.69,0.08,6.25,0.08c1.84,0,3.8-0.03,5.87-0.08l-0.47,7.22c0.87-1.25,1.65-2.24,2.31-2.97
		c0.67-0.74,1.51-1.46,2.55-2.17c1.03-0.71,2.14-1.27,3.31-1.7c1.17-0.42,2.49-0.76,3.95-1.02c1.46-0.25,2.98-0.38,4.57-0.38
		c2.52,0,4.93,0.32,7.24,0.96s4.17,1.65,5.58,3.04c1.42,1.39,2.35,2.9,2.8,4.54c0.45,1.64,0.68,3.38,0.68,5.22
		c0,0.76-0.04,1.98-0.13,3.65l-0.88,18.55c-0.11,2.58-0.18,5.32-0.21,8.24c-2.24-0.06-4.15-0.08-5.74-0.08
		c-2.16,0-4.32,0.03-6.5,0.08c0.23-2.46,0.51-6.76,0.85-12.88c0.34-6.13,0.51-10.18,0.51-12.16c0-2.24-0.35-4.03-1.06-5.39
		c-0.71-1.36-1.8-2.39-3.29-3.1c-1.48-0.71-3.09-1.06-4.81-1.06c-1.7,0-3.28,0.33-4.75,0.98c-1.47,0.65-2.74,1.6-3.82,2.84
		c-1.13,1.27-2.01,2.84-2.63,4.71c-0.65,1.98-1.13,5.25-1.44,9.81c-0.29,4.05-0.51,9.47-0.68,16.26c-2.18-0.06-4.15-0.08-5.91-0.08
		C339.55,423.44,337.38,423.47,334.83,423.52z"/>
	<circle class="st1" cx="265.26" cy="337.87" r="12.49"/>
</g>
<g>
	<path class="st0" d="M136.39,463.74c1.15-2.04,2.5-4.55,4.05-7.55l4.37-8.38c1.36-2.59,2.49-4.83,3.39-6.72
		c1.44,0.02,2.46,0.03,3.05,0.03c1.05,0,2.08-0.01,3.09-0.03l2.37,6.79l5.16,14.04l0.71,1.83l-2.49-0.03c-0.57,0-1.54,0.01-2.9,0.03
		c-0.27-0.99-0.69-2.31-1.26-3.98c-0.57-1.67-1.06-3.03-1.46-4.07h-8.74c-1.29,2.63-2.55,5.32-3.78,8.05l-2.71-0.03
		C138.75,463.71,137.79,463.72,136.39,463.74z M147.22,452.24h6.36l-2.61-7.68l-1.34,2.79L147.22,452.24z"/>
	<path class="st0" d="M181.83,463.74c-0.97-0.02-1.72-0.03-2.24-0.03c-0.65,0-1.39,0.01-2.23,0.03l0.03-2.76
		c-0.31,0.46-0.58,0.84-0.81,1.12c-0.23,0.28-0.54,0.56-0.91,0.83c-0.38,0.27-0.79,0.49-1.23,0.65c-0.44,0.16-0.95,0.29-1.52,0.4
		c-0.57,0.11-1.17,0.16-1.82,0.16c-1.24,0-2.32-0.18-3.24-0.54c-0.92-0.36-1.65-0.91-2.18-1.64c-0.54-0.73-0.8-1.78-0.8-3.14v-0.35
		l0.27-4.28l0.25-5.64c0.01-0.45,0.02-1.02,0.02-1.69c1.05,0.02,1.87,0.03,2.47,0.03c0.63,0,1.39-0.01,2.29-0.03l-0.55,7.57
		c-0.03,0.59-0.06,1.08-0.08,1.49c-0.02,0.4-0.03,0.7-0.03,0.87c0,0.8,0.12,1.46,0.36,1.98c0.24,0.53,0.65,0.93,1.24,1.2
		c0.59,0.28,1.22,0.42,1.9,0.42c0.64,0,1.25-0.12,1.82-0.37c0.52-0.22,0.96-0.53,1.33-0.93s0.68-0.94,0.94-1.61
		c0.19-0.49,0.33-1.16,0.43-2.03c0.08-0.61,0.15-1.65,0.22-3.14c0.09-1.79,0.16-3.61,0.19-5.46c1.1,0.02,1.93,0.03,2.51,0.03
		c0.65,0,1.39-0.01,2.21-0.03c-0.13,1.58-0.27,3.56-0.41,5.93c-0.14,2.38-0.24,4.33-0.3,5.88
		C181.9,460.21,181.86,461.9,181.83,463.74z"/>
	<path class="st0" d="M203.11,463.74c-0.92-0.02-1.63-0.03-2.14-0.03c-0.55,0-1.32,0.01-2.29,0.03l0.15-2.89
		c-0.49,0.63-0.9,1.12-1.25,1.46s-0.78,0.66-1.29,0.96c-0.51,0.29-1.07,0.51-1.67,0.66s-1.22,0.22-1.86,0.22
		c-1.06,0-2.06-0.19-2.99-0.58s-1.72-0.93-2.37-1.64c-0.65-0.7-1.13-1.54-1.44-2.51c-0.31-0.97-0.46-1.98-0.46-3.03
		c0-1.45,0.28-2.86,0.83-4.24c0.55-1.38,1.31-2.49,2.27-3.35s2.05-1.46,3.27-1.81c1.22-0.35,2.52-0.53,3.92-0.53
		c1.01,0,2.15,0.09,3.42,0.28c0.08-1.44,0.12-2.95,0.12-4.53v-1.13c1.04,0.02,1.84,0.03,2.39,0.03c0.72,0,1.53-0.01,2.43-0.03
		c-0.24,2.81-0.47,6.64-0.69,11.48C203.22,457.4,203.11,461.13,203.11,463.74z M199.01,449.9c-0.83-0.22-1.63-0.33-2.39-0.33
		c-0.87,0-1.71,0.12-2.51,0.37s-1.5,0.66-2.12,1.25c-0.61,0.59-1.09,1.34-1.42,2.26s-0.5,1.8-0.5,2.66s0.15,1.63,0.46,2.34
		c0.3,0.71,0.78,1.27,1.42,1.68c0.64,0.41,1.37,0.61,2.17,0.61c0.61,0,1.16-0.11,1.66-0.32c0.5-0.21,0.95-0.55,1.36-1
		c0.41-0.45,0.75-1.03,1.04-1.73s0.48-1.65,0.61-2.82C198.87,453.98,198.94,452.33,199.01,449.9z"/>
	<path class="st0" d="M207.21,463.74c0.16-1.66,0.28-3.05,0.34-4.17c0.11-1.77,0.2-3.81,0.28-6.13s0.14-4.51,0.17-6.59
		c1.08,0.02,1.9,0.03,2.44,0.03c0.5,0,1.31-0.01,2.43-0.03c-0.15,1.93-0.27,3.76-0.36,5.51c-0.09,1.75-0.16,3.75-0.2,6.01
		c-0.04,2.26-0.06,4.04-0.06,5.36c-1.01-0.02-1.82-0.03-2.43-0.03C209.24,463.71,208.37,463.72,207.21,463.74z M208.35,444.58
		l0.61-1.53c0.12-0.33,0.27-0.73,0.45-1.2s0.35-0.9,0.51-1.31c0.9,0.02,1.72,0.03,2.47,0.03c0.62,0,1.45-0.01,2.49-0.03
		c-0.74,0.92-1.29,1.64-1.66,2.16l-1.38,1.88c-0.59-0.02-1.18-0.03-1.79-0.03C209.52,444.55,208.95,444.56,208.35,444.58z"/>
	<path class="st0" d="M216.89,463.74l0.2-2.74l0.5-10.79h-2.06c0.03-0.33,0.07-0.87,0.11-1.62c0.04-0.75,0.06-1.29,0.07-1.64h2.26
		v-0.66c0-1.18,0.05-2.09,0.15-2.71c0.1-0.63,0.29-1.14,0.56-1.54c0.27-0.4,0.65-0.74,1.15-1.04c0.49-0.29,1.03-0.49,1.62-0.6
		c0.59-0.1,1.19-0.16,1.81-0.16c1.26,0,2.6,0.18,4,0.53c0.03,1.24,0.09,2.3,0.18,3.19c-1.06-0.38-2.03-0.56-2.91-0.56
		c-0.34,0-0.66,0.04-0.95,0.12c-0.29,0.08-0.52,0.2-0.71,0.34c-0.18,0.14-0.33,0.33-0.46,0.56s-0.21,0.51-0.25,0.82
		c-0.04,0.32-0.07,0.68-0.07,1.09l0,0.61h4.23c-0.07,0.76-0.13,1.85-0.2,3.25h-3.98c-0.21,4.41-0.38,8.92-0.49,13.53
		c-1.01-0.02-1.81-0.03-2.4-0.03C218.65,463.71,217.86,463.72,216.89,463.74z"/>
	<path class="st0" d="M237.04,446.46c1.27,0,2.49,0.19,3.66,0.57c1.17,0.38,2.16,0.95,2.97,1.69c0.81,0.75,1.43,1.66,1.83,2.74
		c0.41,1.08,0.61,2.22,0.61,3.41c0,1.26-0.22,2.48-0.65,3.65s-1.06,2.19-1.88,3.05c-0.82,0.86-1.84,1.5-3.06,1.93
		c-1.22,0.43-2.53,0.64-3.91,0.64c-1.28,0-2.5-0.19-3.66-0.57c-1.16-0.38-2.14-0.96-2.96-1.72s-1.44-1.69-1.87-2.79
		c-0.43-1.1-0.64-2.24-0.64-3.44c0-1.22,0.19-2.38,0.58-3.49s0.99-2.09,1.82-2.96c0.83-0.86,1.88-1.53,3.16-2.01
		S235.67,446.46,237.04,446.46z M237.04,449.88c-0.96,0-1.82,0.24-2.57,0.71c-0.75,0.47-1.32,1.17-1.69,2.1
		c-0.37,0.93-0.55,1.94-0.55,3.04c0,0.96,0.15,1.82,0.46,2.57c0.3,0.75,0.8,1.36,1.49,1.83s1.51,0.7,2.46,0.7
		c0.97,0,1.82-0.24,2.55-0.72c0.73-0.48,1.29-1.19,1.65-2.12c0.37-0.93,0.55-1.97,0.55-3.1c0-0.92-0.14-1.75-0.43-2.51
		c-0.29-0.75-0.77-1.36-1.45-1.81C238.84,450.11,238.01,449.88,237.04,449.88z"/>
	<path class="st0" d="M248.85,463.74c0.25-2.51,0.46-5.33,0.64-8.47c0.17-3.13,0.27-5.94,0.29-8.42c1.02,0.02,1.83,0.03,2.44,0.03
		c0.72,0,1.49-0.01,2.29-0.03l-0.18,2.82c0.34-0.49,0.64-0.87,0.9-1.16c0.26-0.29,0.59-0.57,1-0.85c0.4-0.28,0.83-0.5,1.29-0.66
		c0.46-0.17,0.97-0.3,1.54-0.4s1.17-0.15,1.79-0.15c0.99,0,1.93,0.12,2.83,0.37c0.9,0.25,1.63,0.64,2.18,1.19s0.92,1.13,1.1,1.78
		s0.27,1.32,0.27,2.04c0,0.3-0.02,0.77-0.05,1.43l-0.34,7.25c-0.04,1.01-0.07,2.08-0.08,3.22c-0.88-0.02-1.62-0.03-2.24-0.03
		c-0.84,0-1.69,0.01-2.54,0.03c0.09-0.96,0.2-2.64,0.33-5.04c0.13-2.4,0.2-3.98,0.2-4.76c0-0.87-0.14-1.58-0.42-2.11
		c-0.28-0.53-0.71-0.94-1.29-1.21c-0.58-0.28-1.21-0.42-1.88-0.42c-0.66,0-1.28,0.13-1.86,0.38c-0.58,0.25-1.07,0.62-1.49,1.11
		c-0.44,0.5-0.79,1.11-1.03,1.84c-0.25,0.77-0.44,2.05-0.56,3.83c-0.11,1.58-0.2,3.7-0.27,6.36c-0.85-0.02-1.62-0.03-2.31-0.03
		C250.69,463.71,249.84,463.72,248.85,463.74z"/>
	<path class="st0" d="M279.81,446.46c1.27,0,2.49,0.19,3.66,0.57c1.17,0.38,2.16,0.95,2.97,1.69c0.81,0.75,1.43,1.66,1.83,2.74
		c0.41,1.08,0.61,2.22,0.61,3.41c0,1.26-0.22,2.48-0.65,3.65s-1.06,2.19-1.88,3.05c-0.82,0.86-1.84,1.5-3.06,1.93
		c-1.22,0.43-2.53,0.64-3.91,0.64c-1.28,0-2.5-0.19-3.66-0.57c-1.16-0.38-2.14-0.96-2.96-1.72s-1.44-1.69-1.87-2.79
		c-0.43-1.1-0.64-2.24-0.64-3.44c0-1.22,0.19-2.38,0.58-3.49s0.99-2.09,1.82-2.96c0.83-0.86,1.88-1.53,3.16-2.01
		S278.43,446.46,279.81,446.46z M279.81,449.88c-0.96,0-1.82,0.24-2.57,0.71c-0.75,0.47-1.32,1.17-1.69,2.1
		c-0.37,0.93-0.55,1.94-0.55,3.04c0,0.96,0.15,1.82,0.46,2.57c0.3,0.75,0.8,1.36,1.49,1.83s1.51,0.7,2.46,0.7
		c0.97,0,1.82-0.24,2.55-0.72c0.73-0.48,1.29-1.19,1.65-2.12c0.37-0.93,0.55-1.97,0.55-3.1c0-0.92-0.14-1.75-0.43-2.51
		c-0.29-0.75-0.77-1.36-1.45-1.81C281.6,450.11,280.78,449.88,279.81,449.88z"/>
	<path class="st0" d="M291.28,463.43l-0.37-3.65c1.08,0.44,2,0.75,2.76,0.92c0.75,0.17,1.44,0.26,2.08,0.26s1.16-0.07,1.59-0.22
		c0.43-0.15,0.75-0.37,0.96-0.66c0.21-0.29,0.32-0.6,0.32-0.92c0-0.14-0.01-0.28-0.04-0.4c-0.03-0.12-0.08-0.25-0.15-0.38
		c-0.07-0.13-0.16-0.26-0.25-0.37c-0.09-0.12-0.22-0.25-0.39-0.4c-0.17-0.15-0.4-0.34-0.71-0.57l-0.9-0.71
		c-0.86-0.67-1.52-1.21-1.98-1.59s-0.84-0.78-1.15-1.19c-0.31-0.4-0.54-0.83-0.71-1.28c-0.16-0.45-0.24-0.91-0.24-1.37
		c0-0.81,0.25-1.58,0.74-2.31c0.49-0.73,1.21-1.26,2.15-1.6c0.94-0.34,2.05-0.51,3.32-0.51c1.45,0,3.12,0.17,5.01,0.51l0.22,3.47
		c-1.28-0.52-2.52-0.78-3.7-0.78c-0.64,0-1.2,0.06-1.68,0.19c-0.48,0.13-0.83,0.32-1.04,0.58c-0.21,0.26-0.32,0.55-0.32,0.87
		c0,0.19,0.03,0.37,0.1,0.56c0.07,0.18,0.18,0.37,0.35,0.57s0.36,0.39,0.57,0.56c0.21,0.18,0.67,0.53,1.35,1.05s1.29,0.99,1.8,1.41
		c0.51,0.42,0.94,0.84,1.27,1.27c0.33,0.43,0.59,0.88,0.76,1.37s0.27,0.98,0.27,1.48c0,0.83-0.25,1.6-0.76,2.31
		s-1.28,1.26-2.31,1.66s-2.18,0.6-3.45,0.6c-0.66,0-1.47-0.05-2.42-0.16C293.38,463.88,292.36,463.69,291.28,463.43z"/>
	<path class="st0" d="M315.04,463.74c1.26-1.59,2.78-3.59,4.58-5.99c1.8-2.41,3.19-4.32,4.18-5.74l-1.9-3.21
		c-0.35-0.58-0.86-1.39-1.53-2.43l-1.61-2.5c-0.4-0.62-0.84-1.33-1.34-2.13c1.38,0.02,2.8,0.03,4.25,0.03
		c1.15,0,2.38-0.01,3.69-0.03c0.47,0.93,1.03,1.95,1.67,3.04c0.64,1.09,1.15,2.04,1.52,2.84c0.43-0.74,1.01-1.66,1.76-2.76
		c0.74-1.1,1.39-2.14,1.95-3.12c1.14,0.02,2.38,0.03,3.72,0.03c0.87,0,2.1-0.01,3.71-0.03c-0.77,1.11-1.92,2.67-3.45,4.71
		c-1.53,2.03-2.97,4.03-4.33,6.01c1.74,2.96,4.1,6.72,7.09,11.28c-1.7-0.02-2.97-0.03-3.82-0.03c-1.42,0-2.82,0.01-4.21,0.03
		c-0.42-0.86-1.01-1.95-1.76-3.26c-0.76-1.32-1.42-2.53-1.97-3.63c-0.42,0.75-1.11,1.81-2.06,3.17c-0.96,1.37-1.8,2.61-2.53,3.72
		c-1.57-0.02-2.81-0.03-3.72-0.03C317.91,463.71,316.61,463.72,315.04,463.74z"/>
	<path class="st0" d="M351.48,463.74c0.15-1.83,0.31-4.55,0.48-8.19c0.17-3.63,0.25-6.37,0.25-8.2c0.91,0.02,1.65,0.03,2.22,0.03
		c0.66,0,1.36-0.01,2.13-0.03l-0.12,2.59c0.34-0.5,0.66-0.92,0.94-1.23c0.28-0.32,0.65-0.61,1.1-0.88c0.45-0.27,0.98-0.48,1.59-0.64
		c0.61-0.16,1.23-0.23,1.88-0.23c0.48,0,0.95,0.04,1.4,0.14c0.45,0.09,0.86,0.22,1.23,0.39c0.37,0.17,0.69,0.36,0.95,0.57
		c0.26,0.21,0.49,0.45,0.67,0.72c0.18,0.26,0.38,0.65,0.6,1.17c0.24-0.38,0.45-0.69,0.65-0.94c0.2-0.25,0.46-0.51,0.8-0.78
		c0.33-0.27,0.7-0.49,1.11-0.68s0.87-0.33,1.38-0.43c0.51-0.1,1.04-0.15,1.59-0.15c0.93,0,1.82,0.15,2.64,0.46
		c0.83,0.31,1.48,0.79,1.95,1.45c0.47,0.66,0.71,1.48,0.71,2.46c0,0.52-0.04,1.27-0.11,2.27c-0.08,1-0.17,2.63-0.27,4.89
		c-0.11,2.26-0.16,4.01-0.17,5.25c-0.79-0.02-1.48-0.03-2.08-0.03c-0.71,0-1.54,0.01-2.5,0.03c0.1-1.39,0.19-2.84,0.28-4.35
		l0.19-3.69c0.05-0.93,0.08-1.72,0.08-2.37c0-0.77-0.12-1.35-0.36-1.74c-0.24-0.39-0.55-0.67-0.92-0.84
		c-0.37-0.17-0.79-0.25-1.25-0.25c-0.48,0-0.92,0.09-1.31,0.28s-0.76,0.48-1.1,0.89c-0.34,0.41-0.6,0.89-0.78,1.43
		s-0.32,1.31-0.4,2.29c-0.08,0.98-0.15,2.27-0.21,3.88l-0.11,4.48c-0.89-0.02-1.64-0.03-2.23-0.03c-0.59,0-1.38,0.01-2.37,0.03
		c0.08-0.83,0.18-2.52,0.32-5.08c0.14-2.56,0.21-4.28,0.21-5.17c0-0.47-0.04-0.87-0.11-1.2c-0.08-0.33-0.23-0.64-0.46-0.93
		c-0.23-0.3-0.5-0.51-0.81-0.65c-0.31-0.14-0.67-0.21-1.08-0.21c-0.75,0-1.41,0.25-1.98,0.74c-0.57,0.49-0.99,1.16-1.25,1.98
		s-0.45,2.44-0.57,4.83c-0.12,2.39-0.18,4.29-0.18,5.7c-0.99-0.02-1.73-0.03-2.23-0.03C353.27,463.71,352.48,463.72,351.48,463.74z"
		/>
	<path class="st0" d="M395.56,460.08c-0.14,0.63-0.34,1.77-0.6,3.42c-1.16,0.25-2.14,0.41-2.93,0.5s-1.59,0.13-2.4,0.13
		c-1.41,0-2.67-0.14-3.78-0.42c-1.11-0.28-2.09-0.79-2.92-1.54s-1.46-1.66-1.85-2.74s-0.6-2.22-0.6-3.41c0-1.32,0.23-2.6,0.69-3.84
		c0.46-1.24,1.11-2.25,1.94-3.04c0.83-0.79,1.78-1.35,2.84-1.67s2.18-0.49,3.34-0.49c1.1,0,2.14,0.14,3.12,0.41s1.82,0.72,2.49,1.34
		c0.67,0.62,1.19,1.37,1.55,2.24c0.36,0.87,0.54,1.85,0.54,2.92c0,0.5-0.05,1.02-0.16,1.56l-11.81,0.02
		c-0.02,0.4-0.03,0.71-0.03,0.95c0,0.72,0.12,1.38,0.37,1.98c0.25,0.6,0.61,1.11,1.08,1.53c0.47,0.42,1.04,0.73,1.69,0.93
		c0.65,0.2,1.3,0.3,1.93,0.3c0.74,0,1.54-0.08,2.41-0.24C393.34,460.74,394.37,460.47,395.56,460.08z M385.15,453.57l7.54,0.02
		c0-0.51-0.02-0.89-0.05-1.14c-0.03-0.25-0.11-0.53-0.22-0.84c-0.11-0.32-0.27-0.59-0.46-0.83c-0.19-0.24-0.42-0.44-0.68-0.6
		s-0.56-0.28-0.89-0.37c-0.34-0.09-0.7-0.13-1.09-0.13c-0.45,0-0.89,0.07-1.31,0.21c-0.42,0.14-0.81,0.34-1.17,0.61
		c-0.35,0.27-0.64,0.57-0.86,0.9c-0.22,0.33-0.38,0.65-0.49,0.96C385.37,452.65,385.26,453.06,385.15,453.57z"/>
	<path class="st0" d="M399.32,463.74c0.25-2.44,0.45-5.18,0.62-8.22s0.26-5.76,0.28-8.17c0.99,0.02,1.78,0.03,2.37,0.03
		c0.7,0,1.44-0.01,2.23-0.03l-0.18,2.74c0.33-0.47,0.63-0.85,0.88-1.13c0.25-0.28,0.57-0.55,0.97-0.82s0.81-0.48,1.26-0.64
		c0.45-0.16,0.95-0.29,1.5-0.39c0.55-0.1,1.13-0.14,1.73-0.14c0.96,0,1.87,0.12,2.75,0.36c0.88,0.24,1.58,0.63,2.12,1.15
		c0.54,0.53,0.89,1.1,1.06,1.72s0.26,1.28,0.26,1.98c0,0.29-0.02,0.75-0.05,1.38l-0.33,7.04c-0.04,0.98-0.07,2.02-0.08,3.13
		c-0.85-0.02-1.58-0.03-2.18-0.03c-0.82,0-1.64,0.01-2.47,0.03c0.09-0.93,0.19-2.56,0.32-4.89c0.13-2.33,0.19-3.86,0.19-4.62
		c0-0.85-0.13-1.53-0.4-2.05s-0.68-0.91-1.25-1.18s-1.17-0.4-1.83-0.4c-0.64,0-1.25,0.12-1.8,0.37c-0.56,0.25-1.04,0.61-1.45,1.08
		c-0.43,0.48-0.76,1.08-1,1.79c-0.25,0.75-0.43,1.99-0.55,3.72c-0.11,1.54-0.2,3.59-0.26,6.17c-0.83-0.02-1.58-0.03-2.24-0.03
		C401.11,463.71,400.29,463.72,399.32,463.74z"/>
	<path class="st0" d="M429.37,446.97c1.23,0,2.42,0.18,3.55,0.56c1.13,0.37,2.09,0.92,2.88,1.64c0.79,0.72,1.38,1.61,1.78,2.66
		c0.4,1.05,0.6,2.15,0.6,3.31c0,1.22-0.21,2.41-0.63,3.54c-0.42,1.14-1.03,2.12-1.82,2.96c-0.79,0.83-1.79,1.46-2.97,1.87
		c-1.19,0.41-2.45,0.62-3.79,0.62c-1.25,0-2.43-0.19-3.55-0.56c-1.12-0.37-2.08-0.93-2.88-1.67c-0.8-0.74-1.4-1.64-1.81-2.71
		c-0.41-1.06-0.62-2.17-0.62-3.33c0-1.18,0.19-2.31,0.56-3.38c0.38-1.07,0.96-2.03,1.76-2.87c0.8-0.84,1.82-1.49,3.07-1.95
		C426.75,447.2,428.04,446.97,429.37,446.97z M429.37,450.29c-0.93,0-1.76,0.23-2.5,0.69c-0.73,0.46-1.28,1.14-1.64,2.04
		s-0.54,1.89-0.54,2.95c0,0.94,0.15,1.77,0.44,2.5c0.29,0.73,0.78,1.32,1.45,1.77s1.46,0.68,2.38,0.68c0.94,0,1.77-0.23,2.48-0.7
		c0.71-0.47,1.25-1.15,1.61-2.06c0.36-0.91,0.54-1.91,0.54-3c0-0.89-0.14-1.7-0.42-2.43s-0.75-1.32-1.41-1.76
		S430.31,450.29,429.37,450.29z"/>
	<path class="st0" d="M440.5,463.43l-0.35-3.54c1.05,0.43,1.94,0.73,2.67,0.89c0.73,0.17,1.4,0.25,2.01,0.25s1.13-0.07,1.55-0.22
		c0.42-0.14,0.73-0.36,0.93-0.64c0.2-0.28,0.31-0.58,0.31-0.89c0-0.14-0.01-0.27-0.04-0.39c-0.03-0.12-0.08-0.24-0.14-0.37
		c-0.07-0.13-0.15-0.25-0.24-0.36c-0.09-0.11-0.22-0.24-0.38-0.39c-0.16-0.15-0.39-0.33-0.69-0.56l-0.87-0.69
		c-0.84-0.66-1.48-1.17-1.92-1.55s-0.81-0.76-1.11-1.15c-0.3-0.39-0.53-0.81-0.68-1.24c-0.16-0.44-0.23-0.88-0.23-1.33
		c0-0.78,0.24-1.53,0.72-2.24c0.48-0.71,1.17-1.23,2.09-1.55c0.91-0.33,1.99-0.49,3.22-0.49c1.41,0,3.03,0.17,4.87,0.5l0.21,3.37
		c-1.25-0.5-2.44-0.76-3.59-0.76c-0.62,0-1.17,0.06-1.63,0.19c-0.47,0.12-0.8,0.31-1.01,0.56c-0.2,0.25-0.31,0.54-0.31,0.85
		c0,0.18,0.03,0.36,0.1,0.54c0.06,0.18,0.18,0.36,0.34,0.56c0.16,0.19,0.35,0.38,0.56,0.55c0.21,0.17,0.65,0.51,1.31,1.02
		s1.25,0.96,1.75,1.37c0.5,0.41,0.91,0.82,1.23,1.23c0.32,0.41,0.57,0.86,0.74,1.33s0.26,0.95,0.26,1.43c0,0.81-0.25,1.55-0.74,2.24
		s-1.24,1.22-2.24,1.61c-1,0.39-2.12,0.58-3.35,0.58c-0.64,0-1.43-0.05-2.35-0.15C442.54,463.87,441.55,463.69,440.5,463.43z"/>
</g>
</svg>
