<svg xmlns="http://www.w3.org/2000/svg" xmlns:xlink="http://www.w3.org/1999/xlink" version="1.1" width="1171" height="492"><defs/><g><g transform="translate(-62,-198) scale(1,1)"><rect fill="#ffffff" stroke="none" x="896" y="568" width="239" height="112"/></g><g transform="translate(-62,-198) scale(1,1)"><path fill="none" stroke="#000000" d="M 896 568 L 1135 568 L 1135 680 L 896 680 L 896 568 Z Z" stroke-miterlimit="10"/></g><g transform="translate(-62,-198) scale(1,1)"><rect fill="#ffffff" stroke="none" x="816" y="216" width="407" height="320"/></g><g transform="translate(-62,-198) scale(1,1)"><path fill="none" stroke="#000000" d="M 816 216 L 1223 216 L 1223 536 L 816 536 L 816 216 Z Z" stroke-miterlimit="10"/></g><g transform="translate(-62,-198) scale(1,1)"><rect fill="#ffffff" stroke="none" x="72" y="216" width="703" height="464"/></g><g transform="translate(-62,-198) scale(1,1)"><path fill="none" stroke="#000000" d="M 72 216 L 775 216 L 775 680 L 72 680 L 72 216 Z Z" stroke-miterlimit="10"/></g><g transform="translate(-62,-198) scale(1,1)"><path fill="#C0C0C0" stroke="none" d="M 537 327 L 616.263671875 327 Q 626.263671875 327 626.263671875 337 L 626.263671875 357 Q 626.263671875 367 616.263671875 367 L 537 367 Q 527 367 527 357 L 527 337 Q 527 327 537 327 Z" opacity="0.2"/></g><g transform="translate(-62,-198) scale(1,1)"><path fill="#d8e5ff" stroke="none" d="M 530 320 L 609.263671875 320 Q 619.263671875 320 619.263671875 330 L 619.263671875 350 Q 619.263671875 360 609.263671875 360 L 530 360 Q 520 360 520 350 L 520 330 Q 520 320 530 320 Z"/></g><g transform="translate(-62,-198) scale(1,1)"><path fill="none" stroke="#000000" d="M 530 320 L 609.263671875 320 Q 619.263671875 320 619.263671875 330 L 619.263671875 350 Q 619.263671875 360 609.263671875 360 L 530 360 Q 520 360 520 350 L 520 330 Q 520 320 530 320 Z" stroke-miterlimit="10"/></g><g transform="translate(-62,-198) scale(1,1)"><g><path fill="none" stroke="none"/><text fill="#000000" stroke="none" font-family="Arial" font-size="13px" font-style="normal" font-weight="bold" text-decoration="none" x="551.57275390625" y="338">Home</text></g></g><g transform="translate(-62,-198) scale(1,1)"><path fill="#C0C0C0" stroke="none" d="M 537 447 L 616.263671875 447 Q 626.263671875 447 626.263671875 457 L 626.263671875 477 Q 626.263671875 487 616.263671875 487 L 537 487 Q 527 487 527 477 L 527 457 Q 527 447 537 447 Z" opacity="0.2"/></g><g transform="translate(-62,-198) scale(1,1)"><path fill="#d8ffd8" stroke="none" d="M 530 440 L 609.263671875 440 Q 619.263671875 440 619.263671875 450 L 619.263671875 470 Q 619.263671875 480 609.263671875 480 L 530 480 Q 520 480 520 470 L 520 450 Q 520 440 530 440 Z"/></g><g transform="translate(-62,-198) scale(1,1)"><path fill="none" stroke="#000000" d="M 530 440 L 609.263671875 440 Q 619.263671875 440 619.263671875 450 L 619.263671875 470 Q 619.263671875 480 609.263671875 480 L 530 480 Q 520 480 520 470 L 520 450 Q 520 440 530 440 Z" stroke-miterlimit="10"/></g><g transform="translate(-62,-198) scale(1,1)"><g><path fill="none" stroke="none"/><text fill="#000000" stroke="none" font-family="Arial" font-size="13px" font-style="normal" font-weight="bold" text-decoration="none" x="549.405029296875" y="458">Profile</text></g></g><g transform="translate(-62,-198) scale(1,1)"><path fill="#C0C0C0" stroke="none" d="M 457 543 L 536.263671875 543 Q 546.263671875 543 546.263671875 553 L 546.263671875 573 Q 546.263671875 583 536.263671875 583 L 457 583 Q 447 583 447 573 L 447 553 Q 447 543 457 543 Z" opacity="0.2"/></g><g transform="translate(-62,-198) scale(1,1)"><path fill="#d8ffd8" stroke="none" d="M 450 536 L 529.263671875 536 Q 539.263671875 536 539.263671875 546 L 539.263671875 566 Q 539.263671875 576 529.263671875 576 L 450 576 Q 440 576 440 566 L 440 546 Q 440 536 450 536 Z"/></g><g transform="translate(-62,-198) scale(1,1)"><path fill="none" stroke="#000000" d="M 450 536 L 529.263671875 536 Q 539.263671875 536 539.263671875 546 L 539.263671875 566 Q 539.263671875 576 529.263671875 576 L 450 576 Q 440 576 440 566 L 440 546 Q 440 536 450 536 Z" stroke-miterlimit="10"/></g><g transform="translate(-62,-198) scale(1,1)"><g><path fill="none" stroke="none"/><text fill="#000000" stroke="none" font-family="Arial" font-size="13px" font-style="normal" font-weight="bold" text-decoration="none" x="460.73095703125" y="554">Favorites</text></g></g><g transform="translate(-62,-198) scale(1,1)"><path fill="#C0C0C0" stroke="none" d="M 617 543 L 696.263671875 543 Q 706.263671875 543 706.263671875 553 L 706.263671875 573 Q 706.263671875 583 696.263671875 583 L 617 583 Q 607 583 607 573 L 607 553 Q 607 543 617 543 Z" opacity="0.2"/></g><g transform="translate(-62,-198) scale(1,1)"><path fill="#d8ffd8" stroke="none" d="M 610 536 L 689.263671875 536 Q 699.263671875 536 699.263671875 546 L 699.263671875 566 Q 699.263671875 576 689.263671875 576 L 610 576 Q 600 576 600 566 L 600 546 Q 600 536 610 536 Z"/></g><g transform="translate(-62,-198) scale(1,1)"><path fill="none" stroke="#000000" d="M 610 536 L 689.263671875 536 Q 699.263671875 536 699.263671875 546 L 699.263671875 566 Q 699.263671875 576 689.263671875 576 L 610 576 Q 600 576 600 566 L 600 546 Q 600 536 610 536 Z" stroke-miterlimit="10"/></g><g transform="translate(-62,-198) scale(1,1)"><g><path fill="none" stroke="none"/><text fill="#000000" stroke="none" font-family="Arial" font-size="13px" font-style="normal" font-weight="bold" text-decoration="none" x="606.305908203125" y="554">Shopping List</text></g></g><g transform="translate(-62,-198) scale(1,1)"><path fill="#C0C0C0" stroke="none" d="M 337 327 L 416.263671875 327 Q 426.263671875 327 426.263671875 337 L 426.263671875 357 Q 426.263671875 367 416.263671875 367 L 337 367 Q 327 367 327 357 L 327 337 Q 327 327 337 327 Z" opacity="0.2"/></g><g transform="translate(-62,-198) scale(1,1)"><path fill="#d8e5ff" stroke="none" d="M 330 320 L 409.263671875 320 Q 419.263671875 320 419.263671875 330 L 419.263671875 350 Q 419.263671875 360 409.263671875 360 L 330 360 Q 320 360 320 350 L 320 330 Q 320 320 330 320 Z"/></g><g transform="translate(-62,-198) scale(1,1)"><path fill="none" stroke="#000000" d="M 330 320 L 409.263671875 320 Q 419.263671875 320 419.263671875 330 L 419.263671875 350 Q 419.263671875 360 409.263671875 360 L 330 360 Q 320 360 320 350 L 320 330 Q 320 320 330 320 Z" stroke-miterlimit="10"/></g><g transform="translate(-62,-198) scale(1,1)"><g><path fill="none" stroke="none"/><text fill="#000000" stroke="none" font-family="Arial" font-size="13px" font-style="normal" font-weight="bold" text-decoration="none" x="347.951416015625" y="338">Search</text></g></g><g transform="translate(-62,-198) scale(1,1)"><path fill="#C0C0C0" stroke="none" d="M 145 327 L 224.263671875 327 Q 234.263671875 327 234.263671875 337 L 234.263671875 357 Q 234.263671875 367 224.263671875 367 L 145 367 Q 135 367 135 357 L 135 337 Q 135 327 145 327 Z" opacity="0.2"/></g><g transform="translate(-62,-198) scale(1,1)"><path fill="#d8e5ff" stroke="none" d="M 138 320 L 217.263671875 320 Q 227.263671875 320 227.263671875 330 L 227.263671875 350 Q 227.263671875 360 217.263671875 360 L 138 360 Q 128 360 128 350 L 128 330 Q 128 320 138 320 Z"/></g><g transform="translate(-62,-198) scale(1,1)"><path fill="none" stroke="#000000" d="M 138 320 L 217.263671875 320 Q 227.263671875 320 227.263671875 330 L 227.263671875 350 Q 227.263671875 360 217.263671875 360 L 138 360 Q 128 360 128 350 L 128 330 Q 128 320 138 320 Z" stroke-miterlimit="10"/></g><g transform="translate(-62,-198) scale(1,1)"><g><path fill="none" stroke="none"/><text fill="#000000" stroke="none" font-family="Arial" font-size="13px" font-style="normal" font-weight="bold" text-decoration="none" x="132.5" y="338">About Product</text></g></g><g transform="translate(-62,-198) scale(1,1)"><path fill="none" stroke="#000000" d="M 176 320 L 176 256 L 568 256 L 568 320" stroke-miterlimit="10"/></g><g transform="translate(-62,-198) scale(1,1)"><path fill="none" stroke="#000000" d="M 563.790482243984 309.83732514237585 L 568 320 L 572.209517756016 309.83732514237585" stroke-miterlimit="10"/></g><g transform="translate(-62,-198) scale(1,1)"><path fill="none" stroke="#000000" d="M 569 360 L 569 440" stroke-miterlimit="10"/></g><g transform="translate(-62,-198) scale(1,1)"><path fill="none" stroke="#000000" d="M 564.790482243984 429.83732514237585 L 569 440 L 573.209517756016 429.83732514237585" stroke-miterlimit="10"/></g><g transform="translate(-62,-198) scale(1,1)"><path fill="none" stroke="#000000" d="M 560 480 L 560 552 L 539 552" stroke-miterlimit="10"/></g><g transform="translate(-62,-198) scale(1,1)"><path fill="none" stroke="#000000" d="M 549.1626748576241 547.790482243984 L 539 552 L 549.1626748576241 556.209517756016" stroke-miterlimit="10"/></g><g transform="translate(-62,-198) scale(1,1)"><path fill="none" stroke="#000000" d="M 576 480 L 576 552 L 600 552" stroke-miterlimit="10"/></g><g transform="translate(-62,-198) scale(1,1)"><path fill="none" stroke="#000000" d="M 589.8373251423759 556.209517756016 L 600 552 L 589.8373251423758 547.790482243984" stroke-miterlimit="10"/></g><g transform="translate(-62,-198) scale(1,1)"><path fill="none" stroke="#000000" d="M 464 576 L 464 600 L 664 600 L 664 576" stroke-miterlimit="10"/></g><g transform="translate(-62,-198) scale(1,1)"><path fill="none" stroke="#000000" d="M 668.209517756016 586.1626748576241 L 664 576 L 659.790482243984 586.1626748576241" stroke-miterlimit="10"/></g><g transform="translate(-62,-198) scale(1,1)"><path fill="none" stroke="#000000" d="M 664 576 L 664 600 L 464 600 L 464 576" stroke-miterlimit="10"/></g><g transform="translate(-62,-198) scale(1,1)"><path fill="none" stroke="#000000" d="M 468.209517756016 586.1626748576241 L 464 576 L 459.790482243984 586.1626748576241" stroke-miterlimit="10"/></g><g transform="translate(-62,-198) scale(1,1)"><path fill="none" stroke="#000000" d="M 539 552 L 560 552 L 560 480" stroke-miterlimit="10"/></g><g transform="translate(-62,-198) scale(1,1)"><path fill="none" stroke="#000000" d="M 564.209517756016 490.16267485762415 L 560 480 L 555.790482243984 490.16267485762415" stroke-miterlimit="10"/></g><g transform="translate(-62,-198) scale(1,1)"><path fill="none" stroke="#000000" d="M 600 552 L 576 552 L 576 480" stroke-miterlimit="10"/></g><g transform="translate(-62,-198) scale(1,1)"><path fill="none" stroke="#000000" d="M 580.209517756016 490.16267485762415 L 576 480 L 571.790482243984 490.16267485762415" stroke-miterlimit="10"/></g><g transform="translate(-62,-198) scale(1,1)"><path fill="none" stroke="#000000" d="M 568 440 L 568 360" stroke-miterlimit="10"/></g><g transform="translate(-62,-198) scale(1,1)"><path fill="none" stroke="#000000" d="M 572.209517756016 370.16267485762415 L 568 360 L 563.790482243984 370.16267485762415" stroke-miterlimit="10"/></g><g transform="translate(-62,-198) scale(1,1)"><path fill="none" stroke="#000000" d="M 320 340 L 227 340" stroke-miterlimit="10"/></g><g transform="translate(-62,-198) scale(1,1)"><path fill="none" stroke="#000000" d="M 237.16267485762415 335.790482243984 L 227 340 L 237.16267485762415 344.209517756016" stroke-miterlimit="10"/></g><g transform="translate(-62,-198) scale(1,1)"><path fill="none" stroke="#000000" d="M 227 340 L 320 340" stroke-miterlimit="10"/></g><g transform="translate(-62,-198) scale(1,1)"><path fill="none" stroke="#000000" d="M 309.83732514237585 344.209517756016 L 320 340 L 309.83732514237585 335.790482243984" stroke-miterlimit="10"/></g><g transform="translate(-62,-198) scale(1,1)"><path fill="none" stroke="#000000" d="M 419 340 L 520 340" stroke-miterlimit="10"/></g><g transform="translate(-62,-198) scale(1,1)"><path fill="none" stroke="#000000" d="M 509.83732514237585 344.209517756016 L 520 340 L 509.83732514237585 335.790482243984" stroke-miterlimit="10"/></g><g transform="translate(-62,-198) scale(1,1)"><path fill="none" stroke="#000000" d="M 520 340 L 419 340" stroke-miterlimit="10"/></g><g transform="translate(-62,-198) scale(1,1)"><path fill="none" stroke="#000000" d="M 429.16267485762415 335.790482243984 L 419 340 L 429.16267485762415 344.209517756016" stroke-miterlimit="10"/></g><g transform="translate(-62,-198) scale(1,1)"><path fill="none" stroke="#000000" d="M 344 360 L 344 456 L 520 456" stroke-miterlimit="10"/></g><g transform="translate(-62,-198) scale(1,1)"><path fill="none" stroke="#000000" d="M 509.83732514237585 460.209517756016 L 520 456 L 509.83732514237585 451.790482243984" stroke-miterlimit="10"/></g><g transform="translate(-62,-198) scale(1,1)"><path fill="none" stroke="#000000" d="M 368 360 L 368 556 L 440 556" stroke-miterlimit="10"/></g><g transform="translate(-62,-198) scale(1,1)"><path fill="none" stroke="#000000" d="M 429.83732514237585 560.209517756016 L 440 556 L 429.83732514237585 551.790482243984" stroke-miterlimit="10"/></g><g transform="translate(-62,-198) scale(1,1)"><path fill="none" stroke="#000000" d="M 392 360 L 392 640 L 720 640 L 720 552 L 699 552" stroke-miterlimit="10"/></g><g transform="translate(-62,-198) scale(1,1)"><path fill="none" stroke="#000000" d="M 709.1626748576241 547.790482243984 L 699 552 L 709.1626748576241 556.209517756016" stroke-miterlimit="10"/></g><g transform="translate(-62,-198) scale(1,1)"><path fill="none" stroke="#000000" d="M 152 360 L 152 456 L 520 456" stroke-miterlimit="10"/></g><g transform="translate(-62,-198) scale(1,1)"><path fill="none" stroke="#000000" d="M 509.83732514237585 460.209517756016 L 520 456 L 509.83732514237585 451.790482243984" stroke-miterlimit="10"/></g><g transform="translate(-62,-198) scale(1,1)"><path fill="none" stroke="#000000" d="M 176 360 L 176 556 L 440 556" stroke-miterlimit="10"/></g><g transform="translate(-62,-198) scale(1,1)"><path fill="none" stroke="#000000" d="M 429.83732514237585 560.209517756016 L 440 556 L 429.83732514237585 551.790482243984" stroke-miterlimit="10"/></g><g transform="translate(-62,-198) scale(1,1)"><path fill="none" stroke="#000000" d="M 200 360 L 200 640 L 720 640 L 720 552 L 699 552" stroke-miterlimit="10"/></g><g transform="translate(-62,-198) scale(1,1)"><path fill="none" stroke="#000000" d="M 709.1626748576241 547.790482243984 L 699 552 L 709.1626748576241 556.209517756016" stroke-miterlimit="10"/></g><g transform="translate(-62,-198) scale(1,1)"><path fill="none" stroke="#000000" d="M 344 320 L 344 288 L 392 288 L 392 320" stroke-miterlimit="10"/></g><g transform="translate(-62,-198) scale(1,1)"><path fill="none" stroke="#000000" d="M 387.790482243984 309.83732514237585 L 392 320 L 396.209517756016 309.83732514237585" stroke-miterlimit="10"/></g><g transform="translate(-62,-198) scale(1,1)"><path fill="none" stroke="#000000" d="M 440 556 L 176 556 L 176 360" stroke-miterlimit="10"/></g><g transform="translate(-62,-198) scale(1,1)"><path fill="none" stroke="#000000" d="M 180.209517756016 370.16267485762415 L 176 360 L 171.790482243984 370.16267485762415" stroke-miterlimit="10"/></g><g transform="translate(-62,-198) scale(1,1)"><path fill="none" stroke="#000000" d="M 520 456 L 344 456 L 344 360" stroke-miterlimit="10"/></g><g transform="translate(-62,-198) scale(1,1)"><path fill="none" stroke="#000000" d="M 348.209517756016 370.16267485762415 L 344 360 L 339.790482243984 370.16267485762415" stroke-miterlimit="10"/></g><g transform="translate(-62,-198) scale(1,1)"><path fill="none" stroke="#000000" d="M 440 556 L 368 556 L 368 360" stroke-miterlimit="10"/></g><g transform="translate(-62,-198) scale(1,1)"><path fill="none" stroke="#000000" d="M 372.209517756016 370.16267485762415 L 368 360 L 363.790482243984 370.16267485762415" stroke-miterlimit="10"/></g><g transform="translate(-62,-198) scale(1,1)"><path fill="none" stroke="#000000" d="M 699 552 L 720 552 L 720 640 L 392 640 L 392 360" stroke-miterlimit="10"/></g><g transform="translate(-62,-198) scale(1,1)"><path fill="none" stroke="#000000" d="M 396.209517756016 370.16267485762415 L 392 360 L 387.790482243984 370.16267485762415" stroke-miterlimit="10"/></g><g transform="translate(-62,-198) scale(1,1)"><path fill="#C0C0C0" stroke="none" d="M 937 623 L 976 623 Q 986 623 986 633 L 986 653 Q 986 663 976 663 L 937 663 Q 927 663 927 653 L 927 633 Q 927 623 937 623 Z" opacity="0.2"/></g><g transform="translate(-62,-198) scale(1,1)"><path fill="#ffd8d8" stroke="none" d="M 930 616 L 969 616 Q 979 616 979 626 L 979 646 Q 979 656 969 656 L 930 656 Q 920 656 920 646 L 920 626 Q 920 616 930 616 Z"/></g><g transform="translate(-62,-198) scale(1,1)"><path fill="none" stroke="#000000" d="M 930 616 L 969 616 Q 979 616 979 626 L 979 646 Q 979 656 969 656 L 930 656 Q 920 656 920 646 L 920 626 Q 920 616 930 616 Z" stroke-miterlimit="10"/></g><g transform="translate(-62,-198) scale(1,1)"><g><path fill="none" stroke="none"/><text fill="#000000" stroke="none" font-family="Arial" font-size="13px" font-style="normal" font-weight="bold" text-decoration="none" x="933.60546875" y="634">Error</text></g></g><g transform="translate(-62,-198) scale(1,1)"><path fill="#C0C0C0" stroke="none" d="M 1025 623 L 1110.79541015625 623 Q 1120.79541015625 623 1120.79541015625 633 L 1120.79541015625 653 Q 1120.79541015625 663 1110.79541015625 663 L 1025 663 Q 1015 663 1015 653 L 1015 633 Q 1015 623 1025 623 Z" opacity="0.2"/></g><g transform="translate(-62,-198) scale(1,1)"><path fill="#ffd8d8" stroke="none" d="M 1018 616 L 1103.79541015625 616 Q 1113.79541015625 616 1113.79541015625 626 L 1113.79541015625 646 Q 1113.79541015625 656 1103.79541015625 656 L 1018 656 Q 1008 656 1008 646 L 1008 626 Q 1008 616 1018 616 Z"/></g><g transform="translate(-62,-198) scale(1,1)"><path fill="none" stroke="#000000" d="M 1018 616 L 1103.79541015625 616 Q 1113.79541015625 616 1113.79541015625 626 L 1113.79541015625 646 Q 1113.79541015625 656 1103.79541015625 656 L 1018 656 Q 1008 656 1008 646 L 1008 626 Q 1008 616 1018 616 Z" stroke-miterlimit="10"/></g><g transform="translate(-62,-198) scale(1,1)"><g><path fill="none" stroke="none"/><text fill="#000000" stroke="none" font-family="Arial" font-size="13px" font-style="normal" font-weight="bold" text-decoration="none" x="1012.5" y="634">In Development</text></g></g><g transform="translate(-62,-198) scale(1,1)"><path fill="#C0C0C0" stroke="none" d="M 865 407 L 904 407 Q 914 407 914 417 L 914 437 Q 914 447 904 447 L 865 447 Q 855 447 855 437 L 855 417 Q 855 407 865 407 Z" opacity="0.2"/></g><g transform="translate(-62,-198) scale(1,1)"><path fill="#fff5d8" stroke="none" d="M 858 400 L 897 400 Q 907 400 907 410 L 907 430 Q 907 440 897 440 L 858 440 Q 848 440 848 430 L 848 410 Q 848 400 858 400 Z"/></g><g transform="translate(-62,-198) scale(1,1)"><path fill="none" stroke="#000000" d="M 858 400 L 897 400 Q 907 400 907 410 L 907 430 Q 907 440 897 440 L 858 440 Q 848 440 848 430 L 848 410 Q 848 400 858 400 Z" stroke-miterlimit="10"/></g><g transform="translate(-62,-198) scale(1,1)"><g><path fill="none" stroke="none"/><text fill="#000000" stroke="none" font-family="Arial" font-size="13px" font-style="normal" font-weight="bold" text-decoration="none" x="858.00634765625" y="418">Log In</text></g></g><g transform="translate(-62,-198) scale(1,1)"><path fill="#C0C0C0" stroke="none" d="M 977 407 L 1016 407 Q 1026 407 1026 417 L 1026 437 Q 1026 447 1016 447 L 977 447 Q 967 447 967 437 L 967 417 Q 967 407 977 407 Z" opacity="0.2"/></g><g transform="translate(-62,-198) scale(1,1)"><path fill="#fff5d8" stroke="none" d="M 970 400 L 1009 400 Q 1019 400 1019 410 L 1019 430 Q 1019 440 1009 440 L 970 440 Q 960 440 960 430 L 960 410 Q 960 400 970 400 Z"/></g><g transform="translate(-62,-198) scale(1,1)"><path fill="none" stroke="#000000" d="M 970 400 L 1009 400 Q 1019 400 1019 410 L 1019 430 Q 1019 440 1009 440 L 970 440 Q 960 440 960 430 L 960 410 Q 960 400 970 400 Z" stroke-miterlimit="10"/></g><g transform="translate(-62,-198) scale(1,1)"><g><path fill="none" stroke="none"/><text fill="#000000" stroke="none" font-family="Arial" font-size="13px" font-style="normal" font-weight="bold" text-decoration="none" x="964.947265625" y="418">Sign Up</text></g></g><g transform="translate(-62,-198) scale(1,1)"><path fill="#C0C0C0" stroke="none" d="M 932 256.5 C 932 251.2532944 936.2532944 247 941.5 247 C 946.7467056 247 951 251.2532944 951 256.5 C 951 261.7467056 946.7467056 266 941.5 266 C 936.2532944 266 932 261.7467056 932 256.5 Z" opacity="0.2"/></g><g transform="translate(-62,-198) scale(1,1)"><path fill="#000000" stroke="none" d="M 925 249.5 C 925 244.2532944 929.2532944 240 934.5 240 C 939.7467056 240 944 244.2532944 944 249.5 C 944 254.7467056 939.7467056 259 934.5 259 C 929.2532944 259 925 254.7467056 925 249.5 Z"/></g><g transform="translate(-62,-198) scale(1,1)"><path fill="#C0C0C0" stroke="none" d="M 930 344.5 L 941.5 335 L 952 344.5 L 941.5 353 L 930 344.5" opacity="0.2"/></g><g transform="translate(-62,-198) scale(1,1)"><path fill="#ffffff" stroke="none" d="M 923 337 L 934 328 L 945 337 L 934 346 L 923 337"/></g><g transform="translate(-62,-198) scale(1,1)"><path fill="none" stroke="#000000" d="M 923 337 L 934 328 L 945 337 L 934 346 L 923 337 L 923 337" stroke-miterlimit="10"/></g><g transform="translate(-62,-198) scale(1,1)"><path fill="none" stroke="#000000" d="M 936 259 L 936 328" stroke-miterlimit="10"/></g><g transform="translate(-62,-198) scale(1,1)"><path fill="none" stroke="#000000" d="M 931.790482243984 317.83732514237585 L 936 328 L 940.209517756016 317.83732514237585" stroke-miterlimit="10"/></g><g transform="translate(-62,-198) scale(1,1)"><g><path fill="none" stroke="none"/><text fill="#000000" stroke="none" font-family="Arial" font-size="13px" font-style="normal" font-weight="normal" text-decoration="none" x="866.3544921875" y="286">Is User</text><text fill="#000000" stroke="none" font-family="Arial" font-size="13px" font-style="normal" font-weight="normal" text-decoration="none" x="851.891357421875" y="299">Registered?</text></g></g><g transform="translate(-62,-198) scale(1,1)"><path fill="none" stroke="#000000" d="M 907 420 L 960 420" stroke-miterlimit="10"/></g><g transform="translate(-62,-198) scale(1,1)"><path fill="none" stroke="#000000" d="M 949.8373251423759 424.209517756016 L 960 420 L 949.8373251423758 415.790482243984" stroke-miterlimit="10"/></g><g transform="translate(-62,-198) scale(1,1)"><path fill="none" stroke="#000000" d="M 960 420 L 907 420" stroke-miterlimit="10"/></g><g transform="translate(-62,-198) scale(1,1)"><path fill="none" stroke="#000000" d="M 917.1626748576241 415.790482243984 L 907 420 L 917.1626748576241 424.209517756016" stroke-miterlimit="10"/></g><g transform="translate(-62,-198) scale(1,1)"><path fill="#C0C0C0" stroke="none" d="M 1065 399 L 1189 399 Q 1199 399 1199 409 L 1199 442 Q 1199 452 1189 452 L 1065 452 Q 1055 452 1055 442 L 1055 409 Q 1055 399 1065 399 Z" opacity="0.2"/></g><g transform="translate(-62,-198) scale(1,1)"><path fill="#ebffd8" stroke="none" d="M 1058 392 L 1182 392 Q 1192 392 1192 402 L 1192 435 Q 1192 445 1182 445 L 1058 445 Q 1048 445 1048 435 L 1048 402 Q 1048 392 1058 392 Z"/></g><g transform="translate(-62,-198) scale(1,1)"><path fill="none" stroke="#000000" d="M 1058 392 L 1182 392 Q 1192 392 1192 402 L 1192 435 Q 1192 445 1182 445 L 1058 445 Q 1048 445 1048 435 L 1048 402 Q 1048 392 1058 392 Z" stroke-miterlimit="10"/></g><g transform="translate(-62,-198) scale(1,1)"><g><path fill="none" stroke="none"/><text fill="#000000" stroke="none" font-family="Arial" font-size="13px" font-style="normal" font-weight="bold" text-decoration="none" x="1078.825927734375" y="410">Page only for</text><text fill="#000000" stroke="none" font-family="Arial" font-size="13px" font-style="normal" font-weight="bold" text-decoration="none" x="1066.530517578125" y="423">Registered Users</text></g></g><g transform="translate(-62,-198) scale(1,1)"><path fill="none" stroke="#000000" d="M 945 336 L 1120 336 L 1120 392" stroke-miterlimit="10"/></g><g transform="translate(-62,-198) scale(1,1)"><path fill="none" stroke="#000000" d="M 1115.7904822439841 381.83732514237585 L 1120 392 L 1124.2095177560159 381.83732514237585" stroke-miterlimit="10"/></g><g transform="translate(-62,-198) scale(1,1)"><g><path fill="none" stroke="none"/><text fill="#000000" stroke="none" font-family="Arial" font-size="13px" font-style="normal" font-weight="normal" text-decoration="none" x="1015.5" y="330">Yes</text></g></g><g transform="translate(-62,-198) scale(1,1)"><path fill="none" stroke="#000000" d="M 923 336 L 880 336 L 880 400" stroke-miterlimit="10"/></g><g transform="translate(-62,-198) scale(1,1)"><path fill="none" stroke="#000000" d="M 875.790482243984 389.83732514237585 L 880 400 L 884.209517756016 389.83732514237585" stroke-miterlimit="10"/></g><g transform="translate(-62,-198) scale(1,1)"><g><path fill="none" stroke="none"/><text fill="#000000" stroke="none" font-family="Arial" font-size="13px" font-style="normal" font-weight="normal" text-decoration="none" x="854.5" y="371">No</text></g></g><g transform="translate(-62,-198) scale(1,1)"><path fill="#C0C0C0" stroke="none" d="M 930 512.5 L 941.5 503 L 952 512.5 L 941.5 521 L 930 512.5" opacity="0.2"/></g><g transform="translate(-62,-198) scale(1,1)"><path fill="#ffffff" stroke="none" d="M 923 505 L 934 496 L 945 505 L 934 514 L 923 505"/></g><g transform="translate(-62,-198) scale(1,1)"><path fill="none" stroke="#000000" d="M 923 505 L 934 496 L 945 505 L 934 514 L 923 505 L 923 505" stroke-miterlimit="10"/></g><g transform="translate(-62,-198) scale(1,1)"><path fill="none" stroke="#000000" d="M 885 440 L 885 464 L 936 464 L 936 496" stroke-miterlimit="10"/></g><g transform="translate(-62,-198) scale(1,1)"><path fill="none" stroke="#000000" d="M 931.790482243984 485.83732514237585 L 936 496 L 940.209517756016 485.83732514237585" stroke-miterlimit="10"/></g><g transform="translate(-62,-198) scale(1,1)"><path fill="none" stroke="#000000" d="M 992 440 L 992 464 L 936 464 L 936 496" stroke-miterlimit="10"/></g><g transform="translate(-62,-198) scale(1,1)"><path fill="none" stroke="#000000" d="M 931.790482243984 485.83732514237585 L 936 496 L 940.209517756016 485.83732514237585" stroke-miterlimit="10"/></g><g transform="translate(-62,-198) scale(1,1)"><path fill="none" stroke="#000000" d="M 945 504 L 1120 504 L 1120 445" stroke-miterlimit="10"/></g><g transform="translate(-62,-198) scale(1,1)"><path fill="none" stroke="#000000" d="M 1124.2095177560159 455.16267485762415 L 1120 445 L 1115.7904822439841 455.16267485762415" stroke-miterlimit="10"/></g><g transform="translate(-62,-198) scale(1,1)"><g><path fill="none" stroke="none"/><text fill="#000000" stroke="none" font-family="Arial" font-size="20px" font-style="normal" font-weight="normal" text-decoration="none" x="621" y="247">Navigation Map</text></g></g><g transform="translate(-62,-198) scale(1,1)"><g><path fill="none" stroke="none"/><text fill="#000000" stroke="none" font-family="Arial" font-size="20px" font-style="normal" font-weight="normal" text-decoration="none" x="1042.1650390625" y="259">Access to</text><text fill="#000000" stroke="none" font-family="Arial" font-size="20px" font-style="normal" font-weight="normal" text-decoration="none" x="1009.3671875" y="280">Restricted Pages</text></g></g><g transform="translate(-62,-198) scale(1,1)"><g><path fill="none" stroke="none"/><text fill="#000000" stroke="none" font-family="Arial" font-size="20px" font-style="normal" font-weight="normal" text-decoration="none" x="949" y="596">Special Pages</text></g></g></g></svg>