<svg xmlns="http://www.w3.org/2000/svg" xmlns:xlink="http://www.w3.org/1999/xlink" version="1.1" width="604" height="347"><defs/><g><g transform="translate(-422,-102) scale(1,1)"><rect fill="#ffffff" stroke="none" x="432" y="112" width="584" height="327"/></g><g transform="translate(-422,-102) scale(1,1)"><path fill="none" stroke="#000000" d="M 432 112 L 1016 112 L 1016 439 L 432 439 L 432 112 Z Z" stroke-miterlimit="10"/></g><g transform="translate(-422,-102) scale(1,1)"><rect fill="#C0C0C0" stroke="none" x="471" y="151" width="147.20000000000005" height="15" opacity="0.2"/></g><g transform="translate(-422,-102) scale(1,1)"><rect fill="#C0C0C0" stroke="none" x="471" y="165" width="368" height="178" opacity="0.2"/></g><g transform="translate(-422,-102) scale(1,1)"><rect fill="#e2e2e2" stroke="none" x="464" y="159" width="368" height="177"/></g><g transform="translate(-422,-102) scale(1,1)"><path fill="none" stroke="#000000" d="M 464 159 L 832 159 L 832 336 L 464 336 L 464 159 Z Z" stroke-miterlimit="10"/></g><g transform="translate(-422,-102) scale(1,1)"><rect fill="#e2e2e2" stroke="none" x="464" y="144" width="147.20000000000005" height="15"/></g><g transform="translate(-422,-102) scale(1,1)"><path fill="none" stroke="#000000" d="M 464 144 L 611.2 144 L 611.2 159 L 464 159 L 464 144 Z Z" stroke-miterlimit="10"/></g><g transform="translate(-422,-102) scale(1,1)"><rect fill="#e2e2e2" stroke="none" x="464" y="158" width="368" height="178"/></g><g transform="translate(-422,-102) scale(1,1)"><path fill="none" stroke="#000000" d="M 464 158 L 832 158 L 832 336 L 464 336 L 464 158 Z Z" stroke-miterlimit="10"/></g><g transform="translate(-422,-102) scale(1,1)"><g><path fill="none" stroke="none"/><text fill="#000000" stroke="none" font-family="Arial" font-size="13px" font-style="normal" font-weight="bold" text-decoration="none" x="608.273193359375" y="177">project-bragi</text></g></g><g transform="translate(-422,-102) scale(1,1)"><rect fill="#C0C0C0" stroke="none" x="503" y="207" width="44.799999999999955" height="15" opacity="0.2"/></g><g transform="translate(-422,-102) scale(1,1)"><rect fill="#C0C0C0" stroke="none" x="503" y="221" width="112" height="90" opacity="0.2"/></g><g transform="translate(-422,-102) scale(1,1)"><rect fill="#ffffd8" stroke="none" x="496" y="215" width="112" height="89"/></g><g transform="translate(-422,-102) scale(1,1)"><path fill="none" stroke="#000000" d="M 496 215 L 608 215 L 608 304 L 496 304 L 496 215 Z Z" stroke-miterlimit="10"/></g><g transform="translate(-422,-102) scale(1,1)"><rect fill="#ffffd8" stroke="none" x="496" y="200" width="44.799999999999955" height="15"/></g><g transform="translate(-422,-102) scale(1,1)"><path fill="none" stroke="#000000" d="M 496 200 L 540.8 200 L 540.8 215 L 496 215 L 496 200 Z Z" stroke-miterlimit="10"/></g><g transform="translate(-422,-102) scale(1,1)"><rect fill="#ffffd8" stroke="none" x="496" y="214" width="112" height="90"/></g><g transform="translate(-422,-102) scale(1,1)"><path fill="none" stroke="#000000" d="M 496 214 L 608 214 L 608 304 L 496 304 L 496 214 Z Z" stroke-miterlimit="10"/></g><g transform="translate(-422,-102) scale(1,1)"><g><path fill="none" stroke="none"/><text fill="#000000" stroke="none" font-family="Arial" font-size="13px" font-style="normal" font-weight="bold" text-decoration="none" x="535.023193359375" y="233">client</text></g></g><g transform="translate(-422,-102) scale(1,1)"><rect fill="#C0C0C0" stroke="none" x="895" y="207" width="36.541796875000045" height="15" opacity="0.2"/></g><g transform="translate(-422,-102) scale(1,1)"><rect fill="#C0C0C0" stroke="none" x="895" y="221" width="91.3544921875" height="25" opacity="0.2"/></g><g transform="translate(-422,-102) scale(1,1)"><rect fill="#ebffd8" stroke="none" x="888" y="215" width="91.3544921875" height="24"/></g><g transform="translate(-422,-102) scale(1,1)"><path fill="none" stroke="#000000" d="M 888 215 L 979.3544921875 215 L 979.3544921875 239 L 888 239 L 888 215 Z Z" stroke-miterlimit="10"/></g><g transform="translate(-422,-102) scale(1,1)"><rect fill="#ebffd8" stroke="none" x="888" y="200" width="36.541796875000045" height="15"/></g><g transform="translate(-422,-102) scale(1,1)"><path fill="none" stroke="#000000" d="M 888 200 L 924.541796875 200 L 924.541796875 215 L 888 215 L 888 200 Z Z" stroke-miterlimit="10"/></g><g transform="translate(-422,-102) scale(1,1)"><rect fill="#ebffd8" stroke="none" x="888" y="214" width="91.3544921875" height="25"/></g><g transform="translate(-422,-102) scale(1,1)"><path fill="none" stroke="#000000" d="M 888 214 L 979.3544921875 214 L 979.3544921875 239 L 888 239 L 888 214 Z Z" stroke-miterlimit="10"/></g><g transform="translate(-422,-102) scale(1,1)"><g><path fill="none" stroke="none"/><text fill="#000000" stroke="none" font-family="Arial" font-size="13px" font-style="normal" font-weight="bold" text-decoration="none" x="902.99267578125" y="233">MongoDB</text></g></g><g transform="translate(-422,-102) scale(1,1)"><rect fill="#C0C0C0" stroke="none" x="895" y="287" width="36.541796875000045" height="15" opacity="0.2"/></g><g transform="translate(-422,-102) scale(1,1)"><rect fill="#C0C0C0" stroke="none" x="895" y="301" width="91.3544921875" height="25" opacity="0.2"/></g><g transform="translate(-422,-102) scale(1,1)"><rect fill="#ebffd8" stroke="none" x="888" y="295" width="91.3544921875" height="24"/></g><g transform="translate(-422,-102) scale(1,1)"><path fill="none" stroke="#000000" d="M 888 295 L 979.3544921875 295 L 979.3544921875 319 L 888 319 L 888 295 Z Z" stroke-miterlimit="10"/></g><g transform="translate(-422,-102) scale(1,1)"><rect fill="#ebffd8" stroke="none" x="888" y="280" width="36.541796875000045" height="15"/></g><g transform="translate(-422,-102) scale(1,1)"><path fill="none" stroke="#000000" d="M 888 280 L 924.541796875 280 L 924.541796875 295 L 888 295 L 888 280 Z Z" stroke-miterlimit="10"/></g><g transform="translate(-422,-102) scale(1,1)"><rect fill="#ebffd8" stroke="none" x="888" y="294" width="91.3544921875" height="25"/></g><g transform="translate(-422,-102) scale(1,1)"><path fill="none" stroke="#000000" d="M 888 294 L 979.3544921875 294 L 979.3544921875 319 L 888 319 L 888 294 Z Z" stroke-miterlimit="10"/></g><g transform="translate(-422,-102) scale(1,1)"><g><path fill="none" stroke="none"/><text fill="#000000" stroke="none" font-family="Arial" font-size="13px" font-style="normal" font-weight="bold" text-decoration="none" x="892.5" y="313">PostgresSQL</text></g></g><g transform="translate(-422,-102) scale(1,1)"><rect fill="#C0C0C0" stroke="none" x="623" y="383" width="27.5966796875" height="15" opacity="0.2"/></g><g transform="translate(-422,-102) scale(1,1)"><rect fill="#C0C0C0" stroke="none" x="623" y="397" width="68.99169921875" height="25" opacity="0.2"/></g><g transform="translate(-422,-102) scale(1,1)"><rect fill="#ebffd8" stroke="none" x="616" y="391" width="68.99169921875" height="24"/></g><g transform="translate(-422,-102) scale(1,1)"><path fill="none" stroke="#000000" d="M 616 391 L 684.99169921875 391 L 684.99169921875 415 L 616 415 L 616 391 Z Z" stroke-miterlimit="10"/></g><g transform="translate(-422,-102) scale(1,1)"><rect fill="#ebffd8" stroke="none" x="616" y="376" width="27.5966796875" height="15"/></g><g transform="translate(-422,-102) scale(1,1)"><path fill="none" stroke="#000000" d="M 616 376 L 643.5966796875 376 L 643.5966796875 391 L 616 391 L 616 376 Z Z" stroke-miterlimit="10"/></g><g transform="translate(-422,-102) scale(1,1)"><rect fill="#ebffd8" stroke="none" x="616" y="390" width="68.99169921875" height="25"/></g><g transform="translate(-422,-102) scale(1,1)"><path fill="none" stroke="#000000" d="M 616 390 L 684.99169921875 390 L 684.99169921875 415 L 616 415 L 616 390 Z Z" stroke-miterlimit="10"/></g><g transform="translate(-422,-102) scale(1,1)"><g><path fill="none" stroke="none"/><text fill="#000000" stroke="none" font-family="Arial" font-size="13px" font-style="normal" font-weight="bold" text-decoration="none" x="634.236328125" y="409">Clerk</text></g></g><g transform="translate(-422,-102) scale(1,1)"><rect fill="#C0C0C0" stroke="none" x="527" y="255" width="27.5966796875" height="15" opacity="0.2"/></g><g transform="translate(-422,-102) scale(1,1)"><rect fill="#C0C0C0" stroke="none" x="527" y="269" width="68.99169921875" height="25" opacity="0.2"/></g><g transform="translate(-422,-102) scale(1,1)"><rect fill="#ffff91" stroke="none" x="520" y="263" width="68.99169921875" height="24"/></g><g transform="translate(-422,-102) scale(1,1)"><path fill="none" stroke="#000000" d="M 520 263 L 588.99169921875 263 L 588.99169921875 287 L 520 287 L 520 263 Z Z" stroke-miterlimit="10"/></g><g transform="translate(-422,-102) scale(1,1)"><rect fill="#ffff91" stroke="none" x="520" y="248" width="27.5966796875" height="15"/></g><g transform="translate(-422,-102) scale(1,1)"><path fill="none" stroke="#000000" d="M 520 248 L 547.5966796875 248 L 547.5966796875 263 L 520 263 L 520 248 Z Z" stroke-miterlimit="10"/></g><g transform="translate(-422,-102) scale(1,1)"><rect fill="#ffff91" stroke="none" x="520" y="262" width="68.99169921875" height="25"/></g><g transform="translate(-422,-102) scale(1,1)"><path fill="none" stroke="#000000" d="M 520 262 L 588.99169921875 262 L 588.99169921875 287 L 520 287 L 520 262 Z Z" stroke-miterlimit="10"/></g><g transform="translate(-422,-102) scale(1,1)"><g><path fill="none" stroke="none"/><text fill="#000000" stroke="none" font-family="Arial" font-size="13px" font-style="normal" font-weight="bold" text-decoration="none" x="548.719482421875" y="281">ui</text></g></g><g transform="translate(-422,-102) scale(1,1)"><rect fill="#C0C0C0" stroke="none" x="695" y="207" width="44.799999999999955" height="15" opacity="0.2"/></g><g transform="translate(-422,-102) scale(1,1)"><rect fill="#C0C0C0" stroke="none" x="695" y="221" width="112" height="90" opacity="0.2"/></g><g transform="translate(-422,-102) scale(1,1)"><rect fill="#ebd8ff" stroke="none" x="688" y="215" width="112" height="89"/></g><g transform="translate(-422,-102) scale(1,1)"><path fill="none" stroke="#000000" d="M 688 215 L 800 215 L 800 304 L 688 304 L 688 215 Z Z" stroke-miterlimit="10"/></g><g transform="translate(-422,-102) scale(1,1)"><rect fill="#ebd8ff" stroke="none" x="688" y="200" width="44.799999999999955" height="15"/></g><g transform="translate(-422,-102) scale(1,1)"><path fill="none" stroke="#000000" d="M 688 200 L 732.8 200 L 732.8 215 L 688 215 L 688 200 Z Z" stroke-miterlimit="10"/></g><g transform="translate(-422,-102) scale(1,1)"><rect fill="#ebd8ff" stroke="none" x="688" y="214" width="112" height="90"/></g><g transform="translate(-422,-102) scale(1,1)"><path fill="none" stroke="#000000" d="M 688 214 L 800 214 L 800 304 L 688 304 L 688 214 Z Z" stroke-miterlimit="10"/></g><g transform="translate(-422,-102) scale(1,1)"><g><path fill="none" stroke="none"/><text fill="#000000" stroke="none" font-family="Arial" font-size="13px" font-style="normal" font-weight="bold" text-decoration="none" x="724.48095703125" y="231.5">server</text></g></g><g transform="translate(-422,-102) scale(1,1)"><rect fill="#C0C0C0" stroke="none" x="719" y="255" width="27.5966796875" height="15" opacity="0.2"/></g><g transform="translate(-422,-102) scale(1,1)"><rect fill="#C0C0C0" stroke="none" x="719" y="269" width="68.99169921875" height="25" opacity="0.2"/></g><g transform="translate(-422,-102) scale(1,1)"><rect fill="#d6adff" stroke="none" x="712" y="263" width="68.99169921875" height="24"/></g><g transform="translate(-422,-102) scale(1,1)"><path fill="none" stroke="#000000" d="M 712 263 L 780.99169921875 263 L 780.99169921875 287 L 712 287 L 712 263 Z Z" stroke-miterlimit="10"/></g><g transform="translate(-422,-102) scale(1,1)"><rect fill="#d6adff" stroke="none" x="712" y="248" width="27.5966796875" height="15"/></g><g transform="translate(-422,-102) scale(1,1)"><path fill="none" stroke="#000000" d="M 712 248 L 739.5966796875 248 L 739.5966796875 263 L 712 263 L 712 248 Z Z" stroke-miterlimit="10"/></g><g transform="translate(-422,-102) scale(1,1)"><rect fill="#d6adff" stroke="none" x="712" y="262" width="68.99169921875" height="25"/></g><g transform="translate(-422,-102) scale(1,1)"><path fill="none" stroke="#000000" d="M 712 262 L 780.99169921875 262 L 780.99169921875 287 L 712 287 L 712 262 Z Z" stroke-miterlimit="10"/></g><g transform="translate(-422,-102) scale(1,1)"><g><path fill="none" stroke="none"/><text fill="#000000" stroke="none" font-family="Arial" font-size="13px" font-style="normal" font-weight="bold" text-decoration="none" x="727.3544921875" y="281">model</text></g></g><g transform="translate(-422,-102) scale(1,1)"><path fill="none" stroke="#000000" d="M 608 252 L 688 252" stroke-miterlimit="10" stroke-dasharray="3"/></g><g transform="translate(-422,-102) scale(1,1)"><path fill="none" stroke="#000000" d="M 677.8373251423759 256.209517756016 L 688 252 L 677.8373251423758 247.790482243984" stroke-miterlimit="10"/></g><g transform="translate(-422,-102) scale(1,1)"><path fill="none" stroke="#000000" d="M 800 264 L 856 264 L 856 224 L 888 224" stroke-miterlimit="10" stroke-dasharray="3"/></g><g transform="translate(-422,-102) scale(1,1)"><path fill="none" stroke="#000000" d="M 877.8373251423759 228.209517756016 L 888 224 L 877.8373251423758 219.790482243984" stroke-miterlimit="10"/></g><g transform="translate(-422,-102) scale(1,1)"><path fill="none" stroke="#000000" d="M 800 264 L 856 264 L 856 299 L 888 299" stroke-miterlimit="10" stroke-dasharray="3"/></g><g transform="translate(-422,-102) scale(1,1)"><path fill="none" stroke="#000000" d="M 877.8373251423759 303.209517756016 L 888 299 L 877.8373251423758 294.790482243984" stroke-miterlimit="10"/></g><g transform="translate(-422,-102) scale(1,1)"><path fill="none" stroke="#000000" d="M 552 304 L 552 403 L 616 403" stroke-miterlimit="10" stroke-dasharray="3"/></g><g transform="translate(-422,-102) scale(1,1)"><path fill="none" stroke="#000000" d="M 605.8373251423759 407.209517756016 L 616 403 L 605.8373251423758 398.790482243984" stroke-miterlimit="10"/></g><g transform="translate(-422,-102) scale(1,1)"><path fill="none" stroke="#000000" d="M 752 304 L 752 403 L 685 403" stroke-miterlimit="10" stroke-dasharray="3"/></g><g transform="translate(-422,-102) scale(1,1)"><path fill="none" stroke="#000000" d="M 695.1626748576241 398.790482243984 L 685 403 L 695.1626748576241 407.209517756016" stroke-miterlimit="10"/></g></g></svg>