<?xml version="1.0" encoding="UTF-8"?>
<svg id="Capa_1" data-name="Capa 1" xmlns="http://www.w3.org/2000/svg" viewBox="0 0 90.54 101.76">
  <defs>
    <style>
      .cls-1 {
        fill: #fff;
        stroke-width: 0px;
      }

      .cls-2 {
        fill: none;
        stroke: #fff;
        stroke-miterlimit: 10;
        stroke-width: 7.25px;
      }
    </style>
  </defs>
  <path class="cls-1" d="m50.71,75.38c.46-2.39-.38-4.85-2.22-6.44-4.61-3.99-12.5-10.76-16.52-14.16l-5.15-4.38c-1.95-1.67-3.71-3.33-5.29-4.98-1.58-1.65-2.9-3.22-3.97-4.73-1.07-1.51-1.89-2.88-2.47-4.11s-1.03-2.6-1.36-4.11c-.32-1.51-.49-3.05-.49-4.63,0-3.99,1.09-7.72,3.27-11.2,2.18-3.48,5.46-6.26,9.85-8.35,4.38-2.09,10.17-3.13,17.36-3.13,5.15,0,11.48.7,19,2.09.09,2.99.42,6.65.97,11-7.1-2.51-13.55-3.76-19.35-3.76-3.99,0-7.33.66-10.02,1.97-2.69,1.32-4.73,3-6.12,5.05-1.39,2.05-2.09,4.17-2.09,6.33,0,1.3.19,2.56.56,3.79.37,1.23.93,2.4,1.67,3.51,1.07,1.62,2.39,3.26,3.97,4.91,1.58,1.65,3.76,3.65,6.54,6.02.7.56,3.35,2.74,7.97,6.54,3.86,3.18,11.63,10.32,15.32,13.81,1.03.98,1.5,2.4,1.24,3.8l-5.21,28.7c-.28,1.55-1.63,2.68-3.21,2.69l-43.2.15c-1.66,0-3.15-1.03-3.72-2.59L.28,77.86c-.45-1.24-.35-2.62.28-3.78l14.69-26.91,8.96,8.45-9.18,16.87c-1.17,2.3-1.41,4.96-.67,7.42l2.3,7.63c.73,2.43,2.97,4.09,5.51,4.07l20.68-.1c2.75-.01,5.11-1.97,5.63-4.67l2.22-11.47Z"/>
  <circle class="cls-2" cx="74.43" cy="16.11" r="12.49"/>
</svg>