<?xml version="1.0" encoding="utf-8"?>
<!-- Generator: Adobe Illustrator 27.9.4, SVG Export Plug-In . SVG Version: 9.03 Build 54784)  -->
<svg version="1.1" id="Capa_1" xmlns="http://www.w3.org/2000/svg" xmlns:xlink="http://www.w3.org/1999/xlink" x="0px" y="0px"
	 viewBox="0 0 595.28 841.89" style="enable-background:new 0 0 595.28 841.89;" xml:space="preserve">
<style type="text/css">
	.st0{fill:#FFFFFF;}
	.st1{fill:none;stroke:#FFFFFF;stroke-width:3;stroke-miterlimit:10;}
</style>
<g>
	<g>
		<path class="st0" d="M303.2,430.34c0.19-0.99-0.16-2.01-0.92-2.67c-1.91-1.65-5.18-4.46-6.84-5.86l-2.13-1.82
			c-0.81-0.69-1.54-1.38-2.19-2.06c-0.65-0.68-1.2-1.34-1.64-1.96c-0.44-0.62-0.78-1.19-1.02-1.7s-0.43-1.08-0.56-1.7
			s-0.2-1.26-0.2-1.92c0-1.65,0.45-3.2,1.35-4.64c0.9-1.44,2.26-2.59,4.08-3.46c1.82-0.86,4.21-1.3,7.19-1.3
			c2.13,0,4.75,0.29,7.87,0.86c0.04,1.24,0.17,2.76,0.4,4.55c-2.94-1.04-5.61-1.56-8.01-1.56c-1.65,0-3.04,0.27-4.15,0.82
			c-1.11,0.55-1.96,1.24-2.54,2.09c-0.58,0.85-0.86,1.72-0.86,2.62c0,0.54,0.08,1.06,0.23,1.57s0.38,0.99,0.69,1.46
			c0.44,0.67,0.99,1.35,1.64,2.03c0.65,0.68,1.56,1.51,2.71,2.49c0.29,0.23,1.39,1.13,3.3,2.71c1.6,1.32,4.82,4.27,6.34,5.72
			c0.43,0.4,0.62,0.99,0.51,1.57l-2.16,11.88c-0.12,0.64-0.67,1.11-1.33,1.11l-17.89,0.06c-0.69,0-1.3-0.43-1.54-1.07l-3.22-8.82
			c-0.19-0.51-0.14-1.08,0.12-1.56l6.08-11.14l3.71,3.5l-3.8,6.99c-0.48,0.95-0.58,2.05-0.28,3.07l0.95,3.16
			c0.3,1.01,1.23,1.69,2.28,1.69l8.56-0.04c1.14-0.01,2.12-0.81,2.33-1.93L303.2,430.34z"/>
		<circle class="st1" cx="313.02" cy="405.8" r="5.17"/>
	</g>
</g>
</svg>
