<svg xmlns="http://www.w3.org/2000/svg" xmlns:xlink="http://www.w3.org/1999/xlink" version="1.1" width="420" height="276"><defs/><g><g transform="translate(-390,-150) scale(1,1)"><rect fill="#ffffff" stroke="none" x="400" y="160" width="400" height="256"/></g><g transform="translate(-390,-150) scale(1,1)"><path fill="none" stroke="#000000" d="M 400 160 L 800 160 L 800 416 L 400 416 L 400 160 Z Z" stroke-miterlimit="10"/></g><g transform="translate(-390,-150) scale(1,1)"><rect fill="#C0C0C0" stroke="none" x="495" y="255" width="80" height="32" opacity="0.2"/></g><g transform="translate(-390,-150) scale(1,1)"><rect fill="#ffffd8" stroke="none" x="488" y="248" width="80" height="32"/></g><g transform="translate(-390,-150) scale(1,1)"><path fill="none" stroke="#000000" d="M 488 248 L 568 248 L 568 280 L 488 280 L 488 248 Z Z" stroke-miterlimit="10"/></g><g transform="translate(-390,-150) scale(1,1)"><g><path fill="none" stroke="none"/><text fill="#000000" stroke="none" font-family="Arial" font-size="13px" font-style="normal" font-weight="bold" text-decoration="none" x="503.444091796875" y="264">Product</text></g></g><g transform="translate(-390,-150) scale(1,1)"><rect fill="#C0C0C0" stroke="none" x="671" y="255" width="80" height="32" opacity="0.2"/></g><g transform="translate(-390,-150) scale(1,1)"><rect fill="#d8e5ff" stroke="none" x="664" y="248" width="80" height="32"/></g><g transform="translate(-390,-150) scale(1,1)"><path fill="none" stroke="#000000" d="M 664 248 L 744 248 L 744 280 L 664 280 L 664 248 Z Z" stroke-miterlimit="10"/></g><g transform="translate(-390,-150) scale(1,1)"><g><path fill="none" stroke="none"/><text fill="#000000" stroke="none" font-family="Arial" font-size="13px" font-style="normal" font-weight="bold" text-decoration="none" x="689.54638671875" y="264">User</text></g></g><g transform="translate(-390,-150) scale(1,1)"><path fill="none" stroke="#000000" d="M 528 248 L 528 208 L 704 208 L 704 248" stroke-miterlimit="10"/></g><g transform="translate(-390,-150) scale(1,1)"><path fill="none" stroke="#000000" d="M 704 234 L 697 248" stroke-miterlimit="10"/></g><g transform="translate(-390,-150) scale(1,1)"><path fill="none" stroke="#000000" d="M 704 234 L 711 248" stroke-miterlimit="10"/></g><g transform="translate(-390,-150) scale(1,1)"><path fill="#FFFFFF" stroke="none" d="M 697 226 C 697 222.1340064 700.1340064 219 704 219 C 707.8659936 219 711 222.1340064 711 226 C 711 229.8659936 707.8659936 233 704 233 C 700.1340064 233 697 229.8659936 697 226 Z"/></g><g transform="translate(-390,-150) scale(1,1)"><path fill="none" stroke="#000000" d="M 697 226 C 697 222.1340064 700.1340064 219 704 219 C 707.8659936 219 711 222.1340064 711 226 C 711 229.8659936 707.8659936 233 704 233 C 700.1340064 233 697 229.8659936 697 226 Z" stroke-miterlimit="10"/></g><g transform="translate(-390,-150) scale(1,1)"><path fill="none" stroke="#000000" d="M 528 234 L 521 248" stroke-miterlimit="10"/></g><g transform="translate(-390,-150) scale(1,1)"><path fill="none" stroke="#000000" d="M 528 234 L 535 248" stroke-miterlimit="10"/></g><g transform="translate(-390,-150) scale(1,1)"><path fill="#FFFFFF" stroke="none" d="M 521 226 C 521 222.1340064 524.1340064 219 528 219 C 531.8659936 219 535 222.1340064 535 226 C 535 229.8659936 531.8659936 233 528 233 C 524.1340064 233 521 229.8659936 521 226 Z"/></g><g transform="translate(-390,-150) scale(1,1)"><path fill="none" stroke="#000000" d="M 521 226 C 521 222.1340064 524.1340064 219 528 219 C 531.8659936 219 535 222.1340064 535 226 C 535 229.8659936 531.8659936 233 528 233 C 524.1340064 233 521 229.8659936 521 226 Z" stroke-miterlimit="10"/></g><g transform="translate(-390,-150) scale(1,1)"><g><path fill="none" stroke="none"/><text fill="#000000" stroke="none" font-family="Arial" font-size="13px" font-style="normal" font-weight="normal" text-decoration="none" x="572.5" y="198">Shoppping List</text></g></g><g transform="translate(-390,-150) scale(1,1)"><g><path fill="none" stroke="none"/><text fill="#000000" stroke="none" font-family="Arial" font-size="13px" font-style="normal" font-weight="normal" text-decoration="none" x="512.5" y="222"/></g></g><g transform="translate(-390,-150) scale(1,1)"><g><path fill="none" stroke="none"/><text fill="#000000" stroke="none" font-family="Arial" font-size="13px" font-style="normal" font-weight="normal" text-decoration="none" x="718.5" y="222"/></g></g><g transform="translate(-390,-150) scale(1,1)"><path fill="none" stroke="#000000" d="M 704 280 L 704 320 L 528 320 L 528 280" stroke-miterlimit="10"/></g><g transform="translate(-390,-150) scale(1,1)"><path fill="none" stroke="#000000" d="M 528 294 L 535 280" stroke-miterlimit="10"/></g><g transform="translate(-390,-150) scale(1,1)"><path fill="none" stroke="#000000" d="M 528 294 L 521 280" stroke-miterlimit="10"/></g><g transform="translate(-390,-150) scale(1,1)"><path fill="#FFFFFF" stroke="none" d="M 521 302 C 521 298.1340064 524.1340064 295 528 295 C 531.8659936 295 535 298.1340064 535 302 C 535 305.8659936 531.8659936 309 528 309 C 524.1340064 309 521 305.8659936 521 302 Z"/></g><g transform="translate(-390,-150) scale(1,1)"><path fill="none" stroke="#000000" d="M 521 302 C 521 298.1340064 524.1340064 295 528 295 C 531.8659936 295 535 298.1340064 535 302 C 535 305.8659936 531.8659936 309 528 309 C 524.1340064 309 521 305.8659936 521 302 Z" stroke-miterlimit="10"/></g><g transform="translate(-390,-150) scale(1,1)"><path fill="none" stroke="#000000" d="M 711 287 L 697 287" stroke-miterlimit="10"/></g><g transform="translate(-390,-150) scale(1,1)"><path fill="none" stroke="#000000" d="M 711 294 L 697 294" stroke-miterlimit="10"/></g><g transform="translate(-390,-150) scale(1,1)"><g><path fill="none" stroke="none"/><text fill="#000000" stroke="none" font-family="Arial" font-size="13px" font-style="normal" font-weight="normal" text-decoration="none" x="590.5" y="314">Favorites</text></g></g><g transform="translate(-390,-150) scale(1,1)"><g><path fill="none" stroke="none"/><text fill="#000000" stroke="none" font-family="Arial" font-size="13px" font-style="normal" font-weight="normal" text-decoration="none" x="512.5" y="305"/></g></g><g transform="translate(-390,-150) scale(1,1)"><rect fill="#C0C0C0" stroke="none" x="495" y="359" width="80" height="32" opacity="0.2"/></g><g transform="translate(-390,-150) scale(1,1)"><rect fill="#ffd8d8" stroke="none" x="488" y="352" width="80" height="32"/></g><g transform="translate(-390,-150) scale(1,1)"><path fill="none" stroke="#000000" d="M 488 352 L 568 352 L 568 384 L 488 384 L 488 352 Z Z" stroke-miterlimit="10"/></g><g transform="translate(-390,-150) scale(1,1)"><g><path fill="none" stroke="none"/><text fill="#000000" stroke="none" font-family="Arial" font-size="13px" font-style="normal" font-weight="bold" text-decoration="none" x="504.52001953125" y="368">Novelty</text></g></g><g transform="translate(-390,-150) scale(1,1)"><rect fill="#C0C0C0" stroke="none" x="671" y="359" width="80" height="32" opacity="0.2"/></g><g transform="translate(-390,-150) scale(1,1)"><rect fill="#ebffd8" stroke="none" x="664" y="352" width="80" height="32"/></g><g transform="translate(-390,-150) scale(1,1)"><path fill="none" stroke="#000000" d="M 664 352 L 744 352 L 744 384 L 664 384 L 664 352 Z Z" stroke-miterlimit="10"/></g><g transform="translate(-390,-150) scale(1,1)"><g><path fill="none" stroke="none"/><text fill="#000000" stroke="none" font-family="Arial" font-size="13px" font-style="normal" font-weight="bold" text-decoration="none" x="679.799560546875" y="368">Bargain</text></g></g><g transform="translate(-390,-150) scale(1,1)"><path fill="none" stroke="#000000" d="M 488 368 L 448 368 L 448 264 L 488 264" stroke-miterlimit="10"/></g><g transform="translate(-390,-150) scale(1,1)"><path fill="none" stroke="#000000" d="M 474 264 L 488 271" stroke-miterlimit="10"/></g><g transform="translate(-390,-150) scale(1,1)"><path fill="none" stroke="#000000" d="M 474 264 L 488 257" stroke-miterlimit="10"/></g><g transform="translate(-390,-150) scale(1,1)"><path fill="#FFFFFF" stroke="none" d="M 459 264 C 459 260.1340064 462.1340064 257 466 257 C 469.8659936 257 473 260.1340064 473 264 C 473 267.8659936 469.8659936 271 466 271 C 462.1340064 271 459 267.8659936 459 264 Z"/></g><g transform="translate(-390,-150) scale(1,1)"><path fill="none" stroke="#000000" d="M 459 264 C 459 260.1340064 462.1340064 257 466 257 C 469.8659936 257 473 260.1340064 473 264 C 473 267.8659936 469.8659936 271 466 271 C 462.1340064 271 459 267.8659936 459 264 Z" stroke-miterlimit="10"/></g><g transform="translate(-390,-150) scale(1,1)"><path fill="none" stroke="#000000" d="M 481 375 L 481 361" stroke-miterlimit="10"/></g><g transform="translate(-390,-150) scale(1,1)"><path fill="none" stroke="#000000" d="M 474 375 L 474 361" stroke-miterlimit="10"/></g><g transform="translate(-390,-150) scale(1,1)"><g><path fill="none" stroke="none"/><text fill="#000000" stroke="none" font-family="Arial" font-size="13px" font-style="normal" font-weight="normal" text-decoration="none" x="453.5" y="318">Concern</text></g></g><g transform="translate(-390,-150) scale(1,1)"><g><path fill="none" stroke="none"/><text fill="#000000" stroke="none" font-family="Arial" font-size="13px" font-style="normal" font-weight="normal" text-decoration="none" x="461.5" y="382"/></g></g><g transform="translate(-390,-150) scale(1,1)"><g><path fill="none" stroke="none"/><text fill="#000000" stroke="none" font-family="Arial" font-size="13px" font-style="normal" font-weight="normal" text-decoration="none" x="461.5" y="249"/></g></g></g></svg>