<svg xmlns="http://www.w3.org/2000/svg" xmlns:xlink="http://www.w3.org/1999/xlink" version="1.1" width="1211" height="996"><defs/><g><g transform="translate(-62,-214) scale(1,1)"><rect fill="#ffffff" stroke="none" x="992" y="712" width="271" height="487"/></g><g transform="translate(-62,-214) scale(1,1)"><path fill="none" stroke="#000000" d="M 992 712 L 1263 712 L 1263 1199 L 992 1199 L 992 712 Z Z" stroke-miterlimit="10"/></g><g transform="translate(-62,-214) scale(1,1)"><rect fill="#ffffff" stroke="none" x="72" y="712" width="888" height="488"/></g><g transform="translate(-62,-214) scale(1,1)"><path fill="none" stroke="#000000" d="M 72 712 L 960 712 L 960 1200 L 72 1200 L 72 712 Z Z" stroke-miterlimit="10"/></g><g transform="translate(-62,-214) scale(1,1)"><rect fill="#ffffff" stroke="none" x="936" y="576" width="248" height="112"/></g><g transform="translate(-62,-214) scale(1,1)"><path fill="none" stroke="#000000" d="M 936 576 L 1184 576 L 1184 688 L 936 688 L 936 576 Z Z" stroke-miterlimit="10"/></g><g transform="translate(-62,-214) scale(1,1)"><rect fill="#ffffff" stroke="none" x="856" y="232" width="407" height="320"/></g><g transform="translate(-62,-214) scale(1,1)"><path fill="none" stroke="#000000" d="M 856 232 L 1263 232 L 1263 552 L 856 552 L 856 232 Z Z" stroke-miterlimit="10"/></g><g transform="translate(-62,-214) scale(1,1)"><rect fill="#ffffff" stroke="none" x="72" y="232" width="752" height="456"/></g><g transform="translate(-62,-214) scale(1,1)"><path fill="none" stroke="#000000" d="M 72 232 L 824 232 L 824 688 L 72 688 L 72 232 Z Z" stroke-miterlimit="10"/></g><g transform="translate(-62,-214) scale(1,1)"><path fill="#C0C0C0" stroke="none" d="M 537 351 L 616.263671875 351 Q 626.263671875 351 626.263671875 361 L 626.263671875 381 Q 626.263671875 391 616.263671875 391 L 537 391 Q 527 391 527 381 L 527 361 Q 527 351 537 351 Z" opacity="0.2"/></g><g transform="translate(-62,-214) scale(1,1)"><path fill="#d8e5ff" stroke="none" d="M 530 344 L 609.263671875 344 Q 619.263671875 344 619.263671875 354 L 619.263671875 374 Q 619.263671875 384 609.263671875 384 L 530 384 Q 520 384 520 374 L 520 354 Q 520 344 530 344 Z"/></g><g transform="translate(-62,-214) scale(1,1)"><path fill="none" stroke="#000000" d="M 530 344 L 609.263671875 344 Q 619.263671875 344 619.263671875 354 L 619.263671875 374 Q 619.263671875 384 609.263671875 384 L 530 384 Q 520 384 520 374 L 520 354 Q 520 344 530 344 Z" stroke-miterlimit="10"/></g><g transform="translate(-62,-214) scale(1,1)"><g><path fill="none" stroke="none"/><text fill="#000000" stroke="none" font-family="Arial" font-size="13px" font-style="normal" font-weight="bold" text-decoration="none" x="551.57275390625" y="362">Home</text></g></g><g transform="translate(-62,-214) scale(1,1)"><path fill="#C0C0C0" stroke="none" d="M 537 471 L 616.263671875 471 Q 626.263671875 471 626.263671875 481 L 626.263671875 501 Q 626.263671875 511 616.263671875 511 L 537 511 Q 527 511 527 501 L 527 481 Q 527 471 537 471 Z" opacity="0.2"/></g><g transform="translate(-62,-214) scale(1,1)"><path fill="#ebffd8" stroke="none" d="M 530 464 L 609.263671875 464 Q 619.263671875 464 619.263671875 474 L 619.263671875 494 Q 619.263671875 504 609.263671875 504 L 530 504 Q 520 504 520 494 L 520 474 Q 520 464 530 464 Z"/></g><g transform="translate(-62,-214) scale(1,1)"><path fill="none" stroke="#000000" d="M 530 464 L 609.263671875 464 Q 619.263671875 464 619.263671875 474 L 619.263671875 494 Q 619.263671875 504 609.263671875 504 L 530 504 Q 520 504 520 494 L 520 474 Q 520 464 530 464 Z" stroke-miterlimit="10"/></g><g transform="translate(-62,-214) scale(1,1)"><g><path fill="none" stroke="none"/><text fill="#000000" stroke="none" font-family="Arial" font-size="13px" font-style="normal" font-weight="bold" text-decoration="none" x="549.405029296875" y="482">Profile</text></g></g><g transform="translate(-62,-214) scale(1,1)"><path fill="#C0C0C0" stroke="none" d="M 457 567 L 536.263671875 567 Q 546.263671875 567 546.263671875 577 L 546.263671875 597 Q 546.263671875 607 536.263671875 607 L 457 607 Q 447 607 447 597 L 447 577 Q 447 567 457 567 Z" opacity="0.2"/></g><g transform="translate(-62,-214) scale(1,1)"><path fill="#ebffd8" stroke="none" d="M 450 560 L 529.263671875 560 Q 539.263671875 560 539.263671875 570 L 539.263671875 590 Q 539.263671875 600 529.263671875 600 L 450 600 Q 440 600 440 590 L 440 570 Q 440 560 450 560 Z"/></g><g transform="translate(-62,-214) scale(1,1)"><path fill="none" stroke="#000000" d="M 450 560 L 529.263671875 560 Q 539.263671875 560 539.263671875 570 L 539.263671875 590 Q 539.263671875 600 529.263671875 600 L 450 600 Q 440 600 440 590 L 440 570 Q 440 560 450 560 Z" stroke-miterlimit="10"/></g><g transform="translate(-62,-214) scale(1,1)"><g><path fill="none" stroke="none"/><text fill="#000000" stroke="none" font-family="Arial" font-size="13px" font-style="normal" font-weight="bold" text-decoration="none" x="460.73095703125" y="578">Favorites</text></g></g><g transform="translate(-62,-214) scale(1,1)"><path fill="#C0C0C0" stroke="none" d="M 617 567 L 696.263671875 567 Q 706.263671875 567 706.263671875 577 L 706.263671875 597 Q 706.263671875 607 696.263671875 607 L 617 607 Q 607 607 607 597 L 607 577 Q 607 567 617 567 Z" opacity="0.2"/></g><g transform="translate(-62,-214) scale(1,1)"><path fill="#ebffd8" stroke="none" d="M 610 560 L 689.263671875 560 Q 699.263671875 560 699.263671875 570 L 699.263671875 590 Q 699.263671875 600 689.263671875 600 L 610 600 Q 600 600 600 590 L 600 570 Q 600 560 610 560 Z"/></g><g transform="translate(-62,-214) scale(1,1)"><path fill="none" stroke="#000000" d="M 610 560 L 689.263671875 560 Q 699.263671875 560 699.263671875 570 L 699.263671875 590 Q 699.263671875 600 689.263671875 600 L 610 600 Q 600 600 600 590 L 600 570 Q 600 560 610 560 Z" stroke-miterlimit="10"/></g><g transform="translate(-62,-214) scale(1,1)"><g><path fill="none" stroke="none"/><text fill="#000000" stroke="none" font-family="Arial" font-size="13px" font-style="normal" font-weight="bold" text-decoration="none" x="606.305908203125" y="578">Shopping List</text></g></g><g transform="translate(-62,-214) scale(1,1)"><path fill="#C0C0C0" stroke="none" d="M 337 351 L 416.263671875 351 Q 426.263671875 351 426.263671875 361 L 426.263671875 381 Q 426.263671875 391 416.263671875 391 L 337 391 Q 327 391 327 381 L 327 361 Q 327 351 337 351 Z" opacity="0.2"/></g><g transform="translate(-62,-214) scale(1,1)"><path fill="#d8e5ff" stroke="none" d="M 330 344 L 409.263671875 344 Q 419.263671875 344 419.263671875 354 L 419.263671875 374 Q 419.263671875 384 409.263671875 384 L 330 384 Q 320 384 320 374 L 320 354 Q 320 344 330 344 Z"/></g><g transform="translate(-62,-214) scale(1,1)"><path fill="none" stroke="#000000" d="M 330 344 L 409.263671875 344 Q 419.263671875 344 419.263671875 354 L 419.263671875 374 Q 419.263671875 384 409.263671875 384 L 330 384 Q 320 384 320 374 L 320 354 Q 320 344 330 344 Z" stroke-miterlimit="10"/></g><g transform="translate(-62,-214) scale(1,1)"><g><path fill="none" stroke="none"/><text fill="#000000" stroke="none" font-family="Arial" font-size="13px" font-style="normal" font-weight="bold" text-decoration="none" x="347.951416015625" y="362">Search</text></g></g><g transform="translate(-62,-214) scale(1,1)"><path fill="#C0C0C0" stroke="none" d="M 145 351 L 224.263671875 351 Q 234.263671875 351 234.263671875 361 L 234.263671875 381 Q 234.263671875 391 224.263671875 391 L 145 391 Q 135 391 135 381 L 135 361 Q 135 351 145 351 Z" opacity="0.2"/></g><g transform="translate(-62,-214) scale(1,1)"><path fill="#d8e5ff" stroke="none" d="M 138 344 L 217.263671875 344 Q 227.263671875 344 227.263671875 354 L 227.263671875 374 Q 227.263671875 384 217.263671875 384 L 138 384 Q 128 384 128 374 L 128 354 Q 128 344 138 344 Z"/></g><g transform="translate(-62,-214) scale(1,1)"><path fill="none" stroke="#000000" d="M 138 344 L 217.263671875 344 Q 227.263671875 344 227.263671875 354 L 227.263671875 374 Q 227.263671875 384 217.263671875 384 L 138 384 Q 128 384 128 374 L 128 354 Q 128 344 138 344 Z" stroke-miterlimit="10"/></g><g transform="translate(-62,-214) scale(1,1)"><g><path fill="none" stroke="none"/><text fill="#000000" stroke="none" font-family="Arial" font-size="13px" font-style="normal" font-weight="bold" text-decoration="none" x="132.5" y="362">About Product</text></g></g><g transform="translate(-62,-214) scale(1,1)"><path fill="none" stroke="#000000" d="M 192 344 L 192 296 L 568 296 L 568 344" stroke-miterlimit="10"/></g><g transform="translate(-62,-214) scale(1,1)"><path fill="none" stroke="#000000" d="M 563.790482243984 333.83732514237585 L 568 344 L 572.209517756016 333.83732514237585" stroke-miterlimit="10"/></g><g transform="translate(-62,-214) scale(1,1)"><path fill="none" stroke="#000000" d="M 569 384 L 569 464" stroke-miterlimit="10"/></g><g transform="translate(-62,-214) scale(1,1)"><path fill="none" stroke="#000000" d="M 564.790482243984 453.83732514237585 L 569 464 L 573.209517756016 453.83732514237585" stroke-miterlimit="10"/></g><g transform="translate(-62,-214) scale(1,1)"><path fill="none" stroke="#000000" d="M 560 504 L 560 576 L 539 576" stroke-miterlimit="10"/></g><g transform="translate(-62,-214) scale(1,1)"><path fill="none" stroke="#000000" d="M 549.1626748576241 571.790482243984 L 539 576 L 549.1626748576241 580.209517756016" stroke-miterlimit="10"/></g><g transform="translate(-62,-214) scale(1,1)"><path fill="none" stroke="#000000" d="M 576 504 L 576 576 L 600 576" stroke-miterlimit="10"/></g><g transform="translate(-62,-214) scale(1,1)"><path fill="none" stroke="#000000" d="M 589.8373251423759 580.209517756016 L 600 576 L 589.8373251423758 571.790482243984" stroke-miterlimit="10"/></g><g transform="translate(-62,-214) scale(1,1)"><path fill="none" stroke="#000000" d="M 464 600 L 464 624 L 664 624 L 664 600" stroke-miterlimit="10"/></g><g transform="translate(-62,-214) scale(1,1)"><path fill="none" stroke="#000000" d="M 668.209517756016 610.1626748576241 L 664 600 L 659.790482243984 610.1626748576241" stroke-miterlimit="10"/></g><g transform="translate(-62,-214) scale(1,1)"><path fill="none" stroke="#000000" d="M 664 600 L 664 624 L 464 624 L 464 600" stroke-miterlimit="10"/></g><g transform="translate(-62,-214) scale(1,1)"><path fill="none" stroke="#000000" d="M 468.209517756016 610.1626748576241 L 464 600 L 459.790482243984 610.1626748576241" stroke-miterlimit="10"/></g><g transform="translate(-62,-214) scale(1,1)"><path fill="none" stroke="#000000" d="M 539 576 L 560 576 L 560 504" stroke-miterlimit="10"/></g><g transform="translate(-62,-214) scale(1,1)"><path fill="none" stroke="#000000" d="M 564.209517756016 514.1626748576241 L 560 504 L 555.790482243984 514.1626748576241" stroke-miterlimit="10"/></g><g transform="translate(-62,-214) scale(1,1)"><path fill="none" stroke="#000000" d="M 600 576 L 576 576 L 576 504" stroke-miterlimit="10"/></g><g transform="translate(-62,-214) scale(1,1)"><path fill="none" stroke="#000000" d="M 580.209517756016 514.1626748576241 L 576 504 L 571.790482243984 514.1626748576241" stroke-miterlimit="10"/></g><g transform="translate(-62,-214) scale(1,1)"><path fill="none" stroke="#000000" d="M 568 464 L 568 384" stroke-miterlimit="10"/></g><g transform="translate(-62,-214) scale(1,1)"><path fill="none" stroke="#000000" d="M 572.209517756016 394.16267485762415 L 568 384 L 563.790482243984 394.16267485762415" stroke-miterlimit="10"/></g><g transform="translate(-62,-214) scale(1,1)"><path fill="none" stroke="#000000" d="M 320 364 L 227 364" stroke-miterlimit="10"/></g><g transform="translate(-62,-214) scale(1,1)"><path fill="none" stroke="#000000" d="M 237.16267485762415 359.790482243984 L 227 364 L 237.16267485762415 368.209517756016" stroke-miterlimit="10"/></g><g transform="translate(-62,-214) scale(1,1)"><path fill="none" stroke="#000000" d="M 227 364 L 320 364" stroke-miterlimit="10"/></g><g transform="translate(-62,-214) scale(1,1)"><path fill="none" stroke="#000000" d="M 309.83732514237585 368.209517756016 L 320 364 L 309.83732514237585 359.790482243984" stroke-miterlimit="10"/></g><g transform="translate(-62,-214) scale(1,1)"><path fill="none" stroke="#000000" d="M 419 364 L 520 364" stroke-miterlimit="10"/></g><g transform="translate(-62,-214) scale(1,1)"><path fill="none" stroke="#000000" d="M 509.83732514237585 368.209517756016 L 520 364 L 509.83732514237585 359.790482243984" stroke-miterlimit="10"/></g><g transform="translate(-62,-214) scale(1,1)"><path fill="none" stroke="#000000" d="M 520 364 L 419 364" stroke-miterlimit="10"/></g><g transform="translate(-62,-214) scale(1,1)"><path fill="none" stroke="#000000" d="M 429.16267485762415 359.790482243984 L 419 364 L 429.16267485762415 368.209517756016" stroke-miterlimit="10"/></g><g transform="translate(-62,-214) scale(1,1)"><path fill="none" stroke="#000000" d="M 344 384 L 344 480 L 520 480" stroke-miterlimit="10"/></g><g transform="translate(-62,-214) scale(1,1)"><path fill="none" stroke="#000000" d="M 509.83732514237585 484.209517756016 L 520 480 L 509.83732514237585 475.790482243984" stroke-miterlimit="10"/></g><g transform="translate(-62,-214) scale(1,1)"><path fill="none" stroke="#000000" d="M 368 384 L 368 580 L 440 580" stroke-miterlimit="10"/></g><g transform="translate(-62,-214) scale(1,1)"><path fill="none" stroke="#000000" d="M 429.83732514237585 584.209517756016 L 440 580 L 429.83732514237585 575.790482243984" stroke-miterlimit="10"/></g><g transform="translate(-62,-214) scale(1,1)"><path fill="none" stroke="#000000" d="M 392 384 L 392 656 L 720 656 L 720 576 L 699 576" stroke-miterlimit="10"/></g><g transform="translate(-62,-214) scale(1,1)"><path fill="none" stroke="#000000" d="M 709.1626748576241 571.790482243984 L 699 576 L 709.1626748576241 580.209517756016" stroke-miterlimit="10"/></g><g transform="translate(-62,-214) scale(1,1)"><path fill="none" stroke="#000000" d="M 152 384 L 152 480 L 520 480" stroke-miterlimit="10"/></g><g transform="translate(-62,-214) scale(1,1)"><path fill="none" stroke="#000000" d="M 509.83732514237585 484.209517756016 L 520 480 L 509.83732514237585 475.790482243984" stroke-miterlimit="10"/></g><g transform="translate(-62,-214) scale(1,1)"><path fill="none" stroke="#000000" d="M 176 384 L 176 580 L 440 580" stroke-miterlimit="10"/></g><g transform="translate(-62,-214) scale(1,1)"><path fill="none" stroke="#000000" d="M 429.83732514237585 584.209517756016 L 440 580 L 429.83732514237585 575.790482243984" stroke-miterlimit="10"/></g><g transform="translate(-62,-214) scale(1,1)"><path fill="none" stroke="#000000" d="M 200 384 L 200 656 L 720 656 L 720 576 L 699 576" stroke-miterlimit="10"/></g><g transform="translate(-62,-214) scale(1,1)"><path fill="none" stroke="#000000" d="M 709.1626748576241 571.790482243984 L 699 576 L 709.1626748576241 580.209517756016" stroke-miterlimit="10"/></g><g transform="translate(-62,-214) scale(1,1)"><path fill="none" stroke="#000000" d="M 344 344 L 344 312 L 392 312 L 392 344" stroke-miterlimit="10"/></g><g transform="translate(-62,-214) scale(1,1)"><path fill="none" stroke="#000000" d="M 387.790482243984 333.83732514237585 L 392 344 L 396.209517756016 333.83732514237585" stroke-miterlimit="10"/></g><g transform="translate(-62,-214) scale(1,1)"><path fill="none" stroke="#000000" d="M 440 580 L 176 580 L 176 384" stroke-miterlimit="10"/></g><g transform="translate(-62,-214) scale(1,1)"><path fill="none" stroke="#000000" d="M 180.209517756016 394.16267485762415 L 176 384 L 171.790482243984 394.16267485762415" stroke-miterlimit="10"/></g><g transform="translate(-62,-214) scale(1,1)"><path fill="none" stroke="#000000" d="M 520 480 L 344 480 L 344 384" stroke-miterlimit="10"/></g><g transform="translate(-62,-214) scale(1,1)"><path fill="none" stroke="#000000" d="M 348.209517756016 394.16267485762415 L 344 384 L 339.790482243984 394.16267485762415" stroke-miterlimit="10"/></g><g transform="translate(-62,-214) scale(1,1)"><path fill="none" stroke="#000000" d="M 440 580 L 368 580 L 368 384" stroke-miterlimit="10"/></g><g transform="translate(-62,-214) scale(1,1)"><path fill="none" stroke="#000000" d="M 372.209517756016 394.16267485762415 L 368 384 L 363.790482243984 394.16267485762415" stroke-miterlimit="10"/></g><g transform="translate(-62,-214) scale(1,1)"><path fill="none" stroke="#000000" d="M 699 576 L 720 576 L 720 656 L 392 656 L 392 384" stroke-miterlimit="10"/></g><g transform="translate(-62,-214) scale(1,1)"><path fill="none" stroke="#000000" d="M 396.209517756016 394.16267485762415 L 392 384 L 387.790482243984 394.16267485762415" stroke-miterlimit="10"/></g><g transform="translate(-62,-214) scale(1,1)"><path fill="#C0C0C0" stroke="none" d="M 977 631 L 1016 631 Q 1026 631 1026 641 L 1026 661 Q 1026 671 1016 671 L 977 671 Q 967 671 967 661 L 967 641 Q 967 631 977 631 Z" opacity="0.2"/></g><g transform="translate(-62,-214) scale(1,1)"><path fill="#ffd8d8" stroke="none" d="M 970 624 L 1009 624 Q 1019 624 1019 634 L 1019 654 Q 1019 664 1009 664 L 970 664 Q 960 664 960 654 L 960 634 Q 960 624 970 624 Z"/></g><g transform="translate(-62,-214) scale(1,1)"><path fill="none" stroke="#000000" d="M 970 624 L 1009 624 Q 1019 624 1019 634 L 1019 654 Q 1019 664 1009 664 L 970 664 Q 960 664 960 654 L 960 634 Q 960 624 970 624 Z" stroke-miterlimit="10"/></g><g transform="translate(-62,-214) scale(1,1)"><g><path fill="none" stroke="none"/><text fill="#000000" stroke="none" font-family="Arial" font-size="13px" font-style="normal" font-weight="bold" text-decoration="none" x="973.60546875" y="642">Error</text></g></g><g transform="translate(-62,-214) scale(1,1)"><path fill="#C0C0C0" stroke="none" d="M 1073 631 L 1158.79541015625 631 Q 1168.79541015625 631 1168.79541015625 641 L 1168.79541015625 661 Q 1168.79541015625 671 1158.79541015625 671 L 1073 671 Q 1063 671 1063 661 L 1063 641 Q 1063 631 1073 631 Z" opacity="0.2"/></g><g transform="translate(-62,-214) scale(1,1)"><path fill="#ffd8d8" stroke="none" d="M 1066 624 L 1151.79541015625 624 Q 1161.79541015625 624 1161.79541015625 634 L 1161.79541015625 654 Q 1161.79541015625 664 1151.79541015625 664 L 1066 664 Q 1056 664 1056 654 L 1056 634 Q 1056 624 1066 624 Z"/></g><g transform="translate(-62,-214) scale(1,1)"><path fill="none" stroke="#000000" d="M 1066 624 L 1151.79541015625 624 Q 1161.79541015625 624 1161.79541015625 634 L 1161.79541015625 654 Q 1161.79541015625 664 1151.79541015625 664 L 1066 664 Q 1056 664 1056 654 L 1056 634 Q 1056 624 1066 624 Z" stroke-miterlimit="10"/></g><g transform="translate(-62,-214) scale(1,1)"><g><path fill="none" stroke="none"/><text fill="#000000" stroke="none" font-family="Arial" font-size="13px" font-style="normal" font-weight="bold" text-decoration="none" x="1060.5" y="642">In Development</text></g></g><g transform="translate(-62,-214) scale(1,1)"><path fill="#C0C0C0" stroke="none" d="M 905 423 L 944 423 Q 954 423 954 433 L 954 453 Q 954 463 944 463 L 905 463 Q 895 463 895 453 L 895 433 Q 895 423 905 423 Z" opacity="0.2"/></g><g transform="translate(-62,-214) scale(1,1)"><path fill="#fff5d8" stroke="none" d="M 898 416 L 937 416 Q 947 416 947 426 L 947 446 Q 947 456 937 456 L 898 456 Q 888 456 888 446 L 888 426 Q 888 416 898 416 Z"/></g><g transform="translate(-62,-214) scale(1,1)"><path fill="none" stroke="#000000" d="M 898 416 L 937 416 Q 947 416 947 426 L 947 446 Q 947 456 937 456 L 898 456 Q 888 456 888 446 L 888 426 Q 888 416 898 416 Z" stroke-miterlimit="10"/></g><g transform="translate(-62,-214) scale(1,1)"><g><path fill="none" stroke="none"/><text fill="#000000" stroke="none" font-family="Arial" font-size="13px" font-style="normal" font-weight="bold" text-decoration="none" x="898.00634765625" y="434">Log In</text></g></g><g transform="translate(-62,-214) scale(1,1)"><path fill="#C0C0C0" stroke="none" d="M 1017 423 L 1056 423 Q 1066 423 1066 433 L 1066 453 Q 1066 463 1056 463 L 1017 463 Q 1007 463 1007 453 L 1007 433 Q 1007 423 1017 423 Z" opacity="0.2"/></g><g transform="translate(-62,-214) scale(1,1)"><path fill="#fff5d8" stroke="none" d="M 1010 416 L 1049 416 Q 1059 416 1059 426 L 1059 446 Q 1059 456 1049 456 L 1010 456 Q 1000 456 1000 446 L 1000 426 Q 1000 416 1010 416 Z"/></g><g transform="translate(-62,-214) scale(1,1)"><path fill="none" stroke="#000000" d="M 1010 416 L 1049 416 Q 1059 416 1059 426 L 1059 446 Q 1059 456 1049 456 L 1010 456 Q 1000 456 1000 446 L 1000 426 Q 1000 416 1010 416 Z" stroke-miterlimit="10"/></g><g transform="translate(-62,-214) scale(1,1)"><g><path fill="none" stroke="none"/><text fill="#000000" stroke="none" font-family="Arial" font-size="13px" font-style="normal" font-weight="bold" text-decoration="none" x="1004.947265625" y="434">Sign Up</text></g></g><g transform="translate(-62,-214) scale(1,1)"><path fill="#C0C0C0" stroke="none" d="M 972 272.5 C 972 267.2532944 976.2532944 263 981.5 263 C 986.7467056 263 991 267.2532944 991 272.5 C 991 277.7467056 986.7467056 282 981.5 282 C 976.2532944 282 972 277.7467056 972 272.5 Z" opacity="0.2"/></g><g transform="translate(-62,-214) scale(1,1)"><path fill="#000000" stroke="none" d="M 965 265.5 C 965 260.2532944 969.2532944 256 974.5 256 C 979.7467056 256 984 260.2532944 984 265.5 C 984 270.7467056 979.7467056 275 974.5 275 C 969.2532944 275 965 270.7467056 965 265.5 Z"/></g><g transform="translate(-62,-214) scale(1,1)"><path fill="#C0C0C0" stroke="none" d="M 970 360.5 L 981.5 351 L 992 360.5 L 981.5 369 L 970 360.5" opacity="0.2"/></g><g transform="translate(-62,-214) scale(1,1)"><path fill="#ffffff" stroke="none" d="M 963 353 L 974 344 L 985 353 L 974 362 L 963 353"/></g><g transform="translate(-62,-214) scale(1,1)"><path fill="none" stroke="#000000" d="M 963 353 L 974 344 L 985 353 L 974 362 L 963 353 L 963 353" stroke-miterlimit="10"/></g><g transform="translate(-62,-214) scale(1,1)"><path fill="none" stroke="#000000" d="M 976 275 L 976 344" stroke-miterlimit="10"/></g><g transform="translate(-62,-214) scale(1,1)"><path fill="none" stroke="#000000" d="M 971.790482243984 333.83732514237585 L 976 344 L 980.209517756016 333.83732514237585" stroke-miterlimit="10"/></g><g transform="translate(-62,-214) scale(1,1)"><g><path fill="none" stroke="none"/><text fill="#000000" stroke="none" font-family="Arial" font-size="13px" font-style="normal" font-weight="normal" text-decoration="none" x="906.3544921875" y="302">Is User</text><text fill="#000000" stroke="none" font-family="Arial" font-size="13px" font-style="normal" font-weight="normal" text-decoration="none" x="891.891357421875" y="315">Registered?</text></g></g><g transform="translate(-62,-214) scale(1,1)"><path fill="none" stroke="#000000" d="M 947 436 L 1000 436" stroke-miterlimit="10"/></g><g transform="translate(-62,-214) scale(1,1)"><path fill="none" stroke="#000000" d="M 989.8373251423759 440.209517756016 L 1000 436 L 989.8373251423758 431.790482243984" stroke-miterlimit="10"/></g><g transform="translate(-62,-214) scale(1,1)"><path fill="none" stroke="#000000" d="M 1000 436 L 947 436" stroke-miterlimit="10"/></g><g transform="translate(-62,-214) scale(1,1)"><path fill="none" stroke="#000000" d="M 957.1626748576241 431.790482243984 L 947 436 L 957.1626748576241 440.209517756016" stroke-miterlimit="10"/></g><g transform="translate(-62,-214) scale(1,1)"><path fill="#C0C0C0" stroke="none" d="M 1105 415 L 1229 415 Q 1239 415 1239 425 L 1239 458 Q 1239 468 1229 468 L 1105 468 Q 1095 468 1095 458 L 1095 425 Q 1095 415 1105 415 Z" opacity="0.2"/></g><g transform="translate(-62,-214) scale(1,1)"><path fill="#ebffd8" stroke="none" d="M 1098 408 L 1222 408 Q 1232 408 1232 418 L 1232 451 Q 1232 461 1222 461 L 1098 461 Q 1088 461 1088 451 L 1088 418 Q 1088 408 1098 408 Z"/></g><g transform="translate(-62,-214) scale(1,1)"><path fill="none" stroke="#000000" d="M 1098 408 L 1222 408 Q 1232 408 1232 418 L 1232 451 Q 1232 461 1222 461 L 1098 461 Q 1088 461 1088 451 L 1088 418 Q 1088 408 1098 408 Z" stroke-miterlimit="10"/></g><g transform="translate(-62,-214) scale(1,1)"><g><path fill="none" stroke="none"/><text fill="#000000" stroke="none" font-family="Arial" font-size="13px" font-style="normal" font-weight="bold" text-decoration="none" x="1118.825927734375" y="426">Page only for</text><text fill="#000000" stroke="none" font-family="Arial" font-size="13px" font-style="normal" font-weight="bold" text-decoration="none" x="1106.530517578125" y="439">Registered Users</text></g></g><g transform="translate(-62,-214) scale(1,1)"><path fill="none" stroke="#000000" d="M 985 352 L 1160 352 L 1160 408" stroke-miterlimit="10"/></g><g transform="translate(-62,-214) scale(1,1)"><path fill="none" stroke="#000000" d="M 1155.7904822439841 397.83732514237585 L 1160 408 L 1164.2095177560159 397.83732514237585" stroke-miterlimit="10"/></g><g transform="translate(-62,-214) scale(1,1)"><g><path fill="none" stroke="none"/><text fill="#000000" stroke="none" font-family="Arial" font-size="13px" font-style="normal" font-weight="normal" text-decoration="none" x="1055.5" y="346">Yes</text></g></g><g transform="translate(-62,-214) scale(1,1)"><path fill="none" stroke="#000000" d="M 963 352 L 920 352 L 920 416" stroke-miterlimit="10"/></g><g transform="translate(-62,-214) scale(1,1)"><path fill="none" stroke="#000000" d="M 915.790482243984 405.83732514237585 L 920 416 L 924.209517756016 405.83732514237585" stroke-miterlimit="10"/></g><g transform="translate(-62,-214) scale(1,1)"><g><path fill="none" stroke="none"/><text fill="#000000" stroke="none" font-family="Arial" font-size="13px" font-style="normal" font-weight="normal" text-decoration="none" x="894.5" y="387">No</text></g></g><g transform="translate(-62,-214) scale(1,1)"><path fill="#C0C0C0" stroke="none" d="M 970 528.5 L 981.5 519 L 992 528.5 L 981.5 537 L 970 528.5" opacity="0.2"/></g><g transform="translate(-62,-214) scale(1,1)"><path fill="#ffffff" stroke="none" d="M 963 521 L 974 512 L 985 521 L 974 530 L 963 521"/></g><g transform="translate(-62,-214) scale(1,1)"><path fill="none" stroke="#000000" d="M 963 521 L 974 512 L 985 521 L 974 530 L 963 521 L 963 521" stroke-miterlimit="10"/></g><g transform="translate(-62,-214) scale(1,1)"><path fill="none" stroke="#000000" d="M 925 456 L 925 480 L 976 480 L 976 512" stroke-miterlimit="10"/></g><g transform="translate(-62,-214) scale(1,1)"><path fill="none" stroke="#000000" d="M 971.790482243984 501.83732514237585 L 976 512 L 980.209517756016 501.83732514237585" stroke-miterlimit="10"/></g><g transform="translate(-62,-214) scale(1,1)"><path fill="none" stroke="#000000" d="M 1032 456 L 1032 480 L 976 480 L 976 512" stroke-miterlimit="10"/></g><g transform="translate(-62,-214) scale(1,1)"><path fill="none" stroke="#000000" d="M 971.790482243984 501.83732514237585 L 976 512 L 980.209517756016 501.83732514237585" stroke-miterlimit="10"/></g><g transform="translate(-62,-214) scale(1,1)"><path fill="none" stroke="#000000" d="M 985 520 L 1160 520 L 1160 461" stroke-miterlimit="10"/></g><g transform="translate(-62,-214) scale(1,1)"><path fill="none" stroke="#000000" d="M 1164.2095177560159 471.16267485762415 L 1160 461 L 1155.7904822439841 471.16267485762415" stroke-miterlimit="10"/></g><g transform="translate(-62,-214) scale(1,1)"><g><path fill="none" stroke="none"/><text fill="#000000" stroke="none" font-family="Arial" font-size="20px" font-style="normal" font-weight="normal" text-decoration="none" x="629" y="263">Navigation Map</text></g></g><g transform="translate(-62,-214) scale(1,1)"><g><path fill="none" stroke="none"/><text fill="#000000" stroke="none" font-family="Arial" font-size="20px" font-style="normal" font-weight="normal" text-decoration="none" x="1082.1650390625" y="275">Access to</text><text fill="#000000" stroke="none" font-family="Arial" font-size="20px" font-style="normal" font-weight="normal" text-decoration="none" x="1049.3671875" y="296">Restricted Pages</text></g></g><g transform="translate(-62,-214) scale(1,1)"><g><path fill="none" stroke="none"/><text fill="#000000" stroke="none" font-family="Arial" font-size="20px" font-style="normal" font-weight="normal" text-decoration="none" x="989" y="604">Special Pages</text></g></g><g transform="translate(-62,-214) scale(1,1)"><path fill="#C0C0C0" stroke="none" d="M 129 743 L 237 743 Q 247 743 247 753 L 247 781 Q 247 791 237 791 L 129 791 Q 119 791 119 781 L 119 753 Q 119 743 129 743 Z" opacity="0.2"/></g><g transform="translate(-62,-214) scale(1,1)"><path fill="#ebffd8" stroke="none" d="M 122 736 L 230 736 Q 240 736 240 746 L 240 774 Q 240 784 230 784 L 122 784 Q 112 784 112 774 L 112 746 Q 112 736 122 736 Z"/></g><g transform="translate(-62,-214) scale(1,1)"><path fill="none" stroke="#000000" d="M 122 736 L 230 736 Q 240 736 240 746 L 240 774 Q 240 784 230 784 L 122 784 Q 112 784 112 774 L 112 746 Q 112 736 122 736 Z" stroke-miterlimit="10"/></g><g transform="translate(-62,-214) scale(1,1)"><g><path fill="none" stroke="none"/><text fill="#000000" stroke="none" font-family="Arial" font-size="13px" font-style="normal" font-weight="bold" text-decoration="none" x="155.773193359375" y="754">Profile</text></g></g><g transform="translate(-62,-214) scale(1,1)"><path fill="#C0C0C0" stroke="none" d="M 299 743 L 407 743 Q 417 743 417 753 L 417 781 Q 417 791 407 791 L 299 791 Q 289 791 289 781 L 289 753 Q 289 743 299 743 Z" opacity="0.2"/></g><g transform="translate(-62,-214) scale(1,1)"><path fill="#ffd8ff" stroke="none" d="M 292 736 L 400 736 Q 410 736 410 746 L 410 774 Q 410 784 400 784 L 292 784 Q 282 784 282 774 L 282 746 Q 282 736 292 736 Z"/></g><g transform="translate(-62,-214) scale(1,1)"><path fill="none" stroke="#000000" d="M 292 736 L 400 736 Q 410 736 410 746 L 410 774 Q 410 784 400 784 L 292 784 Q 282 784 282 774 L 282 746 Q 282 736 292 736 Z" stroke-miterlimit="10"/></g><g transform="translate(-62,-214) scale(1,1)"><g><path fill="none" stroke="none"/><text fill="#000000" stroke="none" font-family="Arial" font-size="13px" font-style="normal" font-weight="bold" text-decoration="none" x="289.299560546875" y="754">Admin DashBoard</text></g></g><g transform="translate(-62,-214) scale(1,1)"><path fill="#C0C0C0" stroke="none" d="M 469 743 L 577 743 Q 587 743 587 753 L 587 781 Q 587 791 577 791 L 469 791 Q 459 791 459 781 L 459 753 Q 459 743 469 743 Z" opacity="0.2"/></g><g transform="translate(-62,-214) scale(1,1)"><path fill="#ffd8ff" stroke="none" d="M 462 736 L 570 736 Q 580 736 580 746 L 580 774 Q 580 784 570 784 L 462 784 Q 452 784 452 774 L 452 746 Q 452 736 462 736 Z"/></g><g transform="translate(-62,-214) scale(1,1)"><path fill="none" stroke="#000000" d="M 462 736 L 570 736 Q 580 736 580 746 L 580 774 Q 580 784 570 784 L 462 784 Q 452 784 452 774 L 452 746 Q 452 736 462 736 Z" stroke-miterlimit="10"/></g><g transform="translate(-62,-214) scale(1,1)"><g><path fill="none" stroke="none"/><text fill="#000000" stroke="none" font-family="Arial" font-size="13px" font-style="normal" font-weight="bold" text-decoration="none" x="477.71728515625" y="754">All Products</text></g></g><g transform="translate(-62,-214) scale(1,1)"><path fill="#C0C0C0" stroke="none" d="M 639 743 L 747 743 Q 757 743 757 753 L 757 781 Q 757 791 747 791 L 639 791 Q 629 791 629 781 L 629 753 Q 629 743 639 743 Z" opacity="0.2"/></g><g transform="translate(-62,-214) scale(1,1)"><path fill="#ffd8ff" stroke="none" d="M 632 736 L 740 736 Q 750 736 750 746 L 750 774 Q 750 784 740 784 L 632 784 Q 622 784 622 774 L 622 746 Q 622 736 632 736 Z"/></g><g transform="translate(-62,-214) scale(1,1)"><path fill="none" stroke="#000000" d="M 632 736 L 740 736 Q 750 736 750 746 L 750 774 Q 750 784 740 784 L 632 784 Q 622 784 622 774 L 622 746 Q 622 736 632 736 Z" stroke-miterlimit="10"/></g><g transform="translate(-62,-214) scale(1,1)"><g><path fill="none" stroke="none"/><text fill="#000000" stroke="none" font-family="Arial" font-size="13px" font-style="normal" font-weight="bold" text-decoration="none" x="640.8681640625" y="754">About Product</text></g></g><g transform="translate(-62,-214) scale(1,1)"><path fill="#C0C0C0" stroke="none" d="M 641 823 L 749 823 Q 759 823 759 833 L 759 866 Q 759 876 749 876 L 641 876 Q 631 876 631 866 L 631 833 Q 631 823 641 823 Z" opacity="0.2"/></g><g transform="translate(-62,-214) scale(1,1)"><path fill="#ffd8ff" stroke="none" d="M 634 816 L 742 816 Q 752 816 752 826 L 752 859 Q 752 869 742 869 L 634 869 Q 624 869 624 859 L 624 826 Q 624 816 634 816 Z"/></g><g transform="translate(-62,-214) scale(1,1)"><path fill="none" stroke="#000000" d="M 634 816 L 742 816 Q 752 816 752 826 L 752 859 Q 752 869 742 869 L 634 869 Q 624 869 624 859 L 624 826 Q 624 816 634 816 Z" stroke-miterlimit="10"/></g><g transform="translate(-62,-214) scale(1,1)"><g><path fill="none" stroke="none"/><text fill="#000000" stroke="none" font-family="Arial" font-size="13px" font-style="normal" font-weight="bold" text-decoration="none" x="641.405029296875" y="834">Create Product</text><text fill="#000000" stroke="none" font-family="Arial" font-size="13px" font-style="normal" font-weight="bold" text-decoration="none" x="671.75" y="847">Form</text></g></g><g transform="translate(-62,-214) scale(1,1)"><path fill="#C0C0C0" stroke="none" d="M 809 743 L 914.89453125 743 Q 924.89453125 743 924.89453125 753 L 924.89453125 786 Q 924.89453125 796 914.89453125 796 L 809 796 Q 799 796 799 786 L 799 753 Q 799 743 809 743 Z" opacity="0.2"/></g><g transform="translate(-62,-214) scale(1,1)"><path fill="#ffd8ff" stroke="none" d="M 802 736 L 907.89453125 736 Q 917.89453125 736 917.89453125 746 L 917.89453125 779 Q 917.89453125 789 907.89453125 789 L 802 789 Q 792 789 792 779 L 792 746 Q 792 736 802 736 Z"/></g><g transform="translate(-62,-214) scale(1,1)"><path fill="none" stroke="#000000" d="M 802 736 L 907.89453125 736 Q 917.89453125 736 917.89453125 746 L 917.89453125 779 Q 917.89453125 789 907.89453125 789 L 802 789 Q 792 789 792 779 L 792 746 Q 792 736 802 736 Z" stroke-miterlimit="10"/></g><g transform="translate(-62,-214) scale(1,1)"><g><path fill="none" stroke="none"/><text fill="#000000" stroke="none" font-family="Arial" font-size="13px" font-style="normal" font-weight="bold" text-decoration="none" x="806.555908203125" y="754">Update Product</text><text fill="#000000" stroke="none" font-family="Arial" font-size="13px" font-style="normal" font-weight="bold" text-decoration="none" x="838.697265625" y="767">Form</text></g></g><g transform="translate(-62,-214) scale(1,1)"><path fill="none" stroke="#000000" d="M 240 760 L 282 760" stroke-miterlimit="10"/></g><g transform="translate(-62,-214) scale(1,1)"><path fill="none" stroke="#000000" d="M 271.83732514237585 764.209517756016 L 282 760 L 271.83732514237585 755.790482243984" stroke-miterlimit="10"/></g><g transform="translate(-62,-214) scale(1,1)"><path fill="none" stroke="#000000" d="M 410 760 L 452 760" stroke-miterlimit="10"/></g><g transform="translate(-62,-214) scale(1,1)"><path fill="none" stroke="#000000" d="M 441.83732514237585 764.209517756016 L 452 760 L 441.83732514237585 755.790482243984" stroke-miterlimit="10"/></g><g transform="translate(-62,-214) scale(1,1)"><path fill="none" stroke="#000000" d="M 580 760 L 622 760" stroke-miterlimit="10"/></g><g transform="translate(-62,-214) scale(1,1)"><path fill="none" stroke="#000000" d="M 611.8373251423759 764.209517756016 L 622 760 L 611.8373251423758 755.790482243984" stroke-miterlimit="10"/></g><g transform="translate(-62,-214) scale(1,1)"><path fill="none" stroke="#000000" d="M 750 761 L 792 761" stroke-miterlimit="10"/></g><g transform="translate(-62,-214) scale(1,1)"><path fill="none" stroke="#000000" d="M 781.8373251423759 765.209517756016 L 792 761 L 781.8373251423758 756.790482243984" stroke-miterlimit="10"/></g><g transform="translate(-62,-214) scale(1,1)"><path fill="none" stroke="#000000" d="M 520 784 L 520 842 L 624 842" stroke-miterlimit="10"/></g><g transform="translate(-62,-214) scale(1,1)"><path fill="none" stroke="#000000" d="M 613.8373251423759 846.209517756016 L 624 842 L 613.8373251423758 837.790482243984" stroke-miterlimit="10"/></g><g transform="translate(-62,-214) scale(1,1)"><path fill="none" stroke="#000000" d="M 792 761 L 750 761" stroke-miterlimit="10"/></g><g transform="translate(-62,-214) scale(1,1)"><path fill="none" stroke="#000000" d="M 760.1626748576241 756.790482243984 L 750 761 L 760.1626748576241 765.209517756016" stroke-miterlimit="10"/></g><g transform="translate(-62,-214) scale(1,1)"><path fill="none" stroke="#000000" d="M 624 842 L 520 842 L 520 784" stroke-miterlimit="10"/></g><g transform="translate(-62,-214) scale(1,1)"><path fill="none" stroke="#000000" d="M 524.209517756016 794.1626748576241 L 520 784 L 515.790482243984 794.1626748576241" stroke-miterlimit="10"/></g><g transform="translate(-62,-214) scale(1,1)"><g><path fill="none" stroke="none"/><text fill="#000000" stroke="none" font-family="Arial" font-size="20px" font-style="normal" font-weight="normal" text-decoration="none" x="125" y="1156">Admin Dahsboard Map</text></g></g><g transform="translate(-62,-214) scale(1,1)"><path fill="none" stroke="#000000" d="M 282 760 L 240 760" stroke-miterlimit="10"/></g><g transform="translate(-62,-214) scale(1,1)"><path fill="none" stroke="#000000" d="M 250.16267485762415 755.790482243984 L 240 760 L 250.16267485762415 764.209517756016" stroke-miterlimit="10"/></g><g transform="translate(-62,-214) scale(1,1)"><path fill="none" stroke="#000000" d="M 452 760 L 410 760" stroke-miterlimit="10"/></g><g transform="translate(-62,-214) scale(1,1)"><path fill="none" stroke="#000000" d="M 420.16267485762415 755.790482243984 L 410 760 L 420.16267485762415 764.209517756016" stroke-miterlimit="10"/></g><g transform="translate(-62,-214) scale(1,1)"><path fill="none" stroke="#000000" d="M 622 760 L 580 760" stroke-miterlimit="10"/></g><g transform="translate(-62,-214) scale(1,1)"><path fill="none" stroke="#000000" d="M 590.1626748576241 755.790482243984 L 580 760 L 590.1626748576241 764.209517756016" stroke-miterlimit="10"/></g><g transform="translate(-62,-214) scale(1,1)"><path fill="#C0C0C0" stroke="none" d="M 473 895 L 581 895 Q 591 895 591 905 L 591 933 Q 591 943 581 943 L 473 943 Q 463 943 463 933 L 463 905 Q 463 895 473 895 Z" opacity="0.2"/></g><g transform="translate(-62,-214) scale(1,1)"><path fill="#ffd8ff" stroke="none" d="M 466 888 L 574 888 Q 584 888 584 898 L 584 926 Q 584 936 574 936 L 466 936 Q 456 936 456 926 L 456 898 Q 456 888 466 888 Z"/></g><g transform="translate(-62,-214) scale(1,1)"><path fill="none" stroke="#000000" d="M 466 888 L 574 888 Q 584 888 584 898 L 584 926 Q 584 936 574 936 L 466 936 Q 456 936 456 926 L 456 898 Q 456 888 466 888 Z" stroke-miterlimit="10"/></g><g transform="translate(-62,-214) scale(1,1)"><g><path fill="none" stroke="none"/><text fill="#000000" stroke="none" font-family="Arial" font-size="13px" font-style="normal" font-weight="bold" text-decoration="none" x="482.07275390625" y="906">All Bargains</text></g></g><g transform="translate(-62,-214) scale(1,1)"><path fill="#C0C0C0" stroke="none" d="M 641 895 L 749 895 Q 759 895 759 905 L 759 933 Q 759 943 749 943 L 641 943 Q 631 943 631 933 L 631 905 Q 631 895 641 895 Z" opacity="0.2"/></g><g transform="translate(-62,-214) scale(1,1)"><path fill="#ffd8ff" stroke="none" d="M 634 888 L 742 888 Q 752 888 752 898 L 752 926 Q 752 936 742 936 L 634 936 Q 624 936 624 926 L 624 898 Q 624 888 634 888 Z"/></g><g transform="translate(-62,-214) scale(1,1)"><path fill="none" stroke="#000000" d="M 634 888 L 742 888 Q 752 888 752 898 L 752 926 Q 752 936 742 936 L 634 936 Q 624 936 624 926 L 624 898 Q 624 888 634 888 Z" stroke-miterlimit="10"/></g><g transform="translate(-62,-214) scale(1,1)"><g><path fill="none" stroke="none"/><text fill="#000000" stroke="none" font-family="Arial" font-size="13px" font-style="normal" font-weight="bold" text-decoration="none" x="643.2236328125" y="906">About Bargain</text></g></g><g transform="translate(-62,-214) scale(1,1)"><path fill="#C0C0C0" stroke="none" d="M 809 895 L 917 895 Q 927 895 927 905 L 927 941 Q 927 951 917 951 L 809 951 Q 799 951 799 941 L 799 905 Q 799 895 809 895 Z" opacity="0.2"/></g><g transform="translate(-62,-214) scale(1,1)"><path fill="#ffd8ff" stroke="none" d="M 802 888 L 910 888 Q 920 888 920 898 L 920 934 Q 920 944 910 944 L 802 944 Q 792 944 792 934 L 792 898 Q 792 888 802 888 Z"/></g><g transform="translate(-62,-214) scale(1,1)"><path fill="none" stroke="#000000" d="M 802 888 L 910 888 Q 920 888 920 898 L 920 934 Q 920 944 910 944 L 802 944 Q 792 944 792 934 L 792 898 Q 792 888 802 888 Z" stroke-miterlimit="10"/></g><g transform="translate(-62,-214) scale(1,1)"><g><path fill="none" stroke="none"/><text fill="#000000" stroke="none" font-family="Arial" font-size="13px" font-style="normal" font-weight="bold" text-decoration="none" x="807.964111328125" y="906">Update Bargain</text><text fill="#000000" stroke="none" font-family="Arial" font-size="13px" font-style="normal" font-weight="bold" text-decoration="none" x="839.75" y="919">Form</text></g></g><g transform="translate(-62,-214) scale(1,1)"><path fill="#C0C0C0" stroke="none" d="M 641 975 L 749 975 Q 759 975 759 985 L 759 1018 Q 759 1028 749 1028 L 641 1028 Q 631 1028 631 1018 L 631 985 Q 631 975 641 975 Z" opacity="0.2"/></g><g transform="translate(-62,-214) scale(1,1)"><path fill="#ffd8ff" stroke="none" d="M 634 968 L 742 968 Q 752 968 752 978 L 752 1011 Q 752 1021 742 1021 L 634 1021 Q 624 1021 624 1011 L 624 978 Q 624 968 634 968 Z"/></g><g transform="translate(-62,-214) scale(1,1)"><path fill="none" stroke="#000000" d="M 634 968 L 742 968 Q 752 968 752 978 L 752 1011 Q 752 1021 742 1021 L 634 1021 Q 624 1021 624 1011 L 624 978 Q 624 968 634 968 Z" stroke-miterlimit="10"/></g><g transform="translate(-62,-214) scale(1,1)"><g><path fill="none" stroke="none"/><text fill="#000000" stroke="none" font-family="Arial" font-size="13px" font-style="normal" font-weight="bold" text-decoration="none" x="641.760498046875" y="986">Create Bargain</text><text fill="#000000" stroke="none" font-family="Arial" font-size="13px" font-style="normal" font-weight="bold" text-decoration="none" x="671.75" y="999">Form</text></g></g><g transform="translate(-62,-214) scale(1,1)"><path fill="none" stroke="#000000" d="M 368 784 L 368 912 L 456 912" stroke-miterlimit="10"/></g><g transform="translate(-62,-214) scale(1,1)"><path fill="none" stroke="#000000" d="M 445.83732514237585 916.209517756016 L 456 912 L 445.83732514237585 907.790482243984" stroke-miterlimit="10"/></g><g transform="translate(-62,-214) scale(1,1)"><path fill="none" stroke="#000000" d="M 456 912 L 368 912 L 368 784" stroke-miterlimit="10"/></g><g transform="translate(-62,-214) scale(1,1)"><path fill="none" stroke="#000000" d="M 372.209517756016 794.1626748576241 L 368 784 L 363.790482243984 794.1626748576241" stroke-miterlimit="10"/></g><g transform="translate(-62,-214) scale(1,1)"><path fill="none" stroke="#000000" d="M 585 912 L 623 912" stroke-miterlimit="10"/></g><g transform="translate(-62,-214) scale(1,1)"><path fill="none" stroke="#000000" d="M 612.8373251423759 916.209517756016 L 623 912 L 612.8373251423758 907.790482243984" stroke-miterlimit="10"/></g><g transform="translate(-62,-214) scale(1,1)"><path fill="none" stroke="#000000" d="M 520 936 L 520 994 L 624 994" stroke-miterlimit="10"/></g><g transform="translate(-62,-214) scale(1,1)"><path fill="none" stroke="#000000" d="M 613.8373251423759 998.209517756016 L 624 994 L 613.8373251423758 989.790482243984" stroke-miterlimit="10"/></g><g transform="translate(-62,-214) scale(1,1)"><path fill="none" stroke="#000000" d="M 624 994 L 520 994 L 520 936" stroke-miterlimit="10"/></g><g transform="translate(-62,-214) scale(1,1)"><path fill="none" stroke="#000000" d="M 524.209517756016 946.1626748576241 L 520 936 L 515.790482243984 946.1626748576241" stroke-miterlimit="10"/></g><g transform="translate(-62,-214) scale(1,1)"><path fill="none" stroke="#000000" d="M 624 912 L 584 912" stroke-miterlimit="10"/></g><g transform="translate(-62,-214) scale(1,1)"><path fill="none" stroke="#000000" d="M 594.1626748576241 907.790482243984 L 584 912 L 594.1626748576241 916.209517756016" stroke-miterlimit="10"/></g><g transform="translate(-62,-214) scale(1,1)"><path fill="none" stroke="#000000" d="M 753 914 L 791 914" stroke-miterlimit="10"/></g><g transform="translate(-62,-214) scale(1,1)"><path fill="none" stroke="#000000" d="M 780.8373251423759 918.209517756016 L 791 914 L 780.8373251423758 909.790482243984" stroke-miterlimit="10"/></g><g transform="translate(-62,-214) scale(1,1)"><path fill="none" stroke="#000000" d="M 792 913 L 752 913" stroke-miterlimit="10"/></g><g transform="translate(-62,-214) scale(1,1)"><path fill="none" stroke="#000000" d="M 762.1626748576241 908.790482243984 L 752 913 L 762.1626748576241 917.209517756016" stroke-miterlimit="10"/></g><g transform="translate(-62,-214) scale(1,1)"><path fill="#C0C0C0" stroke="none" d="M 473 1047 L 581 1047 Q 591 1047 591 1057 L 591 1085 Q 591 1095 581 1095 L 473 1095 Q 463 1095 463 1085 L 463 1057 Q 463 1047 473 1047 Z" opacity="0.2"/></g><g transform="translate(-62,-214) scale(1,1)"><path fill="#ffd8ff" stroke="none" d="M 466 1040 L 574 1040 Q 584 1040 584 1050 L 584 1078 Q 584 1088 574 1088 L 466 1088 Q 456 1088 456 1078 L 456 1050 Q 456 1040 466 1040 Z"/></g><g transform="translate(-62,-214) scale(1,1)"><path fill="none" stroke="#000000" d="M 466 1040 L 574 1040 Q 584 1040 584 1050 L 584 1078 Q 584 1088 574 1088 L 466 1088 Q 456 1088 456 1078 L 456 1050 Q 456 1040 466 1040 Z" stroke-miterlimit="10"/></g><g transform="translate(-62,-214) scale(1,1)"><g><path fill="none" stroke="none"/><text fill="#000000" stroke="none" font-family="Arial" font-size="13px" font-style="normal" font-weight="bold" text-decoration="none" x="480.9873046875" y="1058">All Novelties</text></g></g><g transform="translate(-62,-214) scale(1,1)"><path fill="#C0C0C0" stroke="none" d="M 641 1047 L 749 1047 Q 759 1047 759 1057 L 759 1085 Q 759 1095 749 1095 L 641 1095 Q 631 1095 631 1085 L 631 1057 Q 631 1047 641 1047 Z" opacity="0.2"/></g><g transform="translate(-62,-214) scale(1,1)"><path fill="#ffd8ff" stroke="none" d="M 634 1040 L 742 1040 Q 752 1040 752 1050 L 752 1078 Q 752 1088 742 1088 L 634 1088 Q 624 1088 624 1078 L 624 1050 Q 624 1040 634 1040 Z"/></g><g transform="translate(-62,-214) scale(1,1)"><path fill="none" stroke="#000000" d="M 634 1040 L 742 1040 Q 752 1040 752 1050 L 752 1078 Q 752 1088 742 1088 L 634 1088 Q 624 1088 624 1078 L 624 1050 Q 624 1040 634 1040 Z" stroke-miterlimit="10"/></g><g transform="translate(-62,-214) scale(1,1)"><g><path fill="none" stroke="none"/><text fill="#000000" stroke="none" font-family="Arial" font-size="13px" font-style="normal" font-weight="bold" text-decoration="none" x="643.944091796875" y="1058">About Novelty</text></g></g><g transform="translate(-62,-214) scale(1,1)"><path fill="#C0C0C0" stroke="none" d="M 809 1047 L 917 1047 Q 927 1047 927 1057 L 927 1093 Q 927 1103 917 1103 L 809 1103 Q 799 1103 799 1093 L 799 1057 Q 799 1047 809 1047 Z" opacity="0.2"/></g><g transform="translate(-62,-214) scale(1,1)"><path fill="#ffd8ff" stroke="none" d="M 802 1040 L 910 1040 Q 920 1040 920 1050 L 920 1086 Q 920 1096 910 1096 L 802 1096 Q 792 1096 792 1086 L 792 1050 Q 792 1040 802 1040 Z"/></g><g transform="translate(-62,-214) scale(1,1)"><path fill="none" stroke="#000000" d="M 802 1040 L 910 1040 Q 920 1040 920 1050 L 920 1086 Q 920 1096 910 1096 L 802 1096 Q 792 1096 792 1086 L 792 1050 Q 792 1040 802 1040 Z" stroke-miterlimit="10"/></g><g transform="translate(-62,-214) scale(1,1)"><g><path fill="none" stroke="none"/><text fill="#000000" stroke="none" font-family="Arial" font-size="13px" font-style="normal" font-weight="bold" text-decoration="none" x="808.6845703125" y="1058">Update Novelty</text><text fill="#000000" stroke="none" font-family="Arial" font-size="13px" font-style="normal" font-weight="bold" text-decoration="none" x="839.75" y="1071">Form</text></g></g><g transform="translate(-62,-214) scale(1,1)"><path fill="#C0C0C0" stroke="none" d="M 641 1127 L 749 1127 Q 759 1127 759 1137 L 759 1173 Q 759 1183 749 1183 L 641 1183 Q 631 1183 631 1173 L 631 1137 Q 631 1127 641 1127 Z" opacity="0.2"/></g><g transform="translate(-62,-214) scale(1,1)"><path fill="#ffd8ff" stroke="none" d="M 634 1120 L 742 1120 Q 752 1120 752 1130 L 752 1166 Q 752 1176 742 1176 L 634 1176 Q 624 1176 624 1166 L 624 1130 Q 624 1120 634 1120 Z"/></g><g transform="translate(-62,-214) scale(1,1)"><path fill="none" stroke="#000000" d="M 634 1120 L 742 1120 Q 752 1120 752 1130 L 752 1166 Q 752 1176 742 1176 L 634 1176 Q 624 1176 624 1166 L 624 1130 Q 624 1120 634 1120 Z" stroke-miterlimit="10"/></g><g transform="translate(-62,-214) scale(1,1)"><g><path fill="none" stroke="none"/><text fill="#000000" stroke="none" font-family="Arial" font-size="13px" font-style="normal" font-weight="bold" text-decoration="none" x="642.48095703125" y="1138">Create Novelty</text><text fill="#000000" stroke="none" font-family="Arial" font-size="13px" font-style="normal" font-weight="bold" text-decoration="none" x="671.75" y="1151">Form</text></g></g><g transform="translate(-62,-214) scale(1,1)"><path fill="none" stroke="#000000" d="M 792 1066 L 752 1066" stroke-miterlimit="10"/></g><g transform="translate(-62,-214) scale(1,1)"><path fill="none" stroke="#000000" d="M 762.1626748576241 1061.7904822439841 L 752 1066 L 762.1626748576241 1070.2095177560159" stroke-miterlimit="10"/></g><g transform="translate(-62,-214) scale(1,1)"><path fill="none" stroke="#000000" d="M 624 1064 L 584 1064" stroke-miterlimit="10"/></g><g transform="translate(-62,-214) scale(1,1)"><path fill="none" stroke="#000000" d="M 594.1626748576241 1059.7904822439841 L 584 1064 L 594.1626748576241 1068.2095177560159" stroke-miterlimit="10"/></g><g transform="translate(-62,-214) scale(1,1)"><path fill="none" stroke="#000000" d="M 456 1064 L 320 1064 L 320 784" stroke-miterlimit="10"/></g><g transform="translate(-62,-214) scale(1,1)"><path fill="none" stroke="#000000" d="M 324.209517756016 794.1626748576241 L 320 784 L 315.790482243984 794.1626748576241" stroke-miterlimit="10"/></g><g transform="translate(-62,-214) scale(1,1)"><path fill="none" stroke="#000000" d="M 624 1148 L 520 1148 L 520 1088" stroke-miterlimit="10"/></g><g transform="translate(-62,-214) scale(1,1)"><path fill="none" stroke="#000000" d="M 524.209517756016 1098.162674857624 L 520 1088 L 515.790482243984 1098.162674857624" stroke-miterlimit="10"/></g><g transform="translate(-62,-214) scale(1,1)"><path fill="none" stroke="#000000" d="M 320 784 L 320 1064 L 456 1064" stroke-miterlimit="10"/></g><g transform="translate(-62,-214) scale(1,1)"><path fill="none" stroke="#000000" d="M 445.83732514237585 1068.2095177560159 L 456 1064 L 445.83732514237585 1059.7904822439841" stroke-miterlimit="10"/></g><g transform="translate(-62,-214) scale(1,1)"><path fill="none" stroke="#000000" d="M 584 1064 L 624 1064" stroke-miterlimit="10"/></g><g transform="translate(-62,-214) scale(1,1)"><path fill="none" stroke="#000000" d="M 613.8373251423759 1068.2095177560159 L 624 1064 L 613.8373251423758 1059.7904822439841" stroke-miterlimit="10"/></g><g transform="translate(-62,-214) scale(1,1)"><path fill="none" stroke="#000000" d="M 752 1066 L 792 1066" stroke-miterlimit="10"/></g><g transform="translate(-62,-214) scale(1,1)"><path fill="none" stroke="#000000" d="M 781.8373251423759 1070.2095177560159 L 792 1066 L 781.8373251423758 1061.7904822439841" stroke-miterlimit="10"/></g><g transform="translate(-62,-214) scale(1,1)"><path fill="none" stroke="#000000" d="M 520 1088 L 520 1148 L 624 1148" stroke-miterlimit="10"/></g><g transform="translate(-62,-214) scale(1,1)"><path fill="none" stroke="#000000" d="M 613.8373251423759 1152.2095177560159 L 624 1148 L 613.8373251423758 1143.7904822439841" stroke-miterlimit="10"/></g><g transform="translate(-62,-214) scale(1,1)"><path fill="#C0C0C0" stroke="none" d="M 689 351 L 768.263671875 351 Q 778.263671875 351 778.263671875 361 L 778.263671875 381 Q 778.263671875 391 768.263671875 391 L 689 391 Q 679 391 679 381 L 679 361 Q 679 351 689 351 Z" opacity="0.2"/></g><g transform="translate(-62,-214) scale(1,1)"><path fill="#d8e5ff" stroke="none" d="M 682 344 L 761.263671875 344 Q 771.263671875 344 771.263671875 354 L 771.263671875 374 Q 771.263671875 384 761.263671875 384 L 682 384 Q 672 384 672 374 L 672 354 Q 672 344 682 344 Z"/></g><g transform="translate(-62,-214) scale(1,1)"><path fill="none" stroke="#000000" d="M 682 344 L 761.263671875 344 Q 771.263671875 344 771.263671875 354 L 771.263671875 374 Q 771.263671875 384 761.263671875 384 L 682 384 Q 672 384 672 374 L 672 354 Q 672 344 682 344 Z" stroke-miterlimit="10"/></g><g transform="translate(-62,-214) scale(1,1)"><g><path fill="none" stroke="none"/><text fill="#000000" stroke="none" font-family="Arial" font-size="13px" font-style="normal" font-weight="bold" text-decoration="none" x="694.885986328125" y="362">Services</text></g></g><g transform="translate(-62,-214) scale(1,1)"><path fill="none" stroke="#000000" d="M 619 364 L 672 364" stroke-miterlimit="10"/></g><g transform="translate(-62,-214) scale(1,1)"><path fill="none" stroke="#000000" d="M 661.8373251423759 368.209517756016 L 672 364 L 661.8373251423758 359.790482243984" stroke-miterlimit="10"/></g><g transform="translate(-62,-214) scale(1,1)"><path fill="none" stroke="#000000" d="M 720 384 L 720 484 L 619 484" stroke-miterlimit="10"/></g><g transform="translate(-62,-214) scale(1,1)"><path fill="none" stroke="#000000" d="M 629.1626748576241 479.790482243984 L 619 484 L 629.1626748576241 488.209517756016" stroke-miterlimit="10"/></g><g transform="translate(-62,-214) scale(1,1)"><path fill="none" stroke="#000000" d="M 619 484 L 720 484 L 720 384" stroke-miterlimit="10"/></g><g transform="translate(-62,-214) scale(1,1)"><path fill="none" stroke="#000000" d="M 724.209517756016 394.16267485762415 L 720 384 L 715.790482243984 394.16267485762415" stroke-miterlimit="10"/></g><g transform="translate(-62,-214) scale(1,1)"><path fill="none" stroke="#000000" d="M 671 364 L 620 364" stroke-miterlimit="10"/></g><g transform="translate(-62,-214) scale(1,1)"><path fill="none" stroke="#000000" d="M 630.1626748576241 359.790482243984 L 620 364 L 630.1626748576241 368.209517756016" stroke-miterlimit="10"/></g><g transform="translate(-62,-214) scale(1,1)"><path fill="none" stroke="#000000" d="M 160 344 L 160 280 L 720 280 L 720 344" stroke-miterlimit="10"/></g><g transform="translate(-62,-214) scale(1,1)"><path fill="none" stroke="#000000" d="M 715.790482243984 333.83732514237585 L 720 344 L 724.209517756016 333.83732514237585" stroke-miterlimit="10"/></g><g transform="translate(-62,-214) scale(1,1)"><path fill="none" stroke="#000000" d="M 568 344 L 568 296 L 192 296 L 192 344" stroke-miterlimit="10"/></g><g transform="translate(-62,-214) scale(1,1)"><path fill="none" stroke="#000000" d="M 187.790482243984 333.83732514237585 L 192 344 L 196.209517756016 333.83732514237585" stroke-miterlimit="10"/></g><g transform="translate(-62,-214) scale(1,1)"><path fill="#C0C0C0" stroke="none" d="M 1049 751 L 1128.263671875 751 Q 1138.263671875 751 1138.263671875 761 L 1138.263671875 781 Q 1138.263671875 791 1128.263671875 791 L 1049 791 Q 1039 791 1039 781 L 1039 761 Q 1039 751 1049 751 Z" opacity="0.2"/></g><g transform="translate(-62,-214) scale(1,1)"><path fill="#d8e5ff" stroke="none" d="M 1042 744 L 1121.263671875 744 Q 1131.263671875 744 1131.263671875 754 L 1131.263671875 774 Q 1131.263671875 784 1121.263671875 784 L 1042 784 Q 1032 784 1032 774 L 1032 754 Q 1032 744 1042 744 Z"/></g><g transform="translate(-62,-214) scale(1,1)"><path fill="none" stroke="#000000" d="M 1042 744 L 1121.263671875 744 Q 1131.263671875 744 1131.263671875 754 L 1131.263671875 774 Q 1131.263671875 784 1121.263671875 784 L 1042 784 Q 1032 784 1032 774 L 1032 754 Q 1032 744 1042 744 Z" stroke-miterlimit="10"/></g><g transform="translate(-62,-214) scale(1,1)"><g><path fill="none" stroke="none"/><text fill="#000000" stroke="none" font-family="Arial" font-size="13px" font-style="normal" font-weight="bold" text-decoration="none" x="1054.885986328125" y="762">Services</text></g></g><g transform="translate(-62,-214) scale(1,1)"><path fill="#C0C0C0" stroke="none" d="M 1137 823 L 1216.263671875 823 Q 1226.263671875 823 1226.263671875 833 L 1226.263671875 853 Q 1226.263671875 863 1216.263671875 863 L 1137 863 Q 1127 863 1127 853 L 1127 833 Q 1127 823 1137 823 Z" opacity="0.2"/></g><g transform="translate(-62,-214) scale(1,1)"><path fill="#d8e5ff" stroke="none" d="M 1130 816 L 1209.263671875 816 Q 1219.263671875 816 1219.263671875 826 L 1219.263671875 846 Q 1219.263671875 856 1209.263671875 856 L 1130 856 Q 1120 856 1120 846 L 1120 826 Q 1120 816 1130 816 Z"/></g><g transform="translate(-62,-214) scale(1,1)"><path fill="none" stroke="#000000" d="M 1130 816 L 1209.263671875 816 Q 1219.263671875 816 1219.263671875 826 L 1219.263671875 846 Q 1219.263671875 856 1209.263671875 856 L 1130 856 Q 1120 856 1120 846 L 1120 826 Q 1120 816 1130 816 Z" stroke-miterlimit="10"/></g><g transform="translate(-62,-214) scale(1,1)"><g><path fill="none" stroke="none"/><text fill="#000000" stroke="none" font-family="Arial" font-size="13px" font-style="normal" font-weight="bold" text-decoration="none" x="1129.555908203125" y="834">Appointment</text></g></g><g transform="translate(-62,-214) scale(1,1)"><path fill="#C0C0C0" stroke="none" d="M 1137 891 L 1216.263671875 891 Q 1226.263671875 891 1226.263671875 901 L 1226.263671875 921 Q 1226.263671875 931 1216.263671875 931 L 1137 931 Q 1127 931 1127 921 L 1127 901 Q 1127 891 1137 891 Z" opacity="0.2"/></g><g transform="translate(-62,-214) scale(1,1)"><path fill="#d8e5ff" stroke="none" d="M 1130 884 L 1209.263671875 884 Q 1219.263671875 884 1219.263671875 894 L 1219.263671875 914 Q 1219.263671875 924 1209.263671875 924 L 1130 924 Q 1120 924 1120 914 L 1120 894 Q 1120 884 1130 884 Z"/></g><g transform="translate(-62,-214) scale(1,1)"><path fill="none" stroke="#000000" d="M 1130 884 L 1209.263671875 884 Q 1219.263671875 884 1219.263671875 894 L 1219.263671875 914 Q 1219.263671875 924 1209.263671875 924 L 1130 924 Q 1120 924 1120 914 L 1120 894 Q 1120 884 1130 884 Z" stroke-miterlimit="10"/></g><g transform="translate(-62,-214) scale(1,1)"><g><path fill="none" stroke="none"/><text fill="#000000" stroke="none" font-family="Arial" font-size="13px" font-style="normal" font-weight="bold" text-decoration="none" x="1141.81640625" y="902">Bargains</text></g></g><g transform="translate(-62,-214) scale(1,1)"><path fill="#C0C0C0" stroke="none" d="M 1137 959 L 1216.263671875 959 Q 1226.263671875 959 1226.263671875 969 L 1226.263671875 989 Q 1226.263671875 999 1216.263671875 999 L 1137 999 Q 1127 999 1127 989 L 1127 969 Q 1127 959 1137 959 Z" opacity="0.2"/></g><g transform="translate(-62,-214) scale(1,1)"><path fill="#d8e5ff" stroke="none" d="M 1130 952 L 1209.263671875 952 Q 1219.263671875 952 1219.263671875 962 L 1219.263671875 982 Q 1219.263671875 992 1209.263671875 992 L 1130 992 Q 1120 992 1120 982 L 1120 962 Q 1120 952 1130 952 Z"/></g><g transform="translate(-62,-214) scale(1,1)"><path fill="none" stroke="#000000" d="M 1130 952 L 1209.263671875 952 Q 1219.263671875 952 1219.263671875 962 L 1219.263671875 982 Q 1219.263671875 992 1209.263671875 992 L 1130 992 Q 1120 992 1120 982 L 1120 962 Q 1120 952 1130 952 Z" stroke-miterlimit="10"/></g><g transform="translate(-62,-214) scale(1,1)"><g><path fill="none" stroke="none"/><text fill="#000000" stroke="none" font-family="Arial" font-size="13px" font-style="normal" font-weight="bold" text-decoration="none" x="1140.73095703125" y="970">Novelties</text></g></g><g transform="translate(-62,-214) scale(1,1)"><path fill="#C0C0C0" stroke="none" d="M 1137 1027 L 1216.263671875 1027 Q 1226.263671875 1027 1226.263671875 1037 L 1226.263671875 1057 Q 1226.263671875 1067 1216.263671875 1067 L 1137 1067 Q 1127 1067 1127 1057 L 1127 1037 Q 1127 1027 1137 1027 Z" opacity="0.2"/></g><g transform="translate(-62,-214) scale(1,1)"><path fill="#d8e5ff" stroke="none" d="M 1130 1020 L 1209.263671875 1020 Q 1219.263671875 1020 1219.263671875 1030 L 1219.263671875 1050 Q 1219.263671875 1060 1209.263671875 1060 L 1130 1060 Q 1120 1060 1120 1050 L 1120 1030 Q 1120 1020 1130 1020 Z"/></g><g transform="translate(-62,-214) scale(1,1)"><path fill="none" stroke="#000000" d="M 1130 1020 L 1209.263671875 1020 Q 1219.263671875 1020 1219.263671875 1030 L 1219.263671875 1050 Q 1219.263671875 1060 1209.263671875 1060 L 1130 1060 Q 1120 1060 1120 1050 L 1120 1030 Q 1120 1020 1130 1020 Z" stroke-miterlimit="10"/></g><g transform="translate(-62,-214) scale(1,1)"><g><path fill="none" stroke="none"/><text fill="#000000" stroke="none" font-family="Arial" font-size="13px" font-style="normal" font-weight="bold" text-decoration="none" x="1140.746826171875" y="1038">About Us</text></g></g><g transform="translate(-62,-214) scale(1,1)"><path fill="#C0C0C0" stroke="none" d="M 1137 1095 L 1216.263671875 1095 Q 1226.263671875 1095 1226.263671875 1105 L 1226.263671875 1125 Q 1226.263671875 1135 1216.263671875 1135 L 1137 1135 Q 1127 1135 1127 1125 L 1127 1105 Q 1127 1095 1137 1095 Z" opacity="0.2"/></g><g transform="translate(-62,-214) scale(1,1)"><path fill="#d8e5ff" stroke="none" d="M 1130 1088 L 1209.263671875 1088 Q 1219.263671875 1088 1219.263671875 1098 L 1219.263671875 1118 Q 1219.263671875 1128 1209.263671875 1128 L 1130 1128 Q 1120 1128 1120 1118 L 1120 1098 Q 1120 1088 1130 1088 Z"/></g><g transform="translate(-62,-214) scale(1,1)"><path fill="none" stroke="#000000" d="M 1130 1088 L 1209.263671875 1088 Q 1219.263671875 1088 1219.263671875 1098 L 1219.263671875 1118 Q 1219.263671875 1128 1209.263671875 1128 L 1130 1128 Q 1120 1128 1120 1118 L 1120 1098 Q 1120 1088 1130 1088 Z" stroke-miterlimit="10"/></g><g transform="translate(-62,-214) scale(1,1)"><g><path fill="none" stroke="none"/><text fill="#000000" stroke="none" font-family="Arial" font-size="13px" font-style="normal" font-weight="bold" text-decoration="none" x="1145.437744140625" y="1106">Contact</text></g></g><g transform="translate(-62,-214) scale(1,1)"><path fill="none" stroke="#000000" d="M 1080 784 L 1080 836 L 1120 836" stroke-miterlimit="10"/></g><g transform="translate(-62,-214) scale(1,1)"><path fill="none" stroke="#000000" d="M 1109.837325142376 840.209517756016 L 1120 836 L 1109.837325142376 831.790482243984" stroke-miterlimit="10"/></g><g transform="translate(-62,-214) scale(1,1)"><path fill="none" stroke="#000000" d="M 1080 784 L 1080 904 L 1120 904" stroke-miterlimit="10"/></g><g transform="translate(-62,-214) scale(1,1)"><path fill="none" stroke="#000000" d="M 1109.837325142376 908.209517756016 L 1120 904 L 1109.837325142376 899.790482243984" stroke-miterlimit="10"/></g><g transform="translate(-62,-214) scale(1,1)"><path fill="none" stroke="#000000" d="M 1080 784 L 1080 972 L 1120 972" stroke-miterlimit="10"/></g><g transform="translate(-62,-214) scale(1,1)"><path fill="none" stroke="#000000" d="M 1109.837325142376 976.209517756016 L 1120 972 L 1109.837325142376 967.790482243984" stroke-miterlimit="10"/></g><g transform="translate(-62,-214) scale(1,1)"><path fill="none" stroke="#000000" d="M 1080 784 L 1080 1040 L 1120 1040" stroke-miterlimit="10"/></g><g transform="translate(-62,-214) scale(1,1)"><path fill="none" stroke="#000000" d="M 1109.837325142376 1044.2095177560159 L 1120 1040 L 1109.837325142376 1035.7904822439841" stroke-miterlimit="10"/></g><g transform="translate(-62,-214) scale(1,1)"><path fill="none" stroke="#000000" d="M 1080 784 L 1080 1108 L 1120 1108" stroke-miterlimit="10"/></g><g transform="translate(-62,-214) scale(1,1)"><path fill="none" stroke="#000000" d="M 1109.837325142376 1112.2095177560159 L 1120 1108 L 1109.837325142376 1103.7904822439841" stroke-miterlimit="10"/></g><g transform="translate(-62,-214) scale(1,1)"><path fill="none" stroke="#000000" d="M 1120 1108 L 1080 1108 L 1080 784" stroke-miterlimit="10"/></g><g transform="translate(-62,-214) scale(1,1)"><path fill="none" stroke="#000000" d="M 1084.2095177560159 794.1626748576241 L 1080 784 L 1075.7904822439841 794.1626748576241" stroke-miterlimit="10"/></g><g transform="translate(-62,-214) scale(1,1)"><g><path fill="none" stroke="none"/><text fill="#000000" stroke="none" font-family="Arial" font-size="20px" font-style="normal" font-weight="normal" text-decoration="none" x="1061" y="1172">Services Map</text></g></g></g></svg>