<svg xmlns="http://www.w3.org/2000/svg" xmlns:xlink="http://www.w3.org/1999/xlink" version="1.1" width="268" height="156"><defs/><g><g transform="translate(-182,-238) scale(1,1)"><rect fill="#ffffff" stroke="none" x="192" y="248" width="248" height="136"/></g><g transform="translate(-182,-238) scale(1,1)"><path fill="none" stroke="#000000" d="M 192 248 L 440 248 L 440 384 L 192 384 L 192 248 Z Z" stroke-miterlimit="10"/></g><g transform="translate(-182,-238) scale(1,1)"><path fill="#C0C0C0" stroke="none" d="M 233 319 L 293 319 Q 303 319 303 329 L 303 349 Q 303 359 293 359 L 233 359 Q 223 359 223 349 L 223 329 Q 223 319 233 319 Z" opacity="0.2"/></g><g transform="translate(-182,-238) scale(1,1)"><path fill="#ffd8d8" stroke="none" d="M 226 312 L 286 312 Q 296 312 296 322 L 296 342 Q 296 352 286 352 L 226 352 Q 216 352 216 342 L 216 322 Q 216 312 226 312 Z"/></g><g transform="translate(-182,-238) scale(1,1)"><path fill="none" stroke="#000000" d="M 226 312 L 286 312 Q 296 312 296 322 L 296 342 Q 296 352 286 352 L 226 352 Q 216 352 216 342 L 216 322 Q 216 312 226 312 Z" stroke-miterlimit="10"/></g><g transform="translate(-182,-238) scale(1,1)"><g><path fill="none" stroke="none"/><text fill="#000000" stroke="none" font-family="Arial" font-size="13px" font-style="normal" font-weight="bold" text-decoration="none" x="240.10546875" y="330">Error</text></g></g><g transform="translate(-182,-238) scale(1,1)"><path fill="#C0C0C0" stroke="none" d="M 329 319 L 414.79541015625 319 Q 424.79541015625 319 424.79541015625 329 L 424.79541015625 349 Q 424.79541015625 359 414.79541015625 359 L 329 359 Q 319 359 319 349 L 319 329 Q 319 319 329 319 Z" opacity="0.2"/></g><g transform="translate(-182,-238) scale(1,1)"><path fill="#ffd8d8" stroke="none" d="M 322 312 L 407.79541015625 312 Q 417.79541015625 312 417.79541015625 322 L 417.79541015625 342 Q 417.79541015625 352 407.79541015625 352 L 322 352 Q 312 352 312 342 L 312 322 Q 312 312 322 312 Z"/></g><g transform="translate(-182,-238) scale(1,1)"><path fill="none" stroke="#000000" d="M 322 312 L 407.79541015625 312 Q 417.79541015625 312 417.79541015625 322 L 417.79541015625 342 Q 417.79541015625 352 407.79541015625 352 L 322 352 Q 312 352 312 342 L 312 322 Q 312 312 322 312 Z" stroke-miterlimit="10"/></g><g transform="translate(-182,-238) scale(1,1)"><g><path fill="none" stroke="none"/><text fill="#000000" stroke="none" font-family="Arial" font-size="13px" font-style="normal" font-weight="bold" text-decoration="none" x="316.5" y="330">In Development</text></g></g><g transform="translate(-182,-238) scale(1,1)"><g><path fill="none" stroke="none"/><text fill="#000000" stroke="none" font-family="Times New Roman" font-size="20px" font-style="normal" font-weight="normal" text-decoration="none" x="261" y="283">Special Pages</text></g></g></g></svg>