<svg xmlns="http://www.w3.org/2000/svg" xmlns:xlink="http://www.w3.org/1999/xlink" version="1.1" width="779" height="519"><defs/><g><g transform="translate(-142,-78) scale(1,1)"><rect fill="#ffffff" stroke="none" x="152" y="88" width="759" height="487"/></g><g transform="translate(-142,-78) scale(1,1)"><path fill="none" stroke="#000000" d="M 152 88 L 911 88 L 911 575 L 152 575 L 152 88 Z Z" stroke-miterlimit="10"/></g><g transform="translate(-142,-78) scale(1,1)"><path fill="#C0C0C0" stroke="none" d="M 260 424.5 C 260 419.2532944 264.2532944 415 269.5 415 C 274.7467056 415 279 419.2532944 279 424.5 C 279 429.7467056 274.7467056 434 269.5 434 C 264.2532944 434 260 429.7467056 260 424.5 Z" opacity="0.2"/></g><g transform="translate(-142,-78) scale(1,1)"><path fill="#000000" stroke="none" d="M 253 417.5 C 253 412.2532944 257.2532944 408 262.5 408 C 267.7467056 408 272 412.2532944 272 417.5 C 272 422.7467056 267.7467056 427 262.5 427 C 257.2532944 427 253 422.7467056 253 417.5 Z"/></g><g transform="translate(-142,-78) scale(1,1)"><path fill="#C0C0C0" stroke="none" d="M 219 324 L 319.95361328125 324 Q 329.95361328125 324 329.95361328125 334 L 329.95361328125 354 Q 329.95361328125 364 319.95361328125 364 L 219 364 Q 209 364 209 354 L 209 334 Q 209 324 219 324 Z" opacity="0.2"/></g><g transform="translate(-142,-78) scale(1,1)"><path fill="#d8e5ff" stroke="none" d="M 212 317 L 312.95361328125 317 Q 322.95361328125 317 322.95361328125 327 L 322.95361328125 347 Q 322.95361328125 357 312.95361328125 357 L 212 357 Q 202 357 202 347 L 202 327 Q 202 317 212 317 Z"/></g><g transform="translate(-142,-78) scale(1,1)"><path fill="none" stroke="#000000" d="M 212 317 L 312.95361328125 317 Q 322.95361328125 317 322.95361328125 327 L 322.95361328125 347 Q 322.95361328125 357 312.95361328125 357 L 212 357 Q 202 357 202 347 L 202 327 Q 202 317 212 317 Z" stroke-miterlimit="10"/></g><g transform="translate(-142,-78) scale(1,1)"><g><path fill="none" stroke="none"/><text fill="#000000" stroke="none" font-family="Arial" font-size="13px" font-style="normal" font-weight="bold" text-decoration="none" x="244.417724609375" y="335">Home</text></g></g><g transform="translate(-142,-78) scale(1,1)"><path fill="#C0C0C0" stroke="none" d="M 219 142 L 319.95361328125 142 Q 329.95361328125 142 329.95361328125 152 L 329.95361328125 172 Q 329.95361328125 182 319.95361328125 182 L 219 182 Q 209 182 209 172 L 209 152 Q 209 142 219 142 Z" opacity="0.2"/></g><g transform="translate(-142,-78) scale(1,1)"><path fill="#ffd8ff" stroke="none" d="M 212 135 L 312.95361328125 135 Q 322.95361328125 135 322.95361328125 145 L 322.95361328125 165 Q 322.95361328125 175 312.95361328125 175 L 212 175 Q 202 175 202 165 L 202 145 Q 202 135 212 135 Z"/></g><g transform="translate(-142,-78) scale(1,1)"><path fill="none" stroke="#000000" d="M 212 135 L 312.95361328125 135 Q 322.95361328125 135 322.95361328125 145 L 322.95361328125 165 Q 322.95361328125 175 312.95361328125 175 L 212 175 Q 202 175 202 165 L 202 145 Q 202 135 212 135 Z" stroke-miterlimit="10"/></g><g transform="translate(-142,-78) scale(1,1)"><g><path fill="none" stroke="none"/><text fill="#000000" stroke="none" font-family="Arial" font-size="13px" font-style="normal" font-weight="bold" text-decoration="none" x="206.5" y="153">Admin Dashboard</text></g></g><g transform="translate(-142,-78) scale(1,1)"><path fill="#C0C0C0" stroke="none" d="M 219 233 L 319.95361328125 233 Q 329.95361328125 233 329.95361328125 243 L 329.95361328125 263 Q 329.95361328125 273 319.95361328125 273 L 219 273 Q 209 273 209 263 L 209 243 Q 209 233 219 233 Z" opacity="0.2"/></g><g transform="translate(-142,-78) scale(1,1)"><path fill="#ebffd8" stroke="none" d="M 212 226 L 312.95361328125 226 Q 322.95361328125 226 322.95361328125 236 L 322.95361328125 256 Q 322.95361328125 266 312.95361328125 266 L 212 266 Q 202 266 202 256 L 202 236 Q 202 226 212 226 Z"/></g><g transform="translate(-142,-78) scale(1,1)"><path fill="none" stroke="#000000" d="M 212 226 L 312.95361328125 226 Q 322.95361328125 226 322.95361328125 236 L 322.95361328125 256 Q 322.95361328125 266 312.95361328125 266 L 212 266 Q 202 266 202 256 L 202 236 Q 202 226 212 226 Z" stroke-miterlimit="10"/></g><g transform="translate(-142,-78) scale(1,1)"><g><path fill="none" stroke="none"/><text fill="#000000" stroke="none" font-family="Arial" font-size="13px" font-style="normal" font-weight="bold" text-decoration="none" x="242.25" y="244">Profile</text></g></g><g transform="translate(-142,-78) scale(1,1)"><path fill="none" stroke="#000000" d="M 264 317 L 264 266" stroke-miterlimit="10"/></g><g transform="translate(-142,-78) scale(1,1)"><path fill="none" stroke="#000000" d="M 268.209517756016 276.16267485762415 L 264 266 L 259.790482243984 276.16267485762415" stroke-miterlimit="10"/></g><g transform="translate(-142,-78) scale(1,1)"><path fill="none" stroke="#000000" d="M 264 266 L 264 317" stroke-miterlimit="10"/></g><g transform="translate(-142,-78) scale(1,1)"><path fill="none" stroke="#000000" d="M 259.790482243984 306.83732514237585 L 264 317 L 268.209517756016 306.83732514237585" stroke-miterlimit="10"/></g><g transform="translate(-142,-78) scale(1,1)"><path fill="#C0C0C0" stroke="none" d="M 401 142 L 501.95361328125 142 Q 511.95361328125 142 511.95361328125 152 L 511.95361328125 172 Q 511.95361328125 182 501.95361328125 182 L 401 182 Q 391 182 391 172 L 391 152 Q 391 142 401 142 Z" opacity="0.2"/></g><g transform="translate(-142,-78) scale(1,1)"><path fill="#ffd8ff" stroke="none" d="M 394 135 L 494.95361328125 135 Q 504.95361328125 135 504.95361328125 145 L 504.95361328125 165 Q 504.95361328125 175 494.95361328125 175 L 394 175 Q 384 175 384 165 L 384 145 Q 384 135 394 135 Z"/></g><g transform="translate(-142,-78) scale(1,1)"><path fill="none" stroke="#000000" d="M 394 135 L 494.95361328125 135 Q 504.95361328125 135 504.95361328125 145 L 504.95361328125 165 Q 504.95361328125 175 494.95361328125 175 L 394 175 Q 384 175 384 165 L 384 145 Q 384 135 394 135 Z" stroke-miterlimit="10"/></g><g transform="translate(-142,-78) scale(1,1)"><g><path fill="none" stroke="none"/><text fill="#000000" stroke="none" font-family="Arial" font-size="13px" font-style="normal" font-weight="bold" text-decoration="none" x="406.194091796875" y="153">All Products</text></g></g><g transform="translate(-142,-78) scale(1,1)"><path fill="#C0C0C0" stroke="none" d="M 580 142 L 680.95361328125 142 Q 690.95361328125 142 690.95361328125 152 L 690.95361328125 172 Q 690.95361328125 182 680.95361328125 182 L 580 182 Q 570 182 570 172 L 570 152 Q 570 142 580 142 Z" opacity="0.2"/></g><g transform="translate(-142,-78) scale(1,1)"><path fill="#ffa3ff" stroke="none" d="M 573 135 L 673.95361328125 135 Q 683.95361328125 135 683.95361328125 145 L 683.95361328125 165 Q 683.95361328125 175 673.95361328125 175 L 573 175 Q 563 175 563 165 L 563 145 Q 563 135 573 135 Z"/></g><g transform="translate(-142,-78) scale(1,1)"><path fill="none" stroke="#000000" d="M 573 135 L 673.95361328125 135 Q 683.95361328125 135 683.95361328125 145 L 683.95361328125 165 Q 683.95361328125 175 673.95361328125 175 L 573 175 Q 563 175 563 165 L 563 145 Q 563 135 573 135 Z" stroke-miterlimit="10"/></g><g transform="translate(-142,-78) scale(1,1)"><g><path fill="none" stroke="none"/><text fill="#000000" stroke="none" font-family="Arial" font-size="13px" font-style="normal" font-weight="bold" text-decoration="none" x="578.344970703125" y="153">About Product</text></g></g><g transform="translate(-142,-78) scale(1,1)"><path fill="#C0C0C0" stroke="none" d="M 759 142 L 859.95361328125 142 Q 869.95361328125 142 869.95361328125 152 L 869.95361328125 172 Q 869.95361328125 182 859.95361328125 182 L 759 182 Q 749 182 749 172 L 749 152 Q 749 142 759 142 Z" opacity="0.2"/></g><g transform="translate(-142,-78) scale(1,1)"><path fill="#ffa3ff" stroke="none" d="M 752 135 L 852.95361328125 135 Q 862.95361328125 135 862.95361328125 145 L 862.95361328125 165 Q 862.95361328125 175 852.95361328125 175 L 752 175 Q 742 175 742 165 L 742 145 Q 742 135 752 135 Z"/></g><g transform="translate(-142,-78) scale(1,1)"><path fill="none" stroke="#000000" d="M 752 135 L 852.95361328125 135 Q 862.95361328125 135 862.95361328125 145 L 862.95361328125 165 Q 862.95361328125 175 852.95361328125 175 L 752 175 Q 742 175 742 165 L 742 145 Q 742 135 752 135 Z" stroke-miterlimit="10"/></g><g transform="translate(-142,-78) scale(1,1)"><g><path fill="none" stroke="none"/><text fill="#000000" stroke="none" font-family="Arial" font-size="13px" font-style="normal" font-weight="bold" text-decoration="none" x="754.08544921875" y="153">Update Product</text></g></g><g transform="translate(-142,-78) scale(1,1)"><path fill="#C0C0C0" stroke="none" d="M 580 215 L 680.95361328125 215 Q 690.95361328125 215 690.95361328125 225 L 690.95361328125 245 Q 690.95361328125 255 680.95361328125 255 L 580 255 Q 570 255 570 245 L 570 225 Q 570 215 580 215 Z" opacity="0.2"/></g><g transform="translate(-142,-78) scale(1,1)"><path fill="#ffa3ff" stroke="none" d="M 573 208 L 673.95361328125 208 Q 683.95361328125 208 683.95361328125 218 L 683.95361328125 238 Q 683.95361328125 248 673.95361328125 248 L 573 248 Q 563 248 563 238 L 563 218 Q 563 208 573 208 Z"/></g><g transform="translate(-142,-78) scale(1,1)"><path fill="none" stroke="#000000" d="M 573 208 L 673.95361328125 208 Q 683.95361328125 208 683.95361328125 218 L 683.95361328125 238 Q 683.95361328125 248 673.95361328125 248 L 573 248 Q 563 248 563 238 L 563 218 Q 563 208 573 208 Z" stroke-miterlimit="10"/></g><g transform="translate(-142,-78) scale(1,1)"><g><path fill="none" stroke="none"/><text fill="#000000" stroke="none" font-family="Arial" font-size="13px" font-style="normal" font-weight="bold" text-decoration="none" x="576.8818359375" y="226">Create Product</text></g></g><g transform="translate(-142,-78) scale(1,1)"><path fill="#C0C0C0" stroke="none" d="M 401 286 L 501.95361328125 286 Q 511.95361328125 286 511.95361328125 296 L 511.95361328125 316 Q 511.95361328125 326 501.95361328125 326 L 401 326 Q 391 326 391 316 L 391 296 Q 391 286 401 286 Z" opacity="0.2"/></g><g transform="translate(-142,-78) scale(1,1)"><path fill="#ffd8ff" stroke="none" d="M 394 279 L 494.95361328125 279 Q 504.95361328125 279 504.95361328125 289 L 504.95361328125 309 Q 504.95361328125 319 494.95361328125 319 L 394 319 Q 384 319 384 309 L 384 289 Q 384 279 394 279 Z"/></g><g transform="translate(-142,-78) scale(1,1)"><path fill="none" stroke="#000000" d="M 394 279 L 494.95361328125 279 Q 504.95361328125 279 504.95361328125 289 L 504.95361328125 309 Q 504.95361328125 319 494.95361328125 319 L 394 319 Q 384 319 384 309 L 384 289 Q 384 279 394 279 Z" stroke-miterlimit="10"/></g><g transform="translate(-142,-78) scale(1,1)"><g><path fill="none" stroke="none"/><text fill="#000000" stroke="none" font-family="Arial" font-size="13px" font-style="normal" font-weight="bold" text-decoration="none" x="406.549560546875" y="297">All Bargains</text></g></g><g transform="translate(-142,-78) scale(1,1)"><path fill="#C0C0C0" stroke="none" d="M 401 430 L 501.95361328125 430 Q 511.95361328125 430 511.95361328125 440 L 511.95361328125 460 Q 511.95361328125 470 501.95361328125 470 L 401 470 Q 391 470 391 460 L 391 440 Q 391 430 401 430 Z" opacity="0.2"/></g><g transform="translate(-142,-78) scale(1,1)"><path fill="#ffd8ff" stroke="none" d="M 394 423 L 494.95361328125 423 Q 504.95361328125 423 504.95361328125 433 L 504.95361328125 453 Q 504.95361328125 463 494.95361328125 463 L 394 463 Q 384 463 384 453 L 384 433 Q 384 423 394 423 Z"/></g><g transform="translate(-142,-78) scale(1,1)"><path fill="none" stroke="#000000" d="M 394 423 L 494.95361328125 423 Q 504.95361328125 423 504.95361328125 433 L 504.95361328125 453 Q 504.95361328125 463 494.95361328125 463 L 394 463 Q 384 463 384 453 L 384 433 Q 384 423 394 423 Z" stroke-miterlimit="10"/></g><g transform="translate(-142,-78) scale(1,1)"><g><path fill="none" stroke="none"/><text fill="#000000" stroke="none" font-family="Arial" font-size="13px" font-style="normal" font-weight="bold" text-decoration="none" x="405.464111328125" y="441">All Novelties</text></g></g><g transform="translate(-142,-78) scale(1,1)"><path fill="#C0C0C0" stroke="none" d="M 580 286 L 680.95361328125 286 Q 690.95361328125 286 690.95361328125 296 L 690.95361328125 316 Q 690.95361328125 326 680.95361328125 326 L 580 326 Q 570 326 570 316 L 570 296 Q 570 286 580 286 Z" opacity="0.2"/></g><g transform="translate(-142,-78) scale(1,1)"><path fill="#ffa3ff" stroke="none" d="M 573 279 L 673.95361328125 279 Q 683.95361328125 279 683.95361328125 289 L 683.95361328125 309 Q 683.95361328125 319 673.95361328125 319 L 573 319 Q 563 319 563 309 L 563 289 Q 563 279 573 279 Z"/></g><g transform="translate(-142,-78) scale(1,1)"><path fill="none" stroke="#000000" d="M 573 279 L 673.95361328125 279 Q 683.95361328125 279 683.95361328125 289 L 683.95361328125 309 Q 683.95361328125 319 673.95361328125 319 L 573 319 Q 563 319 563 309 L 563 289 Q 563 279 573 279 Z" stroke-miterlimit="10"/></g><g transform="translate(-142,-78) scale(1,1)"><g><path fill="none" stroke="none"/><text fill="#000000" stroke="none" font-family="Arial" font-size="13px" font-style="normal" font-weight="bold" text-decoration="none" x="578.700439453125" y="297">About Bargain</text></g></g><g transform="translate(-142,-78) scale(1,1)"><path fill="#C0C0C0" stroke="none" d="M 761 286 L 861.95361328125 286 Q 871.95361328125 286 871.95361328125 296 L 871.95361328125 316 Q 871.95361328125 326 861.95361328125 326 L 761 326 Q 751 326 751 316 L 751 296 Q 751 286 761 286 Z" opacity="0.2"/></g><g transform="translate(-142,-78) scale(1,1)"><path fill="#ffa3ff" stroke="none" d="M 754 279 L 854.95361328125 279 Q 864.95361328125 279 864.95361328125 289 L 864.95361328125 309 Q 864.95361328125 319 854.95361328125 319 L 754 319 Q 744 319 744 309 L 744 289 Q 744 279 754 279 Z"/></g><g transform="translate(-142,-78) scale(1,1)"><path fill="none" stroke="#000000" d="M 754 279 L 854.95361328125 279 Q 864.95361328125 279 864.95361328125 289 L 864.95361328125 309 Q 864.95361328125 319 854.95361328125 319 L 754 319 Q 744 319 744 309 L 744 289 Q 744 279 754 279 Z" stroke-miterlimit="10"/></g><g transform="translate(-142,-78) scale(1,1)"><g><path fill="none" stroke="none"/><text fill="#000000" stroke="none" font-family="Arial" font-size="13px" font-style="normal" font-weight="bold" text-decoration="none" x="756.44091796875" y="297">Update Bargain</text></g></g><g transform="translate(-142,-78) scale(1,1)"><path fill="#C0C0C0" stroke="none" d="M 580 359 L 680.95361328125 359 Q 690.95361328125 359 690.95361328125 369 L 690.95361328125 389 Q 690.95361328125 399 680.95361328125 399 L 580 399 Q 570 399 570 389 L 570 369 Q 570 359 580 359 Z" opacity="0.2"/></g><g transform="translate(-142,-78) scale(1,1)"><path fill="#ffa3ff" stroke="none" d="M 573 352 L 673.95361328125 352 Q 683.95361328125 352 683.95361328125 362 L 683.95361328125 382 Q 683.95361328125 392 673.95361328125 392 L 573 392 Q 563 392 563 382 L 563 362 Q 563 352 573 352 Z"/></g><g transform="translate(-142,-78) scale(1,1)"><path fill="none" stroke="#000000" d="M 573 352 L 673.95361328125 352 Q 683.95361328125 352 683.95361328125 362 L 683.95361328125 382 Q 683.95361328125 392 673.95361328125 392 L 573 392 Q 563 392 563 382 L 563 362 Q 563 352 573 352 Z" stroke-miterlimit="10"/></g><g transform="translate(-142,-78) scale(1,1)"><g><path fill="none" stroke="none"/><text fill="#000000" stroke="none" font-family="Arial" font-size="13px" font-style="normal" font-weight="bold" text-decoration="none" x="577.2373046875" y="370">Create Bargain</text></g></g><g transform="translate(-142,-78) scale(1,1)"><path fill="#C0C0C0" stroke="none" d="M 580 430 L 680.95361328125 430 Q 690.95361328125 430 690.95361328125 440 L 690.95361328125 460 Q 690.95361328125 470 680.95361328125 470 L 580 470 Q 570 470 570 460 L 570 440 Q 570 430 580 430 Z" opacity="0.2"/></g><g transform="translate(-142,-78) scale(1,1)"><path fill="#ffa3ff" stroke="none" d="M 573 423 L 673.95361328125 423 Q 683.95361328125 423 683.95361328125 433 L 683.95361328125 453 Q 683.95361328125 463 673.95361328125 463 L 573 463 Q 563 463 563 453 L 563 433 Q 563 423 573 423 Z"/></g><g transform="translate(-142,-78) scale(1,1)"><path fill="none" stroke="#000000" d="M 573 423 L 673.95361328125 423 Q 683.95361328125 423 683.95361328125 433 L 683.95361328125 453 Q 683.95361328125 463 673.95361328125 463 L 573 463 Q 563 463 563 453 L 563 433 Q 563 423 573 423 Z" stroke-miterlimit="10"/></g><g transform="translate(-142,-78) scale(1,1)"><g><path fill="none" stroke="none"/><text fill="#000000" stroke="none" font-family="Arial" font-size="13px" font-style="normal" font-weight="bold" text-decoration="none" x="579.4208984375" y="441">About Novelty</text></g></g><g transform="translate(-142,-78) scale(1,1)"><path fill="#C0C0C0" stroke="none" d="M 761 430 L 861.95361328125 430 Q 871.95361328125 430 871.95361328125 440 L 871.95361328125 460 Q 871.95361328125 470 861.95361328125 470 L 761 470 Q 751 470 751 460 L 751 440 Q 751 430 761 430 Z" opacity="0.2"/></g><g transform="translate(-142,-78) scale(1,1)"><path fill="#ffa3ff" stroke="none" d="M 754 423 L 854.95361328125 423 Q 864.95361328125 423 864.95361328125 433 L 864.95361328125 453 Q 864.95361328125 463 854.95361328125 463 L 754 463 Q 744 463 744 453 L 744 433 Q 744 423 754 423 Z"/></g><g transform="translate(-142,-78) scale(1,1)"><path fill="none" stroke="#000000" d="M 754 423 L 854.95361328125 423 Q 864.95361328125 423 864.95361328125 433 L 864.95361328125 453 Q 864.95361328125 463 854.95361328125 463 L 754 463 Q 744 463 744 453 L 744 433 Q 744 423 754 423 Z" stroke-miterlimit="10"/></g><g transform="translate(-142,-78) scale(1,1)"><g><path fill="none" stroke="none"/><text fill="#000000" stroke="none" font-family="Arial" font-size="13px" font-style="normal" font-weight="bold" text-decoration="none" x="757.161376953125" y="441">Update Novelty</text></g></g><g transform="translate(-142,-78) scale(1,1)"><path fill="#C0C0C0" stroke="none" d="M 580 503 L 680.95361328125 503 Q 690.95361328125 503 690.95361328125 513 L 690.95361328125 533 Q 690.95361328125 543 680.95361328125 543 L 580 543 Q 570 543 570 533 L 570 513 Q 570 503 580 503 Z" opacity="0.2"/></g><g transform="translate(-142,-78) scale(1,1)"><path fill="#ffa3ff" stroke="none" d="M 573 496 L 673.95361328125 496 Q 683.95361328125 496 683.95361328125 506 L 683.95361328125 526 Q 683.95361328125 536 673.95361328125 536 L 573 536 Q 563 536 563 526 L 563 506 Q 563 496 573 496 Z"/></g><g transform="translate(-142,-78) scale(1,1)"><path fill="none" stroke="#000000" d="M 573 496 L 673.95361328125 496 Q 683.95361328125 496 683.95361328125 506 L 683.95361328125 526 Q 683.95361328125 536 673.95361328125 536 L 573 536 Q 563 536 563 526 L 563 506 Q 563 496 573 496 Z" stroke-miterlimit="10"/></g><g transform="translate(-142,-78) scale(1,1)"><g><path fill="none" stroke="none"/><text fill="#000000" stroke="none" font-family="Arial" font-size="13px" font-style="normal" font-weight="bold" text-decoration="none" x="577.957763671875" y="514">Create Novelty</text></g></g><g transform="translate(-142,-78) scale(1,1)"><path fill="none" stroke="#000000" d="M 264 408 L 264 357" stroke-miterlimit="10"/></g><g transform="translate(-142,-78) scale(1,1)"><path fill="none" stroke="#000000" d="M 268.209517756016 367.16267485762415 L 264 357 L 259.790482243984 367.16267485762415" stroke-miterlimit="10"/></g><g transform="translate(-142,-78) scale(1,1)"><path fill="none" stroke="#000000" d="M 264 226 L 264 175" stroke-miterlimit="10"/></g><g transform="translate(-142,-78) scale(1,1)"><path fill="none" stroke="#000000" d="M 268.209517756016 185.16267485762415 L 264 175 L 259.790482243984 185.16267485762415" stroke-miterlimit="10"/></g><g transform="translate(-142,-78) scale(1,1)"><path fill="none" stroke="#000000" d="M 264 175 L 264 226" stroke-miterlimit="10"/></g><g transform="translate(-142,-78) scale(1,1)"><path fill="none" stroke="#000000" d="M 259.790482243984 215.83732514237585 L 264 226 L 268.209517756016 215.83732514237585" stroke-miterlimit="10"/></g><g transform="translate(-142,-78) scale(1,1)"><path fill="none" stroke="#000000" d="M 323 152 L 384 152" stroke-miterlimit="10"/></g><g transform="translate(-142,-78) scale(1,1)"><path fill="none" stroke="#000000" d="M 373.83732514237585 156.209517756016 L 384 152 L 373.83732514237585 147.790482243984" stroke-miterlimit="10"/></g><g transform="translate(-142,-78) scale(1,1)"><path fill="none" stroke="#000000" d="M 384 152 L 323 152" stroke-miterlimit="10"/></g><g transform="translate(-142,-78) scale(1,1)"><path fill="none" stroke="#000000" d="M 333.16267485762415 147.790482243984 L 323 152 L 333.16267485762415 156.209517756016" stroke-miterlimit="10"/></g><g transform="translate(-142,-78) scale(1,1)"><path fill="none" stroke="#000000" d="M 323 152 L 352 152 L 352 299 L 384 299" stroke-miterlimit="10"/></g><g transform="translate(-142,-78) scale(1,1)"><path fill="none" stroke="#000000" d="M 373.83732514237585 303.209517756016 L 384 299 L 373.83732514237585 294.790482243984" stroke-miterlimit="10"/></g><g transform="translate(-142,-78) scale(1,1)"><path fill="none" stroke="#000000" d="M 323 152 L 352 152 L 352 443 L 384 443" stroke-miterlimit="10"/></g><g transform="translate(-142,-78) scale(1,1)"><path fill="none" stroke="#000000" d="M 373.83732514237585 447.209517756016 L 384 443 L 373.83732514237585 438.790482243984" stroke-miterlimit="10"/></g><g transform="translate(-142,-78) scale(1,1)"><path fill="none" stroke="#000000" d="M 505 155 L 563 155" stroke-miterlimit="10"/></g><g transform="translate(-142,-78) scale(1,1)"><path fill="none" stroke="#000000" d="M 552.8373251423759 159.209517756016 L 563 155 L 552.8373251423758 150.790482243984" stroke-miterlimit="10"/></g><g transform="translate(-142,-78) scale(1,1)"><path fill="none" stroke="#000000" d="M 684 155 L 742 155" stroke-miterlimit="10"/></g><g transform="translate(-142,-78) scale(1,1)"><path fill="none" stroke="#000000" d="M 731.8373251423759 159.209517756016 L 742 155 L 731.8373251423758 150.790482243984" stroke-miterlimit="10"/></g><g transform="translate(-142,-78) scale(1,1)"><path fill="none" stroke="#000000" d="M 440 175 L 440 228 L 563 228" stroke-miterlimit="10"/></g><g transform="translate(-142,-78) scale(1,1)"><path fill="none" stroke="#000000" d="M 552.8373251423759 232.209517756016 L 563 228 L 552.8373251423758 223.790482243984" stroke-miterlimit="10"/></g><g transform="translate(-142,-78) scale(1,1)"><path fill="none" stroke="#000000" d="M 563 228 L 440 228 L 440 175" stroke-miterlimit="10"/></g><g transform="translate(-142,-78) scale(1,1)"><path fill="none" stroke="#000000" d="M 444.209517756016 185.16267485762415 L 440 175 L 435.790482243984 185.16267485762415" stroke-miterlimit="10"/></g><g transform="translate(-142,-78) scale(1,1)"><path fill="none" stroke="#000000" d="M 563 155 L 505 155" stroke-miterlimit="10"/></g><g transform="translate(-142,-78) scale(1,1)"><path fill="none" stroke="#000000" d="M 515.1626748576241 150.790482243984 L 505 155 L 515.1626748576241 159.209517756016" stroke-miterlimit="10"/></g><g transform="translate(-142,-78) scale(1,1)"><path fill="none" stroke="#000000" d="M 742 155 L 684 155" stroke-miterlimit="10"/></g><g transform="translate(-142,-78) scale(1,1)"><path fill="none" stroke="#000000" d="M 694.1626748576241 150.790482243984 L 684 155 L 694.1626748576241 159.209517756016" stroke-miterlimit="10"/></g><g transform="translate(-142,-78) scale(1,1)"><path fill="none" stroke="#000000" d="M 563 299 L 505 299" stroke-miterlimit="10"/></g><g transform="translate(-142,-78) scale(1,1)"><path fill="none" stroke="#000000" d="M 515.1626748576241 294.790482243984 L 505 299 L 515.1626748576241 303.209517756016" stroke-miterlimit="10"/></g><g transform="translate(-142,-78) scale(1,1)"><path fill="none" stroke="#000000" d="M 744 299 L 684 299" stroke-miterlimit="10"/></g><g transform="translate(-142,-78) scale(1,1)"><path fill="none" stroke="#000000" d="M 694.1626748576241 294.790482243984 L 684 299 L 694.1626748576241 303.209517756016" stroke-miterlimit="10"/></g><g transform="translate(-142,-78) scale(1,1)"><path fill="none" stroke="#000000" d="M 505 299 L 563 299" stroke-miterlimit="10"/></g><g transform="translate(-142,-78) scale(1,1)"><path fill="none" stroke="#000000" d="M 552.8373251423759 303.209517756016 L 563 299 L 552.8373251423758 294.790482243984" stroke-miterlimit="10"/></g><g transform="translate(-142,-78) scale(1,1)"><path fill="none" stroke="#000000" d="M 684 299 L 744 299" stroke-miterlimit="10"/></g><g transform="translate(-142,-78) scale(1,1)"><path fill="none" stroke="#000000" d="M 733.8373251423759 303.209517756016 L 744 299 L 733.8373251423758 294.790482243984" stroke-miterlimit="10"/></g><g transform="translate(-142,-78) scale(1,1)"><path fill="none" stroke="#000000" d="M 440 319 L 440 372 L 563 372" stroke-miterlimit="10"/></g><g transform="translate(-142,-78) scale(1,1)"><path fill="none" stroke="#000000" d="M 552.8373251423759 376.209517756016 L 563 372 L 552.8373251423758 367.790482243984" stroke-miterlimit="10"/></g><g transform="translate(-142,-78) scale(1,1)"><path fill="none" stroke="#000000" d="M 563 372 L 440 372 L 440 319" stroke-miterlimit="10"/></g><g transform="translate(-142,-78) scale(1,1)"><path fill="none" stroke="#000000" d="M 444.209517756016 329.16267485762415 L 440 319 L 435.790482243984 329.16267485762415" stroke-miterlimit="10"/></g><g transform="translate(-142,-78) scale(1,1)"><path fill="none" stroke="#000000" d="M 505 443 L 563 443" stroke-miterlimit="10"/></g><g transform="translate(-142,-78) scale(1,1)"><path fill="none" stroke="#000000" d="M 552.8373251423759 447.209517756016 L 563 443 L 552.8373251423758 438.790482243984" stroke-miterlimit="10"/></g><g transform="translate(-142,-78) scale(1,1)"><path fill="none" stroke="#000000" d="M 684 443 L 744 443" stroke-miterlimit="10"/></g><g transform="translate(-142,-78) scale(1,1)"><path fill="none" stroke="#000000" d="M 733.8373251423759 447.209517756016 L 744 443 L 733.8373251423758 438.790482243984" stroke-miterlimit="10"/></g><g transform="translate(-142,-78) scale(1,1)"><path fill="none" stroke="#000000" d="M 440 463 L 440 516 L 563 516" stroke-miterlimit="10"/></g><g transform="translate(-142,-78) scale(1,1)"><path fill="none" stroke="#000000" d="M 552.8373251423759 520.209517756016 L 563 516 L 552.8373251423758 511.790482243984" stroke-miterlimit="10"/></g><g transform="translate(-142,-78) scale(1,1)"><path fill="none" stroke="#000000" d="M 563 516 L 440 516 L 440 463" stroke-miterlimit="10"/></g><g transform="translate(-142,-78) scale(1,1)"><path fill="none" stroke="#000000" d="M 444.209517756016 473.16267485762415 L 440 463 L 435.790482243984 473.16267485762415" stroke-miterlimit="10"/></g><g transform="translate(-142,-78) scale(1,1)"><path fill="none" stroke="#000000" d="M 563 443 L 505 443" stroke-miterlimit="10"/></g><g transform="translate(-142,-78) scale(1,1)"><path fill="none" stroke="#000000" d="M 515.1626748576241 438.790482243984 L 505 443 L 515.1626748576241 447.209517756016" stroke-miterlimit="10"/></g><g transform="translate(-142,-78) scale(1,1)"><path fill="none" stroke="#000000" d="M 744 443 L 684 443" stroke-miterlimit="10"/></g><g transform="translate(-142,-78) scale(1,1)"><path fill="none" stroke="#000000" d="M 694.1626748576241 438.790482243984 L 684 443 L 694.1626748576241 447.209517756016" stroke-miterlimit="10"/></g><g transform="translate(-142,-78) scale(1,1)"><g><path fill="none" stroke="none"/><text fill="#000000" stroke="none" font-family="Times New Roman" font-size="20px" font-style="normal" font-weight="normal" text-decoration="none" x="165" y="555">Admin User Navigation</text></g></g></g></svg>