<svg xmlns="http://www.w3.org/2000/svg" xmlns:xlink="http://www.w3.org/1999/xlink" version="1.1" width="531" height="284"><defs/><g><g transform="translate(-270,-110) scale(1,1)"><rect fill="#ffffff" stroke="none" x="280" y="120" width="511" height="264"/></g><g transform="translate(-270,-110) scale(1,1)"><path fill="none" stroke="#000000" d="M 280 120 L 791 120 L 791 384 L 280 384 L 280 120 Z Z" stroke-miterlimit="10"/></g><g transform="translate(-270,-110) scale(1,1)"><rect fill="#C0C0C0" stroke="none" x="503" y="230" width="80" height="32" opacity="0.2"/></g><g transform="translate(-270,-110) scale(1,1)"><rect fill="#d1ffa3" stroke="none" x="496" y="223" width="80" height="32"/></g><g transform="translate(-270,-110) scale(1,1)"><path fill="none" stroke="#000000" d="M 496 223 L 576 223 L 576 255 L 496 255 L 496 223 Z Z" stroke-miterlimit="10"/></g><g transform="translate(-270,-110) scale(1,1)"><g><path fill="none" stroke="none"/><text fill="#000000" stroke="none" font-family="Arial" font-size="13px" font-style="normal" font-weight="bold" text-decoration="none" x="511.444091796875" y="239">Product</text></g></g><g transform="translate(-270,-110) scale(1,1)"><rect fill="#C0C0C0" stroke="none" x="687" y="230" width="80" height="32" opacity="0.2"/></g><g transform="translate(-270,-110) scale(1,1)"><rect fill="#ffff91" stroke="none" x="680" y="223" width="80" height="32"/></g><g transform="translate(-270,-110) scale(1,1)"><path fill="none" stroke="#000000" d="M 680 223 L 760 223 L 760 255 L 680 255 L 680 223 Z Z" stroke-miterlimit="10"/></g><g transform="translate(-270,-110) scale(1,1)"><g><path fill="none" stroke="none"/><text fill="#000000" stroke="none" font-family="Arial" font-size="13px" font-style="normal" font-weight="bold" text-decoration="none" x="705.54638671875" y="239">User</text></g></g><g transform="translate(-270,-110) scale(1,1)"><rect fill="#C0C0C0" stroke="none" x="319" y="230" width="80" height="32" opacity="0.2"/></g><g transform="translate(-270,-110) scale(1,1)"><rect fill="#a3e0ff" stroke="none" x="312" y="223" width="80" height="32"/></g><g transform="translate(-270,-110) scale(1,1)"><path fill="none" stroke="#000000" d="M 312 223 L 392 223 L 392 255 L 312 255 L 312 223 Z Z" stroke-miterlimit="10"/></g><g transform="translate(-270,-110) scale(1,1)"><g><path fill="none" stroke="none"/><text fill="#000000" stroke="none" font-family="Arial" font-size="13px" font-style="normal" font-weight="bold" text-decoration="none" x="327.799560546875" y="239">Bargain</text></g></g><g transform="translate(-270,-110) scale(1,1)"><rect fill="#C0C0C0" stroke="none" x="503" y="327" width="80" height="32" opacity="0.2"/></g><g transform="translate(-270,-110) scale(1,1)"><rect fill="#ffadad" stroke="none" x="496" y="320" width="80" height="32"/></g><g transform="translate(-270,-110) scale(1,1)"><path fill="none" stroke="#000000" d="M 496 320 L 576 320 L 576 352 L 496 352 L 496 320 Z Z" stroke-miterlimit="10"/></g><g transform="translate(-270,-110) scale(1,1)"><g><path fill="none" stroke="none"/><text fill="#000000" stroke="none" font-family="Arial" font-size="13px" font-style="normal" font-weight="bold" text-decoration="none" x="512.52001953125" y="336">Novelty</text></g></g><g transform="translate(-270,-110) scale(1,1)"><path fill="none" stroke="#000000" d="M 576 239 L 680 239" stroke-miterlimit="10"/></g><g transform="translate(-270,-110) scale(1,1)"><path fill="none" stroke="#000000" d="M 666 239 L 680 246" stroke-miterlimit="10"/></g><g transform="translate(-270,-110) scale(1,1)"><path fill="none" stroke="#000000" d="M 666 239 L 680 232" stroke-miterlimit="10"/></g><g transform="translate(-270,-110) scale(1,1)"><path fill="#FFFFFF" stroke="none" d="M 651 239 C 651 235.1340064 654.1340064 232 658 232 C 661.8659936 232 665 235.1340064 665 239 C 665 242.8659936 661.8659936 246 658 246 C 654.1340064 246 651 242.8659936 651 239 Z"/></g><g transform="translate(-270,-110) scale(1,1)"><path fill="none" stroke="#000000" d="M 651 239 C 651 235.1340064 654.1340064 232 658 232 C 661.8659936 232 665 235.1340064 665 239 C 665 242.8659936 661.8659936 246 658 246 C 654.1340064 246 651 242.8659936 651 239 Z" stroke-miterlimit="10"/></g><g transform="translate(-270,-110) scale(1,1)"><path fill="none" stroke="#000000" d="M 590 239 L 576 232" stroke-miterlimit="10"/></g><g transform="translate(-270,-110) scale(1,1)"><path fill="none" stroke="#000000" d="M 590 239 L 576 246" stroke-miterlimit="10"/></g><g transform="translate(-270,-110) scale(1,1)"><path fill="#FFFFFF" stroke="none" d="M 591 239 C 591 235.1340064 594.1340064 232 598 232 C 601.8659936 232 605 235.1340064 605 239 C 605 242.8659936 601.8659936 246 598 246 C 594.1340064 246 591 242.8659936 591 239 Z"/></g><g transform="translate(-270,-110) scale(1,1)"><path fill="none" stroke="#000000" d="M 591 239 C 591 235.1340064 594.1340064 232 598 232 C 601.8659936 232 605 235.1340064 605 239 C 605 242.8659936 601.8659936 246 598 246 C 594.1340064 246 591 242.8659936 591 239 Z" stroke-miterlimit="10"/></g><g transform="translate(-270,-110) scale(1,1)"><g><path fill="none" stroke="none"/><text fill="#000000" stroke="none" font-family="Arial" font-size="13px" font-style="normal" font-weight="normal" text-decoration="none" x="600.5" y="229">is favorite</text></g></g><g transform="translate(-270,-110) scale(1,1)"><g><path fill="none" stroke="none"/><text fill="#000000" stroke="none" font-family="Arial" font-size="13px" font-style="normal" font-weight="normal" text-decoration="none" x="600.5" y="224"/></g></g><g transform="translate(-270,-110) scale(1,1)"><g><path fill="none" stroke="none"/><text fill="#000000" stroke="none" font-family="Arial" font-size="13px" font-style="normal" font-weight="normal" text-decoration="none" x="653.5" y="224"/></g></g><g transform="translate(-270,-110) scale(1,1)"><path fill="none" stroke="#000000" d="M 536 223 L 536 176 M 536 176 A 8 8 0 0 1 544 168 L 712 168 M 712 168 A 8 8 0 0 1 720 176 L 720 223" stroke-miterlimit="10"/></g><g transform="translate(-270,-110) scale(1,1)"><path fill="none" stroke="#000000" d="M 720 209 L 713 223" stroke-miterlimit="10"/></g><g transform="translate(-270,-110) scale(1,1)"><path fill="none" stroke="#000000" d="M 720 209 L 727 223" stroke-miterlimit="10"/></g><g transform="translate(-270,-110) scale(1,1)"><path fill="#FFFFFF" stroke="none" d="M 713 201 C 713 197.1340064 716.1340064 194 720 194 C 723.8659936 194 727 197.1340064 727 201 C 727 204.8659936 723.8659936 208 720 208 C 716.1340064 208 713 204.8659936 713 201 Z"/></g><g transform="translate(-270,-110) scale(1,1)"><path fill="none" stroke="#000000" d="M 713 201 C 713 197.1340064 716.1340064 194 720 194 C 723.8659936 194 727 197.1340064 727 201 C 727 204.8659936 723.8659936 208 720 208 C 716.1340064 208 713 204.8659936 713 201 Z" stroke-miterlimit="10"/></g><g transform="translate(-270,-110) scale(1,1)"><path fill="none" stroke="#000000" d="M 536 209 L 529 223" stroke-miterlimit="10"/></g><g transform="translate(-270,-110) scale(1,1)"><path fill="none" stroke="#000000" d="M 536 209 L 543 223" stroke-miterlimit="10"/></g><g transform="translate(-270,-110) scale(1,1)"><path fill="#FFFFFF" stroke="none" d="M 529 201 C 529 197.1340064 532.1340064 194 536 194 C 539.8659936 194 543 197.1340064 543 201 C 543 204.8659936 539.8659936 208 536 208 C 532.1340064 208 529 204.8659936 529 201 Z"/></g><g transform="translate(-270,-110) scale(1,1)"><path fill="none" stroke="#000000" d="M 529 201 C 529 197.1340064 532.1340064 194 536 194 C 539.8659936 194 543 197.1340064 543 201 C 543 204.8659936 539.8659936 208 536 208 C 532.1340064 208 529 204.8659936 529 201 Z" stroke-miterlimit="10"/></g><g transform="translate(-270,-110) scale(1,1)"><g><path fill="none" stroke="none"/><text fill="#000000" stroke="none" font-family="Arial" font-size="13px" font-style="normal" font-weight="normal" text-decoration="none" x="578.5" y="158">is in shopping list</text></g></g><g transform="translate(-270,-110) scale(1,1)"><g><path fill="none" stroke="none"/><text fill="#000000" stroke="none" font-family="Arial" font-size="13px" font-style="normal" font-weight="normal" text-decoration="none" x="520.5" y="197"/></g></g><g transform="translate(-270,-110) scale(1,1)"><g><path fill="none" stroke="none"/><text fill="#000000" stroke="none" font-family="Arial" font-size="13px" font-style="normal" font-weight="normal" text-decoration="none" x="734.5" y="197"/></g></g><g transform="translate(-270,-110) scale(1,1)"><path fill="none" stroke="#000000" d="M 392 239 L 496 239" stroke-miterlimit="10"/></g><g transform="translate(-270,-110) scale(1,1)"><path fill="none" stroke="#000000" d="M 482 239 L 496 246" stroke-miterlimit="10"/></g><g transform="translate(-270,-110) scale(1,1)"><path fill="none" stroke="#000000" d="M 482 239 L 496 232" stroke-miterlimit="10"/></g><g transform="translate(-270,-110) scale(1,1)"><path fill="#FFFFFF" stroke="none" d="M 467 239 C 467 235.1340064 470.1340064 232 474 232 C 477.8659936 232 481 235.1340064 481 239 C 481 242.8659936 477.8659936 246 474 246 C 470.1340064 246 467 242.8659936 467 239 Z"/></g><g transform="translate(-270,-110) scale(1,1)"><path fill="none" stroke="#000000" d="M 467 239 C 467 235.1340064 470.1340064 232 474 232 C 477.8659936 232 481 235.1340064 481 239 C 481 242.8659936 477.8659936 246 474 246 C 470.1340064 246 467 242.8659936 467 239 Z" stroke-miterlimit="10"/></g><g transform="translate(-270,-110) scale(1,1)"><path fill="none" stroke="#000000" d="M 399 232 L 399 246" stroke-miterlimit="10"/></g><g transform="translate(-270,-110) scale(1,1)"><path fill="none" stroke="#000000" d="M 406 232 L 406 246" stroke-miterlimit="10"/></g><g transform="translate(-270,-110) scale(1,1)"><g><path fill="none" stroke="none"/><text fill="#000000" stroke="none" font-family="Arial" font-size="13px" font-style="normal" font-weight="normal" text-decoration="none" x="415.5" y="234">apply</text></g></g><g transform="translate(-270,-110) scale(1,1)"><g><path fill="none" stroke="none"/><text fill="#000000" stroke="none" font-family="Arial" font-size="13px" font-style="normal" font-weight="normal" text-decoration="none" x="416.5" y="224"/></g></g><g transform="translate(-270,-110) scale(1,1)"><g><path fill="none" stroke="none"/><text fill="#000000" stroke="none" font-family="Arial" font-size="13px" font-style="normal" font-weight="normal" text-decoration="none" x="469.5" y="224"/></g></g><g transform="translate(-270,-110) scale(1,1)"><path fill="none" stroke="#000000" d="M 536 320 L 536 255" stroke-miterlimit="10"/></g><g transform="translate(-270,-110) scale(1,1)"><path fill="none" stroke="#000000" d="M 536 269 L 543 255" stroke-miterlimit="10"/></g><g transform="translate(-270,-110) scale(1,1)"><path fill="none" stroke="#000000" d="M 536 269 L 529 255" stroke-miterlimit="10"/></g><g transform="translate(-270,-110) scale(1,1)"><path fill="#FFFFFF" stroke="none" d="M 529 277 C 529 273.1340064 532.1340064 270 536 270 C 539.8659936 270 543 273.1340064 543 277 C 543 280.8659936 539.8659936 284 536 284 C 532.1340064 284 529 280.8659936 529 277 Z"/></g><g transform="translate(-270,-110) scale(1,1)"><path fill="none" stroke="#000000" d="M 529 277 C 529 273.1340064 532.1340064 270 536 270 C 539.8659936 270 543 273.1340064 543 277 C 543 280.8659936 539.8659936 284 536 284 C 532.1340064 284 529 280.8659936 529 277 Z" stroke-miterlimit="10"/></g><g transform="translate(-270,-110) scale(1,1)"><path fill="none" stroke="#000000" d="M 529 313 L 543 313" stroke-miterlimit="10"/></g><g transform="translate(-270,-110) scale(1,1)"><path fill="none" stroke="#000000" d="M 529 306 L 543 306" stroke-miterlimit="10"/></g><g transform="translate(-270,-110) scale(1,1)"><g><path fill="none" stroke="none"/><text fill="#000000" stroke="none" font-family="Arial" font-size="13px" font-style="normal" font-weight="normal" text-decoration="none" x="548.5" y="296.5">concern</text></g></g><g transform="translate(-270,-110) scale(1,1)"><g><path fill="none" stroke="none"/><text fill="#000000" stroke="none" font-family="Arial" font-size="13px" font-style="normal" font-weight="normal" text-decoration="none" x="520.5" y="294"/></g></g><g transform="translate(-270,-110) scale(1,1)"><g><path fill="none" stroke="none"/><text fill="#000000" stroke="none" font-family="Arial" font-size="13px" font-style="normal" font-weight="normal" text-decoration="none" x="520.5" y="280"/></g></g></g></svg>