<svg xmlns="http://www.w3.org/2000/svg" xmlns:xlink="http://www.w3.org/1999/xlink" version="1.1" width="1036" height="452"><defs/><g><g transform="translate(-182,-158) scale(1,1)"><path fill="none" stroke="#000000" d="M 192 168 L 1208 168 L 1208 600 L 192 600 L 192 168 Z Z" stroke-miterlimit="10"/></g><g transform="translate(-182,-158) scale(1,1)"><rect fill="#C0C0C0" stroke="none" x="239" y="207" width="332.79999999999995" height="15" opacity="0.2"/></g><g transform="translate(-182,-158) scale(1,1)"><rect fill="#C0C0C0" stroke="none" x="239" y="221" width="832" height="282" opacity="0.2"/></g><g transform="translate(-182,-158) scale(1,1)"><rect fill="#e2e2e2" stroke="none" x="232" y="215" width="832" height="281"/></g><g transform="translate(-182,-158) scale(1,1)"><path fill="none" stroke="#000000" d="M 232 215 L 1064 215 L 1064 496 L 232 496 L 232 215 Z Z" stroke-miterlimit="10"/></g><g transform="translate(-182,-158) scale(1,1)"><rect fill="#e2e2e2" stroke="none" x="232" y="200" width="332.79999999999995" height="15"/></g><g transform="translate(-182,-158) scale(1,1)"><path fill="none" stroke="#000000" d="M 232 200 L 564.8 200 L 564.8 215 L 232 215 L 232 200 Z Z" stroke-miterlimit="10"/></g><g transform="translate(-182,-158) scale(1,1)"><rect fill="#e2e2e2" stroke="none" x="232" y="214" width="832" height="282"/></g><g transform="translate(-182,-158) scale(1,1)"><path fill="none" stroke="#000000" d="M 232 214 L 1064 214 L 1064 496 L 232 496 L 232 214 Z Z" stroke-miterlimit="10"/></g><g transform="translate(-182,-158) scale(1,1)"><g><path fill="none" stroke="none"/><text fill="#000000" stroke="none" font-family="Arial" font-size="13px" font-style="normal" font-weight="bold" text-decoration="none" x="590.582275390625" y="233">AudifonosXmenos</text></g></g><g transform="translate(-182,-158) scale(1,1)"><rect fill="#C0C0C0" stroke="none" x="263" y="263" width="118.39999999999998" height="15" opacity="0.2"/></g><g transform="translate(-182,-158) scale(1,1)"><rect fill="#C0C0C0" stroke="none" x="263" y="277" width="296" height="202" opacity="0.2"/></g><g transform="translate(-182,-158) scale(1,1)"><rect fill="#ffffd8" stroke="none" x="256" y="271" width="296" height="201"/></g><g transform="translate(-182,-158) scale(1,1)"><path fill="none" stroke="#000000" d="M 256 271 L 552 271 L 552 472 L 256 472 L 256 271 Z Z" stroke-miterlimit="10"/></g><g transform="translate(-182,-158) scale(1,1)"><rect fill="#ffffd8" stroke="none" x="256" y="256" width="118.39999999999998" height="15"/></g><g transform="translate(-182,-158) scale(1,1)"><path fill="none" stroke="#000000" d="M 256 256 L 374.4 256 L 374.4 271 L 256 271 L 256 256 Z Z" stroke-miterlimit="10"/></g><g transform="translate(-182,-158) scale(1,1)"><rect fill="#ffffd8" stroke="none" x="256" y="270" width="296" height="202"/></g><g transform="translate(-182,-158) scale(1,1)"><path fill="none" stroke="#000000" d="M 256 270 L 552 270 L 552 472 L 256 472 L 256 270 Z Z" stroke-miterlimit="10"/></g><g transform="translate(-182,-158) scale(1,1)"><g><path fill="none" stroke="none"/><text fill="#000000" stroke="none" font-family="Arial" font-size="13px" font-style="normal" font-weight="bold" text-decoration="none" x="387.023193359375" y="289">client</text></g></g><g transform="translate(-182,-158) scale(1,1)"><rect fill="#C0C0C0" stroke="none" x="1095" y="263" width="36.541796875000045" height="15" opacity="0.2"/></g><g transform="translate(-182,-158) scale(1,1)"><rect fill="#C0C0C0" stroke="none" x="1095" y="277" width="91.3544921875" height="41" opacity="0.2"/></g><g transform="translate(-182,-158) scale(1,1)"><rect fill="#ebffd8" stroke="none" x="1088" y="271" width="91.3544921875" height="40"/></g><g transform="translate(-182,-158) scale(1,1)"><path fill="none" stroke="#000000" d="M 1088 271 L 1179.3544921875 271 L 1179.3544921875 311 L 1088 311 L 1088 271 Z Z" stroke-miterlimit="10"/></g><g transform="translate(-182,-158) scale(1,1)"><rect fill="#ebffd8" stroke="none" x="1088" y="256" width="36.541796875000045" height="15"/></g><g transform="translate(-182,-158) scale(1,1)"><path fill="none" stroke="#000000" d="M 1088 256 L 1124.541796875 256 L 1124.541796875 271 L 1088 271 L 1088 256 Z Z" stroke-miterlimit="10"/></g><g transform="translate(-182,-158) scale(1,1)"><rect fill="#ebffd8" stroke="none" x="1088" y="270" width="91.3544921875" height="41"/></g><g transform="translate(-182,-158) scale(1,1)"><path fill="none" stroke="#000000" d="M 1088 270 L 1179.3544921875 270 L 1179.3544921875 311 L 1088 311 L 1088 270 Z Z" stroke-miterlimit="10"/></g><g transform="translate(-182,-158) scale(1,1)"><g><path fill="none" stroke="none"/><text fill="#000000" stroke="none" font-family="Arial" font-size="13px" font-style="normal" font-weight="bold" text-decoration="none" x="1102.99267578125" y="289">MongoDB</text></g></g><g transform="translate(-182,-158) scale(1,1)"><rect fill="#C0C0C0" stroke="none" x="1095" y="383" width="36.541796875000045" height="15" opacity="0.2"/></g><g transform="translate(-182,-158) scale(1,1)"><rect fill="#C0C0C0" stroke="none" x="1095" y="397" width="91.3544921875" height="42" opacity="0.2"/></g><g transform="translate(-182,-158) scale(1,1)"><rect fill="#ebffd8" stroke="none" x="1088" y="391" width="91.3544921875" height="41"/></g><g transform="translate(-182,-158) scale(1,1)"><path fill="none" stroke="#000000" d="M 1088 391 L 1179.3544921875 391 L 1179.3544921875 432 L 1088 432 L 1088 391 Z Z" stroke-miterlimit="10"/></g><g transform="translate(-182,-158) scale(1,1)"><rect fill="#ebffd8" stroke="none" x="1088" y="376" width="36.541796875000045" height="15"/></g><g transform="translate(-182,-158) scale(1,1)"><path fill="none" stroke="#000000" d="M 1088 376 L 1124.541796875 376 L 1124.541796875 391 L 1088 391 L 1088 376 Z Z" stroke-miterlimit="10"/></g><g transform="translate(-182,-158) scale(1,1)"><rect fill="#ebffd8" stroke="none" x="1088" y="390" width="91.3544921875" height="42"/></g><g transform="translate(-182,-158) scale(1,1)"><path fill="none" stroke="#000000" d="M 1088 390 L 1179.3544921875 390 L 1179.3544921875 432 L 1088 432 L 1088 390 Z Z" stroke-miterlimit="10"/></g><g transform="translate(-182,-158) scale(1,1)"><g><path fill="none" stroke="none"/><text fill="#000000" stroke="none" font-family="Arial" font-size="13px" font-style="normal" font-weight="bold" text-decoration="none" x="1092.5" y="409">PostgresSQL</text></g></g><g transform="translate(-182,-158) scale(1,1)"><rect fill="#C0C0C0" stroke="none" x="623" y="527" width="27.5966796875" height="15" opacity="0.2"/></g><g transform="translate(-182,-158) scale(1,1)"><rect fill="#C0C0C0" stroke="none" x="623" y="541" width="68.99169921875" height="34" opacity="0.2"/></g><g transform="translate(-182,-158) scale(1,1)"><rect fill="#ebffd8" stroke="none" x="616" y="535" width="68.99169921875" height="33"/></g><g transform="translate(-182,-158) scale(1,1)"><path fill="none" stroke="#000000" d="M 616 535 L 684.99169921875 535 L 684.99169921875 568 L 616 568 L 616 535 Z Z" stroke-miterlimit="10"/></g><g transform="translate(-182,-158) scale(1,1)"><rect fill="#ebffd8" stroke="none" x="616" y="520" width="27.5966796875" height="15"/></g><g transform="translate(-182,-158) scale(1,1)"><path fill="none" stroke="#000000" d="M 616 520 L 643.5966796875 520 L 643.5966796875 535 L 616 535 L 616 520 Z Z" stroke-miterlimit="10"/></g><g transform="translate(-182,-158) scale(1,1)"><rect fill="#ebffd8" stroke="none" x="616" y="534" width="68.99169921875" height="34"/></g><g transform="translate(-182,-158) scale(1,1)"><path fill="none" stroke="#000000" d="M 616 534 L 684.99169921875 534 L 684.99169921875 568 L 616 568 L 616 534 Z Z" stroke-miterlimit="10"/></g><g transform="translate(-182,-158) scale(1,1)"><g><path fill="none" stroke="none"/><text fill="#000000" stroke="none" font-family="Arial" font-size="13px" font-style="normal" font-weight="bold" text-decoration="none" x="634.236328125" y="553">Clerk</text></g></g><g transform="translate(-182,-158) scale(1,1)"><rect fill="#C0C0C0" stroke="none" x="775" y="311" width="27.5966796875" height="15" opacity="0.2"/></g><g transform="translate(-182,-158) scale(1,1)"><rect fill="#C0C0C0" stroke="none" x="775" y="325" width="68.99169921875" height="25" opacity="0.2"/></g><g transform="translate(-182,-158) scale(1,1)"><rect fill="#d6adff" stroke="none" x="768" y="319" width="68.99169921875" height="24"/></g><g transform="translate(-182,-158) scale(1,1)"><path fill="none" stroke="#000000" d="M 768 319 L 836.99169921875 319 L 836.99169921875 343 L 768 343 L 768 319 Z Z" stroke-miterlimit="10"/></g><g transform="translate(-182,-158) scale(1,1)"><rect fill="#d6adff" stroke="none" x="768" y="304" width="27.5966796875" height="15"/></g><g transform="translate(-182,-158) scale(1,1)"><path fill="none" stroke="#000000" d="M 768 304 L 795.5966796875 304 L 795.5966796875 319 L 768 319 L 768 304 Z Z" stroke-miterlimit="10"/></g><g transform="translate(-182,-158) scale(1,1)"><rect fill="#d6adff" stroke="none" x="768" y="318" width="68.99169921875" height="25"/></g><g transform="translate(-182,-158) scale(1,1)"><path fill="none" stroke="#000000" d="M 768 318 L 836.99169921875 318 L 836.99169921875 343 L 768 343 L 768 318 Z Z" stroke-miterlimit="10"/></g><g transform="translate(-182,-158) scale(1,1)"><g><path fill="none" stroke="none"/><text fill="#000000" stroke="none" font-family="Arial" font-size="13px" font-style="normal" font-weight="bold" text-decoration="none" x="783.3544921875" y="337">model</text></g></g><g transform="translate(-182,-158) scale(1,1)"><path fill="none" stroke="#000000" d="M 552 400 L 744 400" stroke-miterlimit="10" stroke-dasharray="3"/></g><g transform="translate(-182,-158) scale(1,1)"><path fill="none" stroke="#000000" d="M 733.8373251423759 404.209517756016 L 744 400 L 733.8373251423758 395.790482243984" stroke-miterlimit="10"/></g><g transform="translate(-182,-158) scale(1,1)"><path fill="none" stroke="#000000" d="M 392 472 L 392 552 L 616 552" stroke-miterlimit="10" stroke-dasharray="3"/></g><g transform="translate(-182,-158) scale(1,1)"><path fill="none" stroke="#000000" d="M 605.8373251423759 556.209517756016 L 616 552 L 605.8373251423758 547.790482243984" stroke-miterlimit="10"/></g><g transform="translate(-182,-158) scale(1,1)"><path fill="none" stroke="#000000" d="M 892 472 L 892 552 L 685 552" stroke-miterlimit="10" stroke-dasharray="3"/></g><g transform="translate(-182,-158) scale(1,1)"><path fill="none" stroke="#000000" d="M 695.1626748576241 547.790482243984 L 685 552 L 695.1626748576241 556.209517756016" stroke-miterlimit="10"/></g><g transform="translate(-182,-158) scale(1,1)"><rect fill="#C0C0C0" stroke="none" x="279" y="311" width="48" height="15" opacity="0.2"/></g><g transform="translate(-182,-158) scale(1,1)"><rect fill="#C0C0C0" stroke="none" x="279" y="325" width="120" height="138" opacity="0.2"/></g><g transform="translate(-182,-158) scale(1,1)"><rect fill="#ffff91" stroke="none" x="272" y="319" width="120" height="137"/></g><g transform="translate(-182,-158) scale(1,1)"><path fill="none" stroke="#000000" d="M 272 319 L 392 319 L 392 456 L 272 456 L 272 319 Z Z" stroke-miterlimit="10"/></g><g transform="translate(-182,-158) scale(1,1)"><rect fill="#ffff91" stroke="none" x="272" y="304" width="48" height="15"/></g><g transform="translate(-182,-158) scale(1,1)"><path fill="none" stroke="#000000" d="M 272 304 L 320 304 L 320 319 L 272 319 L 272 304 Z Z" stroke-miterlimit="10"/></g><g transform="translate(-182,-158) scale(1,1)"><rect fill="#ffff91" stroke="none" x="272" y="318" width="120" height="138"/></g><g transform="translate(-182,-158) scale(1,1)"><path fill="none" stroke="#000000" d="M 272 318 L 392 318 L 392 456 L 272 456 L 272 318 Z Z" stroke-miterlimit="10"/></g><g transform="translate(-182,-158) scale(1,1)"><g><path fill="none" stroke="none"/><text fill="#000000" stroke="none" font-family="Arial" font-size="13px" font-style="normal" font-weight="bold" text-decoration="none" x="326.2236328125" y="337">ui</text></g></g><g transform="translate(-182,-158) scale(1,1)"><rect fill="#C0C0C0" stroke="none" x="615" y="295" width="32" height="15" opacity="0.2"/></g><g transform="translate(-182,-158) scale(1,1)"><rect fill="#C0C0C0" stroke="none" x="615" y="309" width="80" height="34" opacity="0.2"/></g><g transform="translate(-182,-158) scale(1,1)"><rect fill="#ffadad" stroke="none" x="608" y="303" width="80" height="33"/></g><g transform="translate(-182,-158) scale(1,1)"><path fill="none" stroke="#000000" d="M 608 303 L 688 303 L 688 336 L 608 336 L 608 303 Z Z" stroke-miterlimit="10"/></g><g transform="translate(-182,-158) scale(1,1)"><rect fill="#ffadad" stroke="none" x="608" y="288" width="32" height="15"/></g><g transform="translate(-182,-158) scale(1,1)"><path fill="none" stroke="#000000" d="M 608 288 L 640 288 L 640 303 L 608 303 L 608 288 Z Z" stroke-miterlimit="10"/></g><g transform="translate(-182,-158) scale(1,1)"><rect fill="#ffadad" stroke="none" x="608" y="302" width="80" height="34"/></g><g transform="translate(-182,-158) scale(1,1)"><path fill="none" stroke="#000000" d="M 608 302 L 688 302 L 688 336 L 608 336 L 608 302 Z Z" stroke-miterlimit="10"/></g><g transform="translate(-182,-158) scale(1,1)"><g><path fill="none" stroke="none"/><text fill="#000000" stroke="none" font-family="Arial" font-size="13px" font-style="normal" font-weight="bold" text-decoration="none" x="638.608642578125" y="321">api</text></g></g><g transform="translate(-182,-158) scale(1,1)"><rect fill="#C0C0C0" stroke="none" x="295" y="351" width="35.19999999999999" height="15" opacity="0.2"/></g><g transform="translate(-182,-158) scale(1,1)"><rect fill="#C0C0C0" stroke="none" x="295" y="365" width="88" height="25" opacity="0.2"/></g><g transform="translate(-182,-158) scale(1,1)"><rect fill="#ffff49" stroke="none" x="288" y="359" width="88" height="24"/></g><g transform="translate(-182,-158) scale(1,1)"><path fill="none" stroke="#000000" d="M 288 359 L 376 359 L 376 383 L 288 383 L 288 359 Z Z" stroke-miterlimit="10"/></g><g transform="translate(-182,-158) scale(1,1)"><rect fill="#ffff49" stroke="none" x="288" y="344" width="35.19999999999999" height="15"/></g><g transform="translate(-182,-158) scale(1,1)"><path fill="none" stroke="#000000" d="M 288 344 L 323.2 344 L 323.2 359 L 288 359 L 288 344 Z Z" stroke-miterlimit="10"/></g><g transform="translate(-182,-158) scale(1,1)"><rect fill="#ffff49" stroke="none" x="288" y="358" width="88" height="25"/></g><g transform="translate(-182,-158) scale(1,1)"><path fill="none" stroke="#000000" d="M 288 358 L 376 358 L 376 383 L 288 383 L 288 358 Z Z" stroke-miterlimit="10"/></g><g transform="translate(-182,-158) scale(1,1)"><g><path fill="none" stroke="none"/><text fill="#000000" stroke="none" font-family="Arial" font-size="13px" font-style="normal" font-weight="bold" text-decoration="none" x="293.358642578125" y="376.5">components</text></g></g><g transform="translate(-182,-158) scale(1,1)"><rect fill="#C0C0C0" stroke="none" x="295" y="415" width="35.19999999999999" height="15" opacity="0.2"/></g><g transform="translate(-182,-158) scale(1,1)"><rect fill="#C0C0C0" stroke="none" x="295" y="429" width="88" height="25" opacity="0.2"/></g><g transform="translate(-182,-158) scale(1,1)"><rect fill="#ffff49" stroke="none" x="288" y="423" width="88" height="24"/></g><g transform="translate(-182,-158) scale(1,1)"><path fill="none" stroke="#000000" d="M 288 423 L 376 423 L 376 447 L 288 447 L 288 423 Z Z" stroke-miterlimit="10"/></g><g transform="translate(-182,-158) scale(1,1)"><rect fill="#ffff49" stroke="none" x="288" y="408" width="35.19999999999999" height="15"/></g><g transform="translate(-182,-158) scale(1,1)"><path fill="none" stroke="#000000" d="M 288 408 L 323.2 408 L 323.2 423 L 288 423 L 288 408 Z Z" stroke-miterlimit="10"/></g><g transform="translate(-182,-158) scale(1,1)"><rect fill="#ffff49" stroke="none" x="288" y="422" width="88" height="25"/></g><g transform="translate(-182,-158) scale(1,1)"><path fill="none" stroke="#000000" d="M 288 422 L 376 422 L 376 447 L 288 447 L 288 422 Z Z" stroke-miterlimit="10"/></g><g transform="translate(-182,-158) scale(1,1)"><g><path fill="none" stroke="none"/><text fill="#000000" stroke="none" font-family="Arial" font-size="13px" font-style="normal" font-weight="bold" text-decoration="none" x="299.128662109375" y="441">containers</text></g></g><g transform="translate(-182,-158) scale(1,1)"><rect fill="#C0C0C0" stroke="none" x="423" y="311" width="48" height="15" opacity="0.2"/></g><g transform="translate(-182,-158) scale(1,1)"><rect fill="#C0C0C0" stroke="none" x="423" y="325" width="120" height="138" opacity="0.2"/></g><g transform="translate(-182,-158) scale(1,1)"><rect fill="#ffff91" stroke="none" x="416" y="319" width="120" height="137"/></g><g transform="translate(-182,-158) scale(1,1)"><path fill="none" stroke="#000000" d="M 416 319 L 536 319 L 536 456 L 416 456 L 416 319 Z Z" stroke-miterlimit="10"/></g><g transform="translate(-182,-158) scale(1,1)"><rect fill="#ffff91" stroke="none" x="416" y="304" width="48" height="15"/></g><g transform="translate(-182,-158) scale(1,1)"><path fill="none" stroke="#000000" d="M 416 304 L 464 304 L 464 319 L 416 319 L 416 304 Z Z" stroke-miterlimit="10"/></g><g transform="translate(-182,-158) scale(1,1)"><rect fill="#ffff91" stroke="none" x="416" y="318" width="120" height="138"/></g><g transform="translate(-182,-158) scale(1,1)"><path fill="none" stroke="#000000" d="M 416 318 L 536 318 L 536 456 L 416 456 L 416 318 Z Z" stroke-miterlimit="10"/></g><g transform="translate(-182,-158) scale(1,1)"><g><path fill="none" stroke="none"/><text fill="#000000" stroke="none" font-family="Arial" font-size="13px" font-style="normal" font-weight="bold" text-decoration="none" x="457.214111328125" y="335.5">pages</text></g></g><g transform="translate(-182,-158) scale(1,1)"><rect fill="#C0C0C0" stroke="none" x="751" y="263" width="118.39999999999998" height="15" opacity="0.2"/></g><g transform="translate(-182,-158) scale(1,1)"><rect fill="#C0C0C0" stroke="none" x="751" y="277" width="296" height="202" opacity="0.2"/></g><g transform="translate(-182,-158) scale(1,1)"><rect fill="#ebd8ff" stroke="none" x="744" y="271" width="296" height="201"/></g><g transform="translate(-182,-158) scale(1,1)"><path fill="none" stroke="#000000" d="M 744 271 L 1040 271 L 1040 472 L 744 472 L 744 271 Z Z" stroke-miterlimit="10"/></g><g transform="translate(-182,-158) scale(1,1)"><rect fill="#ebd8ff" stroke="none" x="744" y="256" width="118.39999999999998" height="15"/></g><g transform="translate(-182,-158) scale(1,1)"><path fill="none" stroke="#000000" d="M 744 256 L 862.4 256 L 862.4 271 L 744 271 L 744 256 Z Z" stroke-miterlimit="10"/></g><g transform="translate(-182,-158) scale(1,1)"><rect fill="#ebd8ff" stroke="none" x="744" y="270" width="296" height="202"/></g><g transform="translate(-182,-158) scale(1,1)"><path fill="none" stroke="#000000" d="M 744 270 L 1040 270 L 1040 472 L 744 472 L 744 270 Z Z" stroke-miterlimit="10"/></g><g transform="translate(-182,-158) scale(1,1)"><g><path fill="none" stroke="none"/><text fill="#000000" stroke="none" font-family="Arial" font-size="13px" font-style="normal" font-weight="bold" text-decoration="none" x="872.48095703125" y="287.5">server</text></g></g><g transform="translate(-182,-158) scale(1,1)"><path fill="none" stroke="#000000" d="M 552 320 L 608 320" stroke-miterlimit="10" stroke-dasharray="3"/></g><g transform="translate(-182,-158) scale(1,1)"><path fill="none" stroke="#000000" d="M 597.8373251423759 324.209517756016 L 608 320 L 597.8373251423758 315.790482243984" stroke-miterlimit="10"/></g><g transform="translate(-182,-158) scale(1,1)"><path fill="none" stroke="#000000" d="M 688 320 L 744 320" stroke-miterlimit="10" stroke-dasharray="3"/></g><g transform="translate(-182,-158) scale(1,1)"><path fill="none" stroke="#000000" d="M 733.8373251423759 324.209517756016 L 744 320 L 733.8373251423758 315.790482243984" stroke-miterlimit="10"/></g><g transform="translate(-182,-158) scale(1,1)"><rect fill="#C0C0C0" stroke="none" x="783" y="311" width="38.39999999999998" height="15" opacity="0.2"/></g><g transform="translate(-182,-158) scale(1,1)"><rect fill="#C0C0C0" stroke="none" x="783" y="325" width="96" height="50" opacity="0.2"/></g><g transform="translate(-182,-158) scale(1,1)"><rect fill="#d6adff" stroke="none" x="776" y="319" width="96" height="49"/></g><g transform="translate(-182,-158) scale(1,1)"><path fill="none" stroke="#000000" d="M 776 319 L 872 319 L 872 368 L 776 368 L 776 319 Z Z" stroke-miterlimit="10"/></g><g transform="translate(-182,-158) scale(1,1)"><rect fill="#d6adff" stroke="none" x="776" y="304" width="38.39999999999998" height="15"/></g><g transform="translate(-182,-158) scale(1,1)"><path fill="none" stroke="#000000" d="M 776 304 L 814.4 304 L 814.4 319 L 776 319 L 776 304 Z Z" stroke-miterlimit="10"/></g><g transform="translate(-182,-158) scale(1,1)"><rect fill="#d6adff" stroke="none" x="776" y="318" width="96" height="50"/></g><g transform="translate(-182,-158) scale(1,1)"><path fill="none" stroke="#000000" d="M 776 318 L 872 318 L 872 368 L 776 368 L 776 318 Z Z" stroke-miterlimit="10"/></g><g transform="translate(-182,-158) scale(1,1)"><g><path fill="none" stroke="none"/><text fill="#000000" stroke="none" font-family="Arial" font-size="13px" font-style="normal" font-weight="bold" text-decoration="none" x="804.858642578125" y="337">model</text></g></g><g transform="translate(-182,-158) scale(1,1)"><rect fill="#C0C0C0" stroke="none" x="783" y="399" width="38.39999999999998" height="15" opacity="0.2"/></g><g transform="translate(-182,-158) scale(1,1)"><rect fill="#C0C0C0" stroke="none" x="783" y="413" width="96" height="50" opacity="0.2"/></g><g transform="translate(-182,-158) scale(1,1)"><rect fill="#d6adff" stroke="none" x="776" y="407" width="96" height="49"/></g><g transform="translate(-182,-158) scale(1,1)"><path fill="none" stroke="#000000" d="M 776 407 L 872 407 L 872 456 L 776 456 L 776 407 Z Z" stroke-miterlimit="10"/></g><g transform="translate(-182,-158) scale(1,1)"><rect fill="#d6adff" stroke="none" x="776" y="392" width="38.39999999999998" height="15"/></g><g transform="translate(-182,-158) scale(1,1)"><path fill="none" stroke="#000000" d="M 776 392 L 814.4 392 L 814.4 407 L 776 407 L 776 392 Z Z" stroke-miterlimit="10"/></g><g transform="translate(-182,-158) scale(1,1)"><rect fill="#d6adff" stroke="none" x="776" y="406" width="96" height="50"/></g><g transform="translate(-182,-158) scale(1,1)"><path fill="none" stroke="#000000" d="M 776 406 L 872 406 L 872 456 L 776 456 L 776 406 Z Z" stroke-miterlimit="10"/></g><g transform="translate(-182,-158) scale(1,1)"><g><path fill="none" stroke="none"/><text fill="#000000" stroke="none" font-family="Arial" font-size="13px" font-style="normal" font-weight="bold" text-decoration="none" x="804.503173828125" y="425">config</text></g></g><g transform="translate(-182,-158) scale(1,1)"><rect fill="#C0C0C0" stroke="none" x="919" y="399" width="38.39999999999998" height="15" opacity="0.2"/></g><g transform="translate(-182,-158) scale(1,1)"><rect fill="#C0C0C0" stroke="none" x="919" y="413" width="96" height="50" opacity="0.2"/></g><g transform="translate(-182,-158) scale(1,1)"><rect fill="#d6adff" stroke="none" x="912" y="407" width="96" height="49"/></g><g transform="translate(-182,-158) scale(1,1)"><path fill="none" stroke="#000000" d="M 912 407 L 1008 407 L 1008 456 L 912 456 L 912 407 Z Z" stroke-miterlimit="10"/></g><g transform="translate(-182,-158) scale(1,1)"><rect fill="#d6adff" stroke="none" x="912" y="392" width="38.39999999999998" height="15"/></g><g transform="translate(-182,-158) scale(1,1)"><path fill="none" stroke="#000000" d="M 912 392 L 950.4 392 L 950.4 407 L 912 407 L 912 392 Z Z" stroke-miterlimit="10"/></g><g transform="translate(-182,-158) scale(1,1)"><rect fill="#d6adff" stroke="none" x="912" y="406" width="96" height="50"/></g><g transform="translate(-182,-158) scale(1,1)"><path fill="none" stroke="#000000" d="M 912 406 L 1008 406 L 1008 456 L 912 456 L 912 406 Z Z" stroke-miterlimit="10"/></g><g transform="translate(-182,-158) scale(1,1)"><g><path fill="none" stroke="none"/><text fill="#000000" stroke="none" font-family="Arial" font-size="13px" font-style="normal" font-weight="bold" text-decoration="none" x="952.417724609375" y="425">lib</text></g></g><g transform="translate(-182,-158) scale(1,1)"><rect fill="#C0C0C0" stroke="none" x="919" y="311" width="38.39999999999998" height="15" opacity="0.2"/></g><g transform="translate(-182,-158) scale(1,1)"><rect fill="#C0C0C0" stroke="none" x="919" y="325" width="96" height="50" opacity="0.2"/></g><g transform="translate(-182,-158) scale(1,1)"><rect fill="#d6adff" stroke="none" x="912" y="319" width="96" height="49"/></g><g transform="translate(-182,-158) scale(1,1)"><path fill="none" stroke="#000000" d="M 912 319 L 1008 319 L 1008 368 L 912 368 L 912 319 Z Z" stroke-miterlimit="10"/></g><g transform="translate(-182,-158) scale(1,1)"><rect fill="#d6adff" stroke="none" x="912" y="304" width="38.39999999999998" height="15"/></g><g transform="translate(-182,-158) scale(1,1)"><path fill="none" stroke="#000000" d="M 912 304 L 950.4 304 L 950.4 319 L 912 319 L 912 304 Z Z" stroke-miterlimit="10"/></g><g transform="translate(-182,-158) scale(1,1)"><rect fill="#d6adff" stroke="none" x="912" y="318" width="96" height="50"/></g><g transform="translate(-182,-158) scale(1,1)"><path fill="none" stroke="#000000" d="M 912 318 L 1008 318 L 1008 368 L 912 368 L 912 318 Z Z" stroke-miterlimit="10"/></g><g transform="translate(-182,-158) scale(1,1)"><g><path fill="none" stroke="none"/><text fill="#000000" stroke="none" font-family="Arial" font-size="13px" font-style="normal" font-weight="bold" text-decoration="none" x="952.05908203125" y="337">db</text></g></g><g transform="translate(-182,-158) scale(1,1)"><path fill="none" stroke="#000000" d="M 416 380 L 392 380" stroke-miterlimit="10" stroke-dasharray="3"/></g><g transform="translate(-182,-158) scale(1,1)"><path fill="none" stroke="#000000" d="M 402.16267485762415 375.790482243984 L 392 380 L 402.16267485762415 384.209517756016" stroke-miterlimit="10"/></g><g transform="translate(-182,-158) scale(1,1)"><path fill="none" stroke="#000000" d="M 912 336 L 872 336" stroke-miterlimit="10" stroke-dasharray="3"/></g><g transform="translate(-182,-158) scale(1,1)"><path fill="none" stroke="#000000" d="M 882.1626748576241 331.790482243984 L 872 336 L 882.1626748576241 340.209517756016" stroke-miterlimit="10"/></g><g transform="translate(-182,-158) scale(1,1)"><path fill="none" stroke="#000000" d="M 960 368 L 960 392" stroke-miterlimit="10" stroke-dasharray="3"/></g><g transform="translate(-182,-158) scale(1,1)"><path fill="none" stroke="#000000" d="M 955.790482243984 381.83732514237585 L 960 392 L 964.209517756016 381.83732514237585" stroke-miterlimit="10"/></g><g transform="translate(-182,-158) scale(1,1)"><path fill="none" stroke="#000000" d="M 912 352 L 888 352 L 888 432 L 872 432" stroke-miterlimit="10" stroke-dasharray="3"/></g><g transform="translate(-182,-158) scale(1,1)"><path fill="none" stroke="#000000" d="M 882.1626748576241 427.790482243984 L 872 432 L 882.1626748576241 436.209517756016" stroke-miterlimit="10"/></g><g transform="translate(-182,-158) scale(1,1)"><path fill="none" stroke="#000000" d="M 1008 336 L 1136 336 L 1136 311" stroke-miterlimit="10" stroke-dasharray="3"/></g><g transform="translate(-182,-158) scale(1,1)"><path fill="none" stroke="#000000" d="M 1140.2095177560159 321.16267485762415 L 1136 311 L 1131.7904822439841 321.16267485762415" stroke-miterlimit="10"/></g><g transform="translate(-182,-158) scale(1,1)"><path fill="none" stroke="#000000" d="M 1008 352 L 1136 352 L 1136 376" stroke-miterlimit="10" stroke-dasharray="3"/></g><g transform="translate(-182,-158) scale(1,1)"><path fill="none" stroke="#000000" d="M 1131.7904822439841 365.83732514237585 L 1136 376 L 1140.2095177560159 365.83732514237585" stroke-miterlimit="10"/></g><g transform="translate(-182,-158) scale(1,1)"><path fill="none" stroke="#000000" d="M 332 407 L 332 384" stroke-miterlimit="10" stroke-dasharray="3"/></g><g transform="translate(-182,-158) scale(1,1)"><path fill="none" stroke="#000000" d="M 336.209517756016 394.16267485762415 L 332 384 L 327.790482243984 394.16267485762415" stroke-miterlimit="10"/></g></g></svg>