<svg xmlns="http://www.w3.org/2000/svg" xmlns:xlink="http://www.w3.org/1999/xlink" version="1.1" width="555" height="339"><defs/><g><g transform="translate(-62,-54) scale(1,1)"><rect fill="#ffffff" stroke="none" x="72" y="64" width="535" height="319"/></g><g transform="translate(-62,-54) scale(1,1)"><path fill="none" stroke="#000000" d="M 72 64 L 607 64 L 607 383 L 72 383 L 72 64 Z Z" stroke-miterlimit="10"/></g><g transform="translate(-62,-54) scale(1,1)"><path fill="#C0C0C0" stroke="none" d="M 197 112.5 C 197 107.2532944 201.2532944 103 206.5 103 C 211.7467056 103 216 107.2532944 216 112.5 C 216 117.7467056 211.7467056 122 206.5 122 C 201.2532944 122 197 117.7467056 197 112.5 Z" opacity="0.2"/></g><g transform="translate(-62,-54) scale(1,1)"><path fill="#000000" stroke="none" d="M 190 105.5 C 190 100.2532944 194.2532944 96 199.5 96 C 204.7467056 96 209 100.2532944 209 105.5 C 209 110.7467056 204.7467056 115 199.5 115 C 194.2532944 115 190 110.7467056 190 105.5 Z"/></g><g transform="translate(-62,-54) scale(1,1)"><path fill="#C0C0C0" stroke="none" d="M 168 255 L 244 255 Q 254 255 254 265 L 254 285 Q 254 295 244 295 L 168 295 Q 158 295 158 285 L 158 265 Q 158 255 168 255 Z" opacity="0.2"/></g><g transform="translate(-62,-54) scale(1,1)"><path fill="#fff5d8" stroke="none" d="M 161 248 L 237 248 Q 247 248 247 258 L 247 278 Q 247 288 237 288 L 161 288 Q 151 288 151 278 L 151 258 Q 151 248 161 248 Z"/></g><g transform="translate(-62,-54) scale(1,1)"><path fill="none" stroke="#000000" d="M 161 248 L 237 248 Q 247 248 247 258 L 247 278 Q 247 288 237 288 L 161 288 Q 151 288 151 278 L 151 258 Q 151 248 161 248 Z" stroke-miterlimit="10"/></g><g transform="translate(-62,-54) scale(1,1)"><g><path fill="none" stroke="none"/><text fill="#000000" stroke="none" font-family="Arial" font-size="13px" font-style="normal" font-weight="bold" text-decoration="none" x="179.50634765625" y="266">Log In</text></g></g><g transform="translate(-62,-54) scale(1,1)"><path fill="#C0C0C0" stroke="none" d="M 313 255 L 397 255 Q 407 255 407 265 L 407 285 Q 407 295 397 295 L 313 295 Q 303 295 303 285 L 303 265 Q 303 255 313 255 Z" opacity="0.2"/></g><g transform="translate(-62,-54) scale(1,1)"><path fill="#fff5d8" stroke="none" d="M 306 248 L 390 248 Q 400 248 400 258 L 400 278 Q 400 288 390 288 L 306 288 Q 296 288 296 278 L 296 258 Q 296 248 306 248 Z"/></g><g transform="translate(-62,-54) scale(1,1)"><path fill="none" stroke="#000000" d="M 306 248 L 390 248 Q 400 248 400 258 L 400 278 Q 400 288 390 288 L 306 288 Q 296 288 296 278 L 296 258 Q 296 248 306 248 Z" stroke-miterlimit="10"/></g><g transform="translate(-62,-54) scale(1,1)"><g><path fill="none" stroke="none"/><text fill="#000000" stroke="none" font-family="Arial" font-size="13px" font-style="normal" font-weight="bold" text-decoration="none" x="323.447265625" y="266">Sign Up</text></g></g><g transform="translate(-62,-54) scale(1,1)"><path fill="#C0C0C0" stroke="none" d="M 457 247 L 557 247 Q 567 247 567 257 L 567 298 Q 567 308 557 308 L 457 308 Q 447 308 447 298 L 447 257 Q 447 247 457 247 Z" opacity="0.2"/></g><g transform="translate(-62,-54) scale(1,1)"><path fill="#ebffd8" stroke="none" d="M 450 240 L 550 240 Q 560 240 560 250 L 560 291 Q 560 301 550 301 L 450 301 Q 440 301 440 291 L 440 250 Q 440 240 450 240 Z"/></g><g transform="translate(-62,-54) scale(1,1)"><path fill="none" stroke="#000000" d="M 450 240 L 550 240 Q 560 240 560 250 L 560 291 Q 560 301 550 301 L 450 301 Q 440 301 440 291 L 440 250 Q 440 240 450 240 Z" stroke-miterlimit="10"/></g><g transform="translate(-62,-54) scale(1,1)"><g><path fill="none" stroke="none"/><text fill="#000000" stroke="none" font-family="Arial" font-size="13px" font-style="normal" font-weight="bold" text-decoration="none" x="458.825927734375" y="258">Page only for</text><text fill="#000000" stroke="none" font-family="Arial" font-size="13px" font-style="normal" font-weight="bold" text-decoration="none" x="450.1455078125" y="271">Registered User</text></g></g><g transform="translate(-62,-54) scale(1,1)"><path fill="#C0C0C0" stroke="none" d="M 195 192.5 L 206.5 183 L 217 192.5 L 206.5 201 L 195 192.5" opacity="0.2"/></g><g transform="translate(-62,-54) scale(1,1)"><path fill="#ffffff" stroke="none" d="M 188 185 L 199 176 L 210 185 L 199 194 L 188 185"/></g><g transform="translate(-62,-54) scale(1,1)"><path fill="none" stroke="#000000" d="M 188 185 L 199 176 L 210 185 L 199 194 L 188 185 L 188 185" stroke-miterlimit="10"/></g><g transform="translate(-62,-54) scale(1,1)"><path fill="#C0C0C0" stroke="none" d="M 415 352.5 L 426.5 343 L 437 352.5 L 426.5 361 L 415 352.5" opacity="0.2"/></g><g transform="translate(-62,-54) scale(1,1)"><path fill="#ffffff" stroke="none" d="M 408 345 L 419 336 L 430 345 L 419 354 L 408 345"/></g><g transform="translate(-62,-54) scale(1,1)"><path fill="none" stroke="#000000" d="M 408 345 L 419 336 L 430 345 L 419 354 L 408 345 L 408 345" stroke-miterlimit="10"/></g><g transform="translate(-62,-54) scale(1,1)"><path fill="none" stroke="#000000" d="M 199 115 L 199 176" stroke-miterlimit="10"/></g><g transform="translate(-62,-54) scale(1,1)"><path fill="none" stroke="#000000" d="M 194.790482243984 165.83732514237585 L 199 176 L 203.209517756016 165.83732514237585" stroke-miterlimit="10"/></g><g transform="translate(-62,-54) scale(1,1)"><g><path fill="none" stroke="none"/><text fill="#000000" stroke="none" font-family="Arial" font-size="13px" font-style="normal" font-weight="normal" text-decoration="none" x="127.41455078125" y="161">Is User</text><text fill="#000000" stroke="none" font-family="Arial" font-size="13px" font-style="normal" font-weight="normal" text-decoration="none" x="108.96826171875" y="174">autenticated?</text></g></g><g transform="translate(-62,-54) scale(1,1)"><path fill="none" stroke="#000000" d="M 199 194 L 199 248" stroke-miterlimit="10"/></g><g transform="translate(-62,-54) scale(1,1)"><path fill="none" stroke="#000000" d="M 194.790482243984 237.83732514237585 L 199 248 L 203.209517756016 237.83732514237585" stroke-miterlimit="10"/></g><g transform="translate(-62,-54) scale(1,1)"><g><path fill="none" stroke="none"/><text fill="#000000" stroke="none" font-family="Arial" font-size="13px" font-style="normal" font-weight="normal" text-decoration="none" x="174.5" y="224">No</text></g></g><g transform="translate(-62,-54) scale(1,1)"><path fill="none" stroke="#000000" d="M 210 184 L 496 184 L 496 240" stroke-miterlimit="10"/></g><g transform="translate(-62,-54) scale(1,1)"><path fill="none" stroke="#000000" d="M 491.790482243984 229.83732514237585 L 496 240 L 500.209517756016 229.83732514237585" stroke-miterlimit="10"/></g><g transform="translate(-62,-54) scale(1,1)"><g><path fill="none" stroke="none"/><text fill="#000000" stroke="none" font-family="Arial" font-size="13px" font-style="normal" font-weight="normal" text-decoration="none" x="223.5" y="170">Yes</text></g></g><g transform="translate(-62,-54) scale(1,1)"><path fill="none" stroke="#000000" d="M 247 268 L 296 268" stroke-miterlimit="10"/></g><g transform="translate(-62,-54) scale(1,1)"><path fill="none" stroke="#000000" d="M 285.83732514237585 272.209517756016 L 296 268 L 285.83732514237585 263.790482243984" stroke-miterlimit="10"/></g><g transform="translate(-62,-54) scale(1,1)"><path fill="none" stroke="#000000" d="M 296 268 L 247 268" stroke-miterlimit="10"/></g><g transform="translate(-62,-54) scale(1,1)"><path fill="none" stroke="#000000" d="M 257.16267485762415 263.790482243984 L 247 268 L 257.16267485762415 272.209517756016" stroke-miterlimit="10"/></g><g transform="translate(-62,-54) scale(1,1)"><path fill="none" stroke="#000000" d="M 200 288 L 200 345 L 408 345" stroke-miterlimit="10"/></g><g transform="translate(-62,-54) scale(1,1)"><path fill="none" stroke="#000000" d="M 397.83732514237585 349.209517756016 L 408 345 L 397.83732514237585 340.790482243984" stroke-miterlimit="10"/></g><g transform="translate(-62,-54) scale(1,1)"><path fill="none" stroke="#000000" d="M 352 288 L 352 345 L 408 345" stroke-miterlimit="10"/></g><g transform="translate(-62,-54) scale(1,1)"><path fill="none" stroke="#000000" d="M 397.83732514237585 349.209517756016 L 408 345 L 397.83732514237585 340.790482243984" stroke-miterlimit="10"/></g><g transform="translate(-62,-54) scale(1,1)"><path fill="none" stroke="#000000" d="M 430 344 L 496 344 L 496 301" stroke-miterlimit="10"/></g><g transform="translate(-62,-54) scale(1,1)"><path fill="none" stroke="#000000" d="M 500.209517756016 311.16267485762415 L 496 301 L 491.790482243984 311.16267485762415" stroke-miterlimit="10"/></g><g transform="translate(-62,-54) scale(1,1)"><g><path fill="none" stroke="none"/><text fill="#000000" stroke="none" font-family="Times New Roman" font-size="20px" font-style="normal" font-weight="normal" text-decoration="none" x="365" y="99">Access to Restricted Pages</text></g></g></g></svg>