<svg xmlns="http://www.w3.org/2000/svg" xmlns:xlink="http://www.w3.org/1999/xlink" version="1.1" width="867" height="547"><defs/><g><g transform="translate(-46,-70) scale(1,1)"><rect fill="#ffffff" stroke="none" x="56" y="80" width="847" height="527"/></g><g transform="translate(-46,-70) scale(1,1)"><path fill="none" stroke="#000000" d="M 56 80 L 903 80 L 903 607 L 56 607 L 56 80 Z Z" stroke-miterlimit="10"/></g><g transform="translate(-46,-70) scale(1,1)"><path fill="#C0C0C0" stroke="none" d="M 335 175 L 427 175 Q 437 175 437 185 L 437 218 Q 437 228 427 228 L 335 228 Q 325 228 325 218 L 325 185 Q 325 175 335 175 Z" opacity="0.2"/></g><g transform="translate(-46,-70) scale(1,1)"><path fill="#d8e5ff" stroke="none" d="M 328 168 L 420 168 Q 430 168 430 178 L 430 211 Q 430 221 420 221 L 328 221 Q 318 221 318 211 L 318 178 Q 318 168 328 168 Z"/></g><g transform="translate(-46,-70) scale(1,1)"><path fill="none" stroke="#000000" d="M 328 168 L 420 168 Q 430 168 430 178 L 430 211 Q 430 221 420 221 L 328 221 Q 318 221 318 211 L 318 178 Q 318 168 328 168 Z" stroke-miterlimit="10"/></g><g transform="translate(-46,-70) scale(1,1)"><g><path fill="none" stroke="none"/><text fill="#000000" stroke="none" font-family="Arial" font-size="13px" font-style="normal" font-weight="bold" text-decoration="none" x="355.94091796875" y="186">Home</text></g></g><g transform="translate(-46,-70) scale(1,1)"><path fill="#C0C0C0" stroke="none" d="M 335 355 L 427 355 Q 437 355 437 365 L 437 398 Q 437 408 427 408 L 335 408 Q 325 408 325 398 L 325 365 Q 325 355 335 355 Z" opacity="0.2"/></g><g transform="translate(-46,-70) scale(1,1)"><path fill="#d8e5ff" stroke="none" d="M 328 348 L 420 348 Q 430 348 430 358 L 430 391 Q 430 401 420 401 L 328 401 Q 318 401 318 391 L 318 358 Q 318 348 328 348 Z"/></g><g transform="translate(-46,-70) scale(1,1)"><path fill="none" stroke="#000000" d="M 328 348 L 420 348 Q 430 348 430 358 L 430 391 Q 430 401 420 401 L 328 401 Q 318 401 318 391 L 318 358 Q 318 348 328 348 Z" stroke-miterlimit="10"/></g><g transform="translate(-46,-70) scale(1,1)"><g><path fill="none" stroke="none"/><text fill="#000000" stroke="none" font-family="Arial" font-size="13px" font-style="normal" font-weight="bold" text-decoration="none" x="352.319580078125" y="366">Search</text></g></g><g transform="translate(-46,-70) scale(1,1)"><path fill="#C0C0C0" stroke="none" d="M 335 535 L 427 535 Q 437 535 437 545 L 437 578 Q 437 588 427 588 L 335 588 Q 325 588 325 578 L 325 545 Q 325 535 335 535 Z" opacity="0.2"/></g><g transform="translate(-46,-70) scale(1,1)"><path fill="#adc8ff" stroke="none" d="M 328 528 L 420 528 Q 430 528 430 538 L 430 571 Q 430 581 420 581 L 328 581 Q 318 581 318 571 L 318 538 Q 318 528 328 528 Z"/></g><g transform="translate(-46,-70) scale(1,1)"><path fill="none" stroke="#000000" d="M 328 528 L 420 528 Q 430 528 430 538 L 430 571 Q 430 581 420 581 L 328 581 Q 318 581 318 571 L 318 538 Q 318 528 328 528 Z" stroke-miterlimit="10"/></g><g transform="translate(-46,-70) scale(1,1)"><g><path fill="none" stroke="none"/><text fill="#000000" stroke="none" font-family="Arial" font-size="13px" font-style="normal" font-weight="bold" text-decoration="none" x="328.8681640625" y="546">About Product</text></g></g><g transform="translate(-46,-70) scale(1,1)"><path fill="#C0C0C0" stroke="none" d="M 545 175 L 637 175 Q 647 175 647 185 L 647 218 Q 647 228 637 228 L 545 228 Q 535 228 535 218 L 535 185 Q 535 175 545 175 Z" opacity="0.2"/></g><g transform="translate(-46,-70) scale(1,1)"><path fill="#d8e5ff" stroke="none" d="M 538 168 L 630 168 Q 640 168 640 178 L 640 211 Q 640 221 630 221 L 538 221 Q 528 221 528 211 L 528 178 Q 528 168 538 168 Z"/></g><g transform="translate(-46,-70) scale(1,1)"><path fill="none" stroke="#000000" d="M 538 168 L 630 168 Q 640 168 640 178 L 640 211 Q 640 221 630 221 L 538 221 Q 528 221 528 211 L 528 178 Q 528 168 538 168 Z" stroke-miterlimit="10"/></g><g transform="translate(-46,-70) scale(1,1)"><g><path fill="none" stroke="none"/><text fill="#000000" stroke="none" font-family="Arial" font-size="13px" font-style="normal" font-weight="bold" text-decoration="none" x="557.254150390625" y="186">Services</text></g></g><g transform="translate(-46,-70) scale(1,1)"><path fill="#C0C0C0" stroke="none" d="M 772 175 L 864 175 Q 874 175 874 185 L 874 218 Q 874 228 864 228 L 772 228 Q 762 228 762 218 L 762 185 Q 762 175 772 175 Z" opacity="0.2"/></g><g transform="translate(-46,-70) scale(1,1)"><path fill="#adc8ff" stroke="none" d="M 765 168 L 857 168 Q 867 168 867 178 L 867 211 Q 867 221 857 221 L 765 221 Q 755 221 755 211 L 755 178 Q 755 168 765 168 Z"/></g><g transform="translate(-46,-70) scale(1,1)"><path fill="none" stroke="#000000" d="M 765 168 L 857 168 Q 867 168 867 178 L 867 211 Q 867 221 857 221 L 765 221 Q 755 221 755 211 L 755 178 Q 755 168 765 168 Z" stroke-miterlimit="10"/></g><g transform="translate(-46,-70) scale(1,1)"><g><path fill="none" stroke="none"/><text fill="#000000" stroke="none" font-family="Arial" font-size="13px" font-style="normal" font-weight="bold" text-decoration="none" x="782.114990234375" y="186">About Us</text></g></g><g transform="translate(-46,-70) scale(1,1)"><path fill="#C0C0C0" stroke="none" d="M 772 247 L 864 247 Q 874 247 874 257 L 874 290 Q 874 300 864 300 L 772 300 Q 762 300 762 290 L 762 257 Q 762 247 772 247 Z" opacity="0.2"/></g><g transform="translate(-46,-70) scale(1,1)"><path fill="#adc8ff" stroke="none" d="M 765 240 L 857 240 Q 867 240 867 250 L 867 283 Q 867 293 857 293 L 765 293 Q 755 293 755 283 L 755 250 Q 755 240 765 240 Z"/></g><g transform="translate(-46,-70) scale(1,1)"><path fill="none" stroke="#000000" d="M 765 240 L 857 240 Q 867 240 867 250 L 867 283 Q 867 293 857 293 L 765 293 Q 755 293 755 283 L 755 250 Q 755 240 765 240 Z" stroke-miterlimit="10"/></g><g transform="translate(-46,-70) scale(1,1)"><g><path fill="none" stroke="none"/><text fill="#000000" stroke="none" font-family="Arial" font-size="13px" font-style="normal" font-weight="bold" text-decoration="none" x="770.924072265625" y="258">Appointment</text></g></g><g transform="translate(-46,-70) scale(1,1)"><path fill="#C0C0C0" stroke="none" d="M 772 319 L 864 319 Q 874 319 874 329 L 874 362 Q 874 372 864 372 L 772 372 Q 762 372 762 362 L 762 329 Q 762 319 772 319 Z" opacity="0.2"/></g><g transform="translate(-46,-70) scale(1,1)"><path fill="#adc8ff" stroke="none" d="M 765 312 L 857 312 Q 867 312 867 322 L 867 355 Q 867 365 857 365 L 765 365 Q 755 365 755 355 L 755 322 Q 755 312 765 312 Z"/></g><g transform="translate(-46,-70) scale(1,1)"><path fill="none" stroke="#000000" d="M 765 312 L 857 312 Q 867 312 867 322 L 867 355 Q 867 365 857 365 L 765 365 Q 755 365 755 355 L 755 322 Q 755 312 765 312 Z" stroke-miterlimit="10"/></g><g transform="translate(-46,-70) scale(1,1)"><g><path fill="none" stroke="none"/><text fill="#000000" stroke="none" font-family="Arial" font-size="13px" font-style="normal" font-weight="bold" text-decoration="none" x="783.1845703125" y="330">Bargains</text></g></g><g transform="translate(-46,-70) scale(1,1)"><path fill="#C0C0C0" stroke="none" d="M 772 391 L 864 391 Q 874 391 874 401 L 874 434 Q 874 444 864 444 L 772 444 Q 762 444 762 434 L 762 401 Q 762 391 772 391 Z" opacity="0.2"/></g><g transform="translate(-46,-70) scale(1,1)"><path fill="#adc8ff" stroke="none" d="M 765 384 L 857 384 Q 867 384 867 394 L 867 427 Q 867 437 857 437 L 765 437 Q 755 437 755 427 L 755 394 Q 755 384 765 384 Z"/></g><g transform="translate(-46,-70) scale(1,1)"><path fill="none" stroke="#000000" d="M 765 384 L 857 384 Q 867 384 867 394 L 867 427 Q 867 437 857 437 L 765 437 Q 755 437 755 427 L 755 394 Q 755 384 765 384 Z" stroke-miterlimit="10"/></g><g transform="translate(-46,-70) scale(1,1)"><g><path fill="none" stroke="none"/><text fill="#000000" stroke="none" font-family="Arial" font-size="13px" font-style="normal" font-weight="bold" text-decoration="none" x="786.805908203125" y="402">Contact</text></g></g><g transform="translate(-46,-70) scale(1,1)"><path fill="#C0C0C0" stroke="none" d="M 772 463 L 864 463 Q 874 463 874 473 L 874 506 Q 874 516 864 516 L 772 516 Q 762 516 762 506 L 762 473 Q 762 463 772 463 Z" opacity="0.2"/></g><g transform="translate(-46,-70) scale(1,1)"><path fill="#adc8ff" stroke="none" d="M 765 456 L 857 456 Q 867 456 867 466 L 867 499 Q 867 509 857 509 L 765 509 Q 755 509 755 499 L 755 466 Q 755 456 765 456 Z"/></g><g transform="translate(-46,-70) scale(1,1)"><path fill="none" stroke="#000000" d="M 765 456 L 857 456 Q 867 456 867 466 L 867 499 Q 867 509 857 509 L 765 509 Q 755 509 755 499 L 755 466 Q 755 456 765 456 Z" stroke-miterlimit="10"/></g><g transform="translate(-46,-70) scale(1,1)"><g><path fill="none" stroke="none"/><text fill="#000000" stroke="none" font-family="Arial" font-size="13px" font-style="normal" font-weight="bold" text-decoration="none" x="782.09912109375" y="474">Novelties</text></g></g><g transform="translate(-46,-70) scale(1,1)"><path fill="#C0C0C0" stroke="none" d="M 772 535 L 864 535 Q 874 535 874 545 L 874 578 Q 874 588 864 588 L 772 588 Q 762 588 762 578 L 762 545 Q 762 535 772 535 Z" opacity="0.2"/></g><g transform="translate(-46,-70) scale(1,1)"><path fill="#adc8ff" stroke="none" d="M 765 528 L 857 528 Q 867 528 867 538 L 867 571 Q 867 581 857 581 L 765 581 Q 755 581 755 571 L 755 538 Q 755 528 765 528 Z"/></g><g transform="translate(-46,-70) scale(1,1)"><path fill="none" stroke="#000000" d="M 765 528 L 857 528 Q 867 528 867 538 L 867 571 Q 867 581 857 581 L 765 581 Q 755 581 755 571 L 755 538 Q 755 528 765 528 Z" stroke-miterlimit="10"/></g><g transform="translate(-46,-70) scale(1,1)"><g><path fill="none" stroke="none"/><text fill="#000000" stroke="none" font-family="Arial" font-size="13px" font-style="normal" font-weight="bold" text-decoration="none" x="795.108642578125" y="546">Send</text><text fill="#000000" stroke="none" font-family="Arial" font-size="13px" font-style="normal" font-weight="bold" text-decoration="none" x="761.8818359375" y="559">Audiometry File</text></g></g><g transform="translate(-46,-70) scale(1,1)"><path fill="#C0C0C0" stroke="none" d="M 108 175 L 200 175 Q 210 175 210 185 L 210 218 Q 210 228 200 228 L 108 228 Q 98 228 98 218 L 98 185 Q 98 175 108 175 Z" opacity="0.2"/></g><g transform="translate(-46,-70) scale(1,1)"><path fill="#adc8ff" stroke="none" d="M 101 168 L 193 168 Q 203 168 203 178 L 203 211 Q 203 221 193 221 L 101 221 Q 91 221 91 211 L 91 178 Q 91 168 101 168 Z"/></g><g transform="translate(-46,-70) scale(1,1)"><path fill="none" stroke="#000000" d="M 101 168 L 193 168 Q 203 168 203 178 L 203 211 Q 203 221 193 221 L 101 221 Q 91 221 91 211 L 91 178 Q 91 168 101 168 Z" stroke-miterlimit="10"/></g><g transform="translate(-46,-70) scale(1,1)"><g><path fill="none" stroke="none"/><text fill="#000000" stroke="none" font-family="Arial" font-size="13px" font-style="normal" font-weight="bold" text-decoration="none" x="121.714111328125" y="186">Cookies</text></g></g><g transform="translate(-46,-70) scale(1,1)"><path fill="#C0C0C0" stroke="none" d="M 108 295 L 200 295 Q 210 295 210 305 L 210 338 Q 210 348 200 348 L 108 348 Q 98 348 98 338 L 98 305 Q 98 295 108 295 Z" opacity="0.2"/></g><g transform="translate(-46,-70) scale(1,1)"><path fill="#adc8ff" stroke="none" d="M 101 288 L 193 288 Q 203 288 203 298 L 203 331 Q 203 341 193 341 L 101 341 Q 91 341 91 331 L 91 298 Q 91 288 101 288 Z"/></g><g transform="translate(-46,-70) scale(1,1)"><path fill="none" stroke="#000000" d="M 101 288 L 193 288 Q 203 288 203 298 L 203 331 Q 203 341 193 341 L 101 341 Q 91 341 91 331 L 91 298 Q 91 288 101 288 Z" stroke-miterlimit="10"/></g><g transform="translate(-46,-70) scale(1,1)"><g><path fill="none" stroke="none"/><text fill="#000000" stroke="none" font-family="Arial" font-size="13px" font-style="normal" font-weight="bold" text-decoration="none" x="114.119140625" y="306">Disclaimer</text></g></g><g transform="translate(-46,-70) scale(1,1)"><path fill="#C0C0C0" stroke="none" d="M 108 415 L 200 415 Q 210 415 210 425 L 210 458 Q 210 468 200 468 L 108 468 Q 98 468 98 458 L 98 425 Q 98 415 108 415 Z" opacity="0.2"/></g><g transform="translate(-46,-70) scale(1,1)"><path fill="#adc8ff" stroke="none" d="M 101 408 L 193 408 Q 203 408 203 418 L 203 451 Q 203 461 193 461 L 101 461 Q 91 461 91 451 L 91 418 Q 91 408 101 408 Z"/></g><g transform="translate(-46,-70) scale(1,1)"><path fill="none" stroke="#000000" d="M 101 408 L 193 408 Q 203 408 203 418 L 203 451 Q 203 461 193 461 L 101 461 Q 91 461 91 451 L 91 418 Q 91 408 101 408 Z" stroke-miterlimit="10"/></g><g transform="translate(-46,-70) scale(1,1)"><g><path fill="none" stroke="none"/><text fill="#000000" stroke="none" font-family="Arial" font-size="13px" font-style="normal" font-weight="bold" text-decoration="none" x="123.869140625" y="426">Privacy</text></g></g><g transform="translate(-46,-70) scale(1,1)"><path fill="#C0C0C0" stroke="none" d="M 108 535 L 200 535 Q 210 535 210 545 L 210 578 Q 210 588 200 588 L 108 588 Q 98 588 98 578 L 98 545 Q 98 535 108 535 Z" opacity="0.2"/></g><g transform="translate(-46,-70) scale(1,1)"><path fill="#adc8ff" stroke="none" d="M 101 528 L 193 528 Q 203 528 203 538 L 203 571 Q 203 581 193 581 L 101 581 Q 91 581 91 571 L 91 538 Q 91 528 101 528 Z"/></g><g transform="translate(-46,-70) scale(1,1)"><path fill="none" stroke="#000000" d="M 101 528 L 193 528 Q 203 528 203 538 L 203 571 Q 203 581 193 581 L 101 581 Q 91 581 91 571 L 91 538 Q 91 528 101 528 Z" stroke-miterlimit="10"/></g><g transform="translate(-46,-70) scale(1,1)"><g><path fill="none" stroke="none"/><text fill="#000000" stroke="none" font-family="Arial" font-size="13px" font-style="normal" font-weight="bold" text-decoration="none" x="121.472900390625" y="546">Terms &amp;</text><text fill="#000000" stroke="none" font-family="Arial" font-size="13px" font-style="normal" font-weight="bold" text-decoration="none" x="113.062255859375" y="559">Conditions</text></g></g><g transform="translate(-46,-70) scale(1,1)"><path fill="none" stroke="#000000" d="M 430 194 L 528 194" stroke-miterlimit="10"/></g><g transform="translate(-46,-70) scale(1,1)"><path fill="none" stroke="#000000" d="M 517.8373251423759 198.209517756016 L 528 194 L 517.8373251423758 189.790482243984" stroke-miterlimit="10"/></g><g transform="translate(-46,-70) scale(1,1)"><path fill="none" stroke="#000000" d="M 640 192 L 755 192" stroke-miterlimit="10"/></g><g transform="translate(-46,-70) scale(1,1)"><path fill="none" stroke="#000000" d="M 744.8373251423759 196.209517756016 L 755 192 L 744.8373251423758 187.790482243984" stroke-miterlimit="10"/></g><g transform="translate(-46,-70) scale(1,1)"><path fill="none" stroke="#000000" d="M 640 192 L 696 192 L 696 244 L 755 244" stroke-miterlimit="10"/></g><g transform="translate(-46,-70) scale(1,1)"><path fill="none" stroke="#000000" d="M 744.8373251423759 248.209517756016 L 755 244 L 744.8373251423758 239.790482243984" stroke-miterlimit="10"/></g><g transform="translate(-46,-70) scale(1,1)"><path fill="none" stroke="#000000" d="M 640 192 L 696 192 L 696 338 L 755 338" stroke-miterlimit="10"/></g><g transform="translate(-46,-70) scale(1,1)"><path fill="none" stroke="#000000" d="M 744.8373251423759 342.209517756016 L 755 338 L 744.8373251423758 333.790482243984" stroke-miterlimit="10"/></g><g transform="translate(-46,-70) scale(1,1)"><path fill="none" stroke="#000000" d="M 640 192 L 696 192 L 696 410 L 755 410" stroke-miterlimit="10"/></g><g transform="translate(-46,-70) scale(1,1)"><path fill="none" stroke="#000000" d="M 744.8373251423759 414.209517756016 L 755 410 L 744.8373251423758 405.790482243984" stroke-miterlimit="10"/></g><g transform="translate(-46,-70) scale(1,1)"><path fill="none" stroke="#000000" d="M 640 192 L 696 192 L 696 482 L 755 482" stroke-miterlimit="10"/></g><g transform="translate(-46,-70) scale(1,1)"><path fill="none" stroke="#000000" d="M 744.8373251423759 486.209517756016 L 755 482 L 744.8373251423758 477.790482243984" stroke-miterlimit="10"/></g><g transform="translate(-46,-70) scale(1,1)"><path fill="none" stroke="#000000" d="M 640 192 L 696 192 L 696 554 L 755 554" stroke-miterlimit="10"/></g><g transform="translate(-46,-70) scale(1,1)"><path fill="none" stroke="#000000" d="M 744.8373251423759 558.209517756016 L 755 554 L 744.8373251423758 549.790482243984" stroke-miterlimit="10"/></g><g transform="translate(-46,-70) scale(1,1)"><path fill="none" stroke="#000000" d="M 376 221 L 376 348" stroke-miterlimit="10"/></g><g transform="translate(-46,-70) scale(1,1)"><path fill="none" stroke="#000000" d="M 371.790482243984 337.83732514237585 L 376 348 L 380.209517756016 337.83732514237585" stroke-miterlimit="10"/></g><g transform="translate(-46,-70) scale(1,1)"><path fill="none" stroke="#000000" d="M 376 401 L 376 528" stroke-miterlimit="10"/></g><g transform="translate(-46,-70) scale(1,1)"><path fill="none" stroke="#000000" d="M 371.790482243984 517.8373251423759 L 376 528 L 380.209517756016 517.8373251423759" stroke-miterlimit="10"/></g><g transform="translate(-46,-70) scale(1,1)"><path fill="none" stroke="#000000" d="M 376 528 L 376 401" stroke-miterlimit="10"/></g><g transform="translate(-46,-70) scale(1,1)"><path fill="none" stroke="#000000" d="M 380.209517756016 411.16267485762415 L 376 401 L 371.790482243984 411.16267485762415" stroke-miterlimit="10"/></g><g transform="translate(-46,-70) scale(1,1)"><path fill="none" stroke="#000000" d="M 376 348 L 376 221" stroke-miterlimit="10"/></g><g transform="translate(-46,-70) scale(1,1)"><path fill="none" stroke="#000000" d="M 380.209517756016 231.16267485762415 L 376 221 L 371.790482243984 231.16267485762415" stroke-miterlimit="10"/></g><g transform="translate(-46,-70) scale(1,1)"><path fill="none" stroke="#000000" d="M 755 192 L 640 192" stroke-miterlimit="10"/></g><g transform="translate(-46,-70) scale(1,1)"><path fill="none" stroke="#000000" d="M 650.1626748576241 187.790482243984 L 640 192 L 650.1626748576241 196.209517756016" stroke-miterlimit="10"/></g><g transform="translate(-46,-70) scale(1,1)"><path fill="none" stroke="#000000" d="M 528 194 L 430 194" stroke-miterlimit="10"/></g><g transform="translate(-46,-70) scale(1,1)"><path fill="none" stroke="#000000" d="M 440.16267485762415 189.790482243984 L 430 194 L 440.16267485762415 198.209517756016" stroke-miterlimit="10"/></g><g transform="translate(-46,-70) scale(1,1)"><path fill="none" stroke="#000000" d="M 318 192 L 203 192" stroke-miterlimit="10"/></g><g transform="translate(-46,-70) scale(1,1)"><path fill="none" stroke="#000000" d="M 213.16267485762415 187.790482243984 L 203 192 L 213.16267485762415 196.209517756016" stroke-miterlimit="10"/></g><g transform="translate(-46,-70) scale(1,1)"><path fill="none" stroke="#000000" d="M 318 192 L 264 192 L 264 314 L 203 314" stroke-miterlimit="10"/></g><g transform="translate(-46,-70) scale(1,1)"><path fill="none" stroke="#000000" d="M 213.16267485762415 309.790482243984 L 203 314 L 213.16267485762415 318.209517756016" stroke-miterlimit="10"/></g><g transform="translate(-46,-70) scale(1,1)"><path fill="none" stroke="#000000" d="M 318 192 L 264 192 L 264 434 L 203 434" stroke-miterlimit="10"/></g><g transform="translate(-46,-70) scale(1,1)"><path fill="none" stroke="#000000" d="M 213.16267485762415 429.790482243984 L 203 434 L 213.16267485762415 438.209517756016" stroke-miterlimit="10"/></g><g transform="translate(-46,-70) scale(1,1)"><path fill="none" stroke="#000000" d="M 318 192 L 264 192 L 264 554 L 203 554" stroke-miterlimit="10"/></g><g transform="translate(-46,-70) scale(1,1)"><path fill="none" stroke="#000000" d="M 213.16267485762415 549.790482243984 L 203 554 L 213.16267485762415 558.209517756016" stroke-miterlimit="10"/></g><g transform="translate(-46,-70) scale(1,1)"><path fill="none" stroke="#000000" d="M 430 208 L 464 208 L 464 544 L 430 544" stroke-miterlimit="10"/></g><g transform="translate(-46,-70) scale(1,1)"><path fill="none" stroke="#000000" d="M 440.16267485762415 539.790482243984 L 430 544 L 440.16267485762415 548.209517756016" stroke-miterlimit="10"/></g><g transform="translate(-46,-70) scale(1,1)"><path fill="none" stroke="#000000" d="M 203 192 L 318 192" stroke-miterlimit="10"/></g><g transform="translate(-46,-70) scale(1,1)"><path fill="none" stroke="#000000" d="M 307.83732514237585 196.209517756016 L 318 192 L 307.83732514237585 187.790482243984" stroke-miterlimit="10"/></g><g transform="translate(-46,-70) scale(1,1)"><path fill="#C0C0C0" stroke="none" d="M 372 120.5 C 372 115.2532944 376.2532944 111 381.5 111 C 386.7467056 111 391 115.2532944 391 120.5 C 391 125.7467056 386.7467056 130 381.5 130 C 376.2532944 130 372 125.7467056 372 120.5 Z" opacity="0.2"/></g><g transform="translate(-46,-70) scale(1,1)"><path fill="#000000" stroke="none" d="M 365 113.5 C 365 108.2532944 369.2532944 104 374.5 104 C 379.7467056 104 384 108.2532944 384 113.5 C 384 118.7467056 379.7467056 123 374.5 123 C 369.2532944 123 365 118.7467056 365 113.5 Z"/></g><g transform="translate(-46,-70) scale(1,1)"><path fill="none" stroke="#000000" d="M 374 123 L 374 168" stroke-miterlimit="10"/></g><g transform="translate(-46,-70) scale(1,1)"><path fill="none" stroke="#000000" d="M 369.790482243984 157.83732514237585 L 374 168 L 378.209517756016 157.83732514237585" stroke-miterlimit="10"/></g><g transform="translate(-46,-70) scale(1,1)"><path fill="none" stroke="#000000" d="M 147 528 L 147 461" stroke-miterlimit="10"/></g><g transform="translate(-46,-70) scale(1,1)"><path fill="none" stroke="#000000" d="M 151.209517756016 471.16267485762415 L 147 461 L 142.790482243984 471.16267485762415" stroke-miterlimit="10"/></g><g transform="translate(-46,-70) scale(1,1)"><path fill="none" stroke="#000000" d="M 147 408 L 147 341" stroke-miterlimit="10"/></g><g transform="translate(-46,-70) scale(1,1)"><path fill="none" stroke="#000000" d="M 151.209517756016 351.16267485762415 L 147 341 L 142.790482243984 351.16267485762415" stroke-miterlimit="10"/></g><g transform="translate(-46,-70) scale(1,1)"><path fill="none" stroke="#000000" d="M 147 288 L 147 221" stroke-miterlimit="10"/></g><g transform="translate(-46,-70) scale(1,1)"><path fill="none" stroke="#000000" d="M 151.209517756016 231.16267485762415 L 147 221 L 142.790482243984 231.16267485762415" stroke-miterlimit="10"/></g><g transform="translate(-46,-70) scale(1,1)"><path fill="none" stroke="#000000" d="M 147 221 L 147 288" stroke-miterlimit="10"/></g><g transform="translate(-46,-70) scale(1,1)"><path fill="none" stroke="#000000" d="M 142.790482243984 277.83732514237585 L 147 288 L 151.209517756016 277.83732514237585" stroke-miterlimit="10"/></g><g transform="translate(-46,-70) scale(1,1)"><path fill="none" stroke="#000000" d="M 147 341 L 147 408" stroke-miterlimit="10"/></g><g transform="translate(-46,-70) scale(1,1)"><path fill="none" stroke="#000000" d="M 142.790482243984 397.83732514237585 L 147 408 L 151.209517756016 397.83732514237585" stroke-miterlimit="10"/></g><g transform="translate(-46,-70) scale(1,1)"><path fill="none" stroke="#000000" d="M 147 461 L 147 528" stroke-miterlimit="10"/></g><g transform="translate(-46,-70) scale(1,1)"><path fill="none" stroke="#000000" d="M 142.790482243984 517.8373251423759 L 147 528 L 151.209517756016 517.8373251423759" stroke-miterlimit="10"/></g><g transform="translate(-46,-70) scale(1,1)"><g><path fill="none" stroke="none"/><text fill="#000000" stroke="none" font-family="Times New Roman" font-size="20px" font-style="normal" font-weight="normal" text-decoration="none" x="621" y="107">Non Registered User Navigation</text></g></g></g></svg>