<svg xmlns="http://www.w3.org/2000/svg" xmlns:xlink="http://www.w3.org/1999/xlink" version="1.1" width="404" height="499"><defs/><g><g transform="translate(-110,-38) scale(1,1)"><rect fill="#ffffff" stroke="none" x="184" y="48" width="320" height="479"/></g><g transform="translate(-110,-38) scale(1,1)"><path fill="none" stroke="#000000" d="M 184 48 L 504 48 L 504 527 L 184 527 L 184 48 Z Z" stroke-miterlimit="10"/></g><g transform="translate(-110,-38) scale(1,1)"><path fill="#C0C0C0" stroke="none" d="M 313 188 L 388.65185546875 188 Q 398.65185546875 188 398.65185546875 198 L 398.65185546875 218 Q 398.65185546875 228 388.65185546875 228 L 313 228 Q 303 228 303 218 L 303 198 Q 303 188 313 188 Z" opacity="0.2"/></g><g transform="translate(-110,-38) scale(1,1)"><path fill="#d8e5ff" stroke="none" d="M 306 181 L 381.65185546875 181 Q 391.65185546875 181 391.65185546875 191 L 391.65185546875 211 Q 391.65185546875 221 381.65185546875 221 L 306 221 Q 296 221 296 211 L 296 191 Q 296 181 306 181 Z"/></g><g transform="translate(-110,-38) scale(1,1)"><path fill="none" stroke="#000000" d="M 306 181 L 381.65185546875 181 Q 391.65185546875 181 391.65185546875 191 L 391.65185546875 211 Q 391.65185546875 221 381.65185546875 221 L 306 221 Q 296 221 296 211 L 296 191 Q 296 181 306 181 Z" stroke-miterlimit="10"/></g><g transform="translate(-110,-38) scale(1,1)"><g><path fill="none" stroke="none"/><text fill="#000000" stroke="none" font-family="Arial" font-size="13px" font-style="normal" font-weight="bold" text-decoration="none" x="325.766845703125" y="199">Home</text></g></g><g transform="translate(-110,-38) scale(1,1)"><path fill="#C0C0C0" stroke="none" d="M 313 278 L 388.65185546875 278 Q 398.65185546875 278 398.65185546875 288 L 398.65185546875 308 Q 398.65185546875 318 388.65185546875 318 L 313 318 Q 303 318 303 308 L 303 288 Q 303 278 313 278 Z" opacity="0.2"/></g><g transform="translate(-110,-38) scale(1,1)"><path fill="#ebffd8" stroke="none" d="M 306 271 L 381.65185546875 271 Q 391.65185546875 271 391.65185546875 281 L 391.65185546875 301 Q 391.65185546875 311 381.65185546875 311 L 306 311 Q 296 311 296 301 L 296 281 Q 296 271 306 271 Z"/></g><g transform="translate(-110,-38) scale(1,1)"><path fill="none" stroke="#000000" d="M 306 271 L 381.65185546875 271 Q 391.65185546875 271 391.65185546875 281 L 391.65185546875 301 Q 391.65185546875 311 381.65185546875 311 L 306 311 Q 296 311 296 301 L 296 281 Q 296 271 306 271 Z" stroke-miterlimit="10"/></g><g transform="translate(-110,-38) scale(1,1)"><g><path fill="none" stroke="none"/><text fill="#000000" stroke="none" font-family="Arial" font-size="13px" font-style="normal" font-weight="bold" text-decoration="none" x="323.59912109375" y="289">Profile</text></g></g><g transform="translate(-110,-38) scale(1,1)"><path fill="#C0C0C0" stroke="none" d="M 385 375 L 460.65185546875 375 Q 470.65185546875 375 470.65185546875 385 L 470.65185546875 405 Q 470.65185546875 415 460.65185546875 415 L 385 415 Q 375 415 375 405 L 375 385 Q 375 375 385 375 Z" opacity="0.2"/></g><g transform="translate(-110,-38) scale(1,1)"><path fill="#ebffd8" stroke="none" d="M 378 368 L 453.65185546875 368 Q 463.65185546875 368 463.65185546875 378 L 463.65185546875 398 Q 463.65185546875 408 453.65185546875 408 L 378 408 Q 368 408 368 398 L 368 378 Q 368 368 378 368 Z"/></g><g transform="translate(-110,-38) scale(1,1)"><path fill="none" stroke="#000000" d="M 378 368 L 453.65185546875 368 Q 463.65185546875 368 463.65185546875 378 L 463.65185546875 398 Q 463.65185546875 408 453.65185546875 408 L 378 408 Q 368 408 368 398 L 368 378 Q 368 368 378 368 Z" stroke-miterlimit="10"/></g><g transform="translate(-110,-38) scale(1,1)"><g><path fill="none" stroke="none"/><text fill="#000000" stroke="none" font-family="Arial" font-size="13px" font-style="normal" font-weight="bold" text-decoration="none" x="386.925048828125" y="386">Favorites</text></g></g><g transform="translate(-110,-38) scale(1,1)"><path fill="#C0C0C0" stroke="none" d="M 241 375 L 316.65185546875 375 Q 326.65185546875 375 326.65185546875 385 L 326.65185546875 405 Q 326.65185546875 415 316.65185546875 415 L 241 415 Q 231 415 231 405 L 231 385 Q 231 375 241 375 Z" opacity="0.2"/></g><g transform="translate(-110,-38) scale(1,1)"><path fill="#ebffd8" stroke="none" d="M 234 368 L 309.65185546875 368 Q 319.65185546875 368 319.65185546875 378 L 319.65185546875 398 Q 319.65185546875 408 309.65185546875 408 L 234 408 Q 224 408 224 398 L 224 378 Q 224 368 234 368 Z"/></g><g transform="translate(-110,-38) scale(1,1)"><path fill="none" stroke="#000000" d="M 234 368 L 309.65185546875 368 Q 319.65185546875 368 319.65185546875 378 L 319.65185546875 398 Q 319.65185546875 408 309.65185546875 408 L 234 408 Q 224 408 224 398 L 224 378 Q 224 368 234 368 Z" stroke-miterlimit="10"/></g><g transform="translate(-110,-38) scale(1,1)"><g><path fill="none" stroke="none"/><text fill="#000000" stroke="none" font-family="Arial" font-size="13px" font-style="normal" font-weight="bold" text-decoration="none" x="228.5" y="386">Shopping List</text></g></g><g transform="translate(-110,-38) scale(1,1)"><path fill="#C0C0C0" stroke="none" d="M 241 471 L 316.65185546875 471 Q 326.65185546875 471 326.65185546875 481 L 326.65185546875 501 Q 326.65185546875 511 316.65185546875 511 L 241 511 Q 231 511 231 501 L 231 481 Q 231 471 241 471 Z" opacity="0.2"/></g><g transform="translate(-110,-38) scale(1,1)"><path fill="#d1ffa3" stroke="none" d="M 234 464 L 309.65185546875 464 Q 319.65185546875 464 319.65185546875 474 L 319.65185546875 494 Q 319.65185546875 504 309.65185546875 504 L 234 504 Q 224 504 224 494 L 224 474 Q 224 464 234 464 Z"/></g><g transform="translate(-110,-38) scale(1,1)"><path fill="none" stroke="#000000" d="M 234 464 L 309.65185546875 464 Q 319.65185546875 464 319.65185546875 474 L 319.65185546875 494 Q 319.65185546875 504 309.65185546875 504 L 234 504 Q 224 504 224 494 L 224 474 Q 224 464 234 464 Z" stroke-miterlimit="10"/></g><g transform="translate(-110,-38) scale(1,1)"><g><path fill="none" stroke="none"/><text fill="#000000" stroke="none" font-family="Arial" font-size="13px" font-style="normal" font-weight="bold" text-decoration="none" x="241.86181640625" y="482">Shopping</text></g></g><g transform="translate(-110,-38) scale(1,1)"><path fill="#C0C0C0" stroke="none" d="M 341 128.5 C 341 123.2532944 345.2532944 119 350.5 119 C 355.7467056 119 360 123.2532944 360 128.5 C 360 133.7467056 355.7467056 138 350.5 138 C 345.2532944 138 341 133.7467056 341 128.5 Z" opacity="0.2"/></g><g transform="translate(-110,-38) scale(1,1)"><path fill="#000000" stroke="none" d="M 334 121.5 C 334 116.2532944 338.2532944 112 343.5 112 C 348.7467056 112 353 116.2532944 353 121.5 C 353 126.7467056 348.7467056 131 343.5 131 C 338.2532944 131 334 126.7467056 334 121.5 Z"/></g><g transform="translate(-110,-38) scale(1,1)"><path fill="none" stroke="#000000" d="M 343 132 L 343 180" stroke-miterlimit="10"/></g><g transform="translate(-110,-38) scale(1,1)"><path fill="none" stroke="#000000" d="M 338.790482243984 169.83732514237585 L 343 180 L 347.209517756016 169.83732514237585" stroke-miterlimit="10"/></g><g transform="translate(-110,-38) scale(1,1)"><path fill="none" stroke="#000000" d="M 343 221 L 343 271" stroke-miterlimit="10"/></g><g transform="translate(-110,-38) scale(1,1)"><path fill="none" stroke="#000000" d="M 338.790482243984 260.83732514237585 L 343 271 L 347.209517756016 260.83732514237585" stroke-miterlimit="10"/></g><g transform="translate(-110,-38) scale(1,1)"><path fill="none" stroke="#000000" d="M 328 311 L 328 336 L 288 336 L 288 368" stroke-miterlimit="10"/></g><g transform="translate(-110,-38) scale(1,1)"><path fill="none" stroke="#000000" d="M 283.790482243984 357.83732514237585 L 288 368 L 292.209517756016 357.83732514237585" stroke-miterlimit="10"/></g><g transform="translate(-110,-38) scale(1,1)"><path fill="none" stroke="#000000" d="M 360 311 L 360 336 L 400 336 L 400 368" stroke-miterlimit="10"/></g><g transform="translate(-110,-38) scale(1,1)"><path fill="none" stroke="#000000" d="M 395.790482243984 357.83732514237585 L 400 368 L 404.209517756016 357.83732514237585" stroke-miterlimit="10"/></g><g transform="translate(-110,-38) scale(1,1)"><path fill="none" stroke="#000000" d="M 271 408 L 271 464" stroke-miterlimit="10"/></g><g transform="translate(-110,-38) scale(1,1)"><path fill="none" stroke="#000000" d="M 266.790482243984 453.83732514237585 L 271 464 L 275.209517756016 453.83732514237585" stroke-miterlimit="10"/></g><g transform="translate(-110,-38) scale(1,1)"><path fill="none" stroke="#000000" d="M 321 388 L 367 388" stroke-miterlimit="10"/></g><g transform="translate(-110,-38) scale(1,1)"><path fill="none" stroke="#000000" d="M 356.83732514237585 392.209517756016 L 367 388 L 356.83732514237585 383.790482243984" stroke-miterlimit="10"/></g><g transform="translate(-110,-38) scale(1,1)"><path fill="none" stroke="#000000" d="M 367 388 L 321 388" stroke-miterlimit="10"/></g><g transform="translate(-110,-38) scale(1,1)"><path fill="none" stroke="#000000" d="M 331.16267485762415 383.790482243984 L 321 388 L 331.16267485762415 392.209517756016" stroke-miterlimit="10"/></g><g transform="translate(-110,-38) scale(1,1)"><path fill="none" stroke="#000000" d="M 288 368 L 288 336 L 328 336 L 328 311" stroke-miterlimit="10"/></g><g transform="translate(-110,-38) scale(1,1)"><path fill="none" stroke="#000000" d="M 332.209517756016 321.16267485762415 L 328 311 L 323.790482243984 321.16267485762415" stroke-miterlimit="10"/></g><g transform="translate(-110,-38) scale(1,1)"><path fill="none" stroke="#000000" d="M 400 368 L 400 336 L 360 336 L 360 311" stroke-miterlimit="10"/></g><g transform="translate(-110,-38) scale(1,1)"><path fill="none" stroke="#000000" d="M 364.209517756016 321.16267485762415 L 360 311 L 355.790482243984 321.16267485762415" stroke-miterlimit="10"/></g><g transform="translate(-110,-38) scale(1,1)"><path fill="none" stroke="#000000" d="M 343 271 L 343 221" stroke-miterlimit="10"/></g><g transform="translate(-110,-38) scale(1,1)"><path fill="none" stroke="#000000" d="M 347.209517756016 231.16267485762415 L 343 221 L 338.790482243984 231.16267485762415" stroke-miterlimit="10"/></g><g transform="translate(-110,-38) scale(1,1)"><path fill="none" stroke="#000000" d="M 296 200 L 256 200 L 256 368" stroke-miterlimit="10"/></g><g transform="translate(-110,-38) scale(1,1)"><path fill="none" stroke="#000000" d="M 251.790482243984 357.83732514237585 L 256 368 L 260.209517756016 357.83732514237585" stroke-miterlimit="10"/></g><g transform="translate(-110,-38) scale(1,1)"><path fill="none" stroke="#000000" d="M 256 368 L 256 200 L 296 200" stroke-miterlimit="10"/></g><g transform="translate(-110,-38) scale(1,1)"><path fill="none" stroke="#000000" d="M 285.83732514237585 204.209517756016 L 296 200 L 285.83732514237585 195.790482243984" stroke-miterlimit="10"/></g><g transform="translate(-110,-38) scale(1,1)"><path fill="none" stroke="#000000" d="M 392 200 L 432 200 L 432 368" stroke-miterlimit="10"/></g><g transform="translate(-110,-38) scale(1,1)"><path fill="none" stroke="#000000" d="M 427.790482243984 357.83732514237585 L 432 368 L 436.209517756016 357.83732514237585" stroke-miterlimit="10"/></g><g transform="translate(-110,-38) scale(1,1)"><path fill="none" stroke="#000000" d="M 432 368 L 432 200 L 392 200" stroke-miterlimit="10"/></g><g transform="translate(-110,-38) scale(1,1)"><path fill="none" stroke="#000000" d="M 402.16267485762415 195.790482243984 L 392 200 L 402.16267485762415 204.209517756016" stroke-miterlimit="10"/></g><g transform="translate(-110,-38) scale(1,1)"><path fill="none" stroke="#000000" d="M 271 464 L 271 408" stroke-miterlimit="10"/></g><g transform="translate(-110,-38) scale(1,1)"><path fill="none" stroke="#000000" d="M 275.209517756016 418.16267485762415 L 271 408 L 266.790482243984 418.16267485762415" stroke-miterlimit="10"/></g><g transform="translate(-110,-38) scale(1,1)"><g><path fill="none" stroke="none"/><text fill="#000000" stroke="none" font-family="Times New Roman" font-size="20px" font-style="normal" font-weight="normal" text-decoration="none" x="229" y="75">Registered User Navigation</text></g></g></g></svg>